<?xml version="1.0" standalone="no"?>
<!DOCTYPE svg PUBLIC "-//W3C//DTD SVG 20010904//EN"
 "http://www.w3.org/TR/2001/REC-SVG-20010904/DTD/svg10.dtd">
<svg version="1.0" xmlns="http://www.w3.org/2000/svg"
 width="1537.000000pt" height="1537.000000pt" viewBox="0 0 1537.000000 1537.000000"
 preserveAspectRatio="xMidYMid meet">
<metadata>
Created by potrace 1.11, written by Peter Selinger 2001-2013
</metadata>
<g transform="translate(0.000000,1537.000000) scale(0.100000,-0.100000)"
fill="#000000" stroke="none">
<path d="M7293 15009 c-24 -12 -44 -26 -44 -33 -6 -55 -4 -78 7 -118 15 -50
15 -50 129 -63 28 -4 57 -8 65 -10 8 -2 31 -7 50 -10 144 -24 408 -94 462
-121 15 -8 29 -14 30 -13 2 0 16 -4 31 -10 16 -6 31 -11 34 -11 3 0 56 -25
119 -56 525 -256 824 -703 899 -1344 3 -30 9 -73 12 -95 3 -22 7 -438 8 -925
2 -775 4 -923 17 -936 2 -1 15 -5 29 -9 24 -6 33 1 83 64 31 39 66 81 79 95
12 13 60 66 107 117 47 52 112 123 145 159 144 157 241 264 255 280 14 16 177
194 210 230 8 9 35 38 59 66 37 41 200 219 236 258 25 27 304 335 330 365 17
18 44 48 60 66 17 17 46 50 65 71 19 21 59 66 90 99 85 94 197 218 217 241 10
12 52 59 94 105 42 46 100 111 129 144 404 458 652 675 944 829 198 105 406
171 944 302 220 53 203 37 199 179 l-2 90 -30 6 c-16 4 -1378 7 -3025 8
l-2995 1 -42 -21z"/>
<path d="M32 14988 l-33 -9 5 -75 c2 -42 6 -77 8 -79 1 -1 43 -6 93 -9 86 -6
188 -20 223 -30 10 -3 28 -7 42 -10 76 -12 302 -96 390 -144 174 -94 250 -140
375 -230 277 -197 456 -446 530 -732 1 -3 5 -25 9 -50 5 -25 10 -52 11 -60 2
-8 6 -49 10 -90 3 -41 8 -86 10 -100 2 -14 7 -59 10 -100 4 -41 8 -82 10 -90
1 -8 6 -51 10 -95 4 -44 9 -88 11 -98 1 -9 6 -50 9 -90 3 -39 7 -90 9 -112 2
-22 7 -83 10 -135 4 -52 9 -125 12 -162 8 -99 13 -958 18 -3358 3 -1174 8
-2826 12 -3670 3 -844 7 -2067 7 -2717 l2 -1182 23 -6 c14 -3 29 1 41 12 10
10 105 137 212 283 106 146 197 270 201 275 14 18 71 96 253 345 98 135 222
304 275 375 168 228 524 715 545 745 24 35 237 326 350 478 43 59 113 154 155
212 42 58 274 375 515 705 241 330 450 616 464 637 14 20 144 198 288 395 144
198 271 375 282 394 23 40 56 137 66 194 13 78 24 5353 11 5610 -4 83 -9 168
-11 190 -2 22 -6 74 -10 115 -5 71 -11 129 -20 195 -2 17 -6 57 -10 90 -4 33
-9 71 -11 85 -2 14 -9 54 -15 90 -5 36 -14 83 -19 105 -5 22 -11 54 -14 70
-10 58 -66 236 -106 335 -173 434 -481 813 -873 1073 -215 143 -483 262 -727
322 -52 13 -224 45 -270 50 -114 12 -139 14 -305 20 -443 15 -870 22 -1728 30
-342 3 -779 7 -972 9 -192 2 -365 -1 -383 -6z"/>
<path d="M8641 10663 c-17 -15 -126 -158 -241 -318 -116 -159 -317 -437 -447
-617 -131 -181 -254 -350 -273 -376 -19 -27 -80 -111 -135 -187 -55 -76 -107
-147 -115 -159 -8 -11 -62 -86 -120 -166 -58 -80 -112 -155 -120 -167 -19 -27
-177 -245 -245 -338 -63 -86 -534 -738 -555 -768 -8 -12 -57 -80 -109 -152
-53 -71 -103 -147 -113 -167 -33 -69 -23 -132 47 -293 7 -16 30 -70 50 -120
36 -87 263 -555 274 -565 3 -3 26 -43 50 -90 46 -91 106 -206 259 -495 166
-315 194 -368 240 -455 24 -47 67 -128 95 -180 27 -52 67 -126 87 -165 58
-109 193 -365 270 -510 56 -106 112 -211 165 -310 18 -33 60 -114 95 -180 34
-66 78 -149 98 -185 19 -36 62 -117 95 -180 33 -63 63 -119 67 -125 4 -5 58
-109 121 -230 62 -121 150 -292 196 -380 45 -88 100 -194 120 -235 21 -41 40
-77 43 -80 3 -3 17 -30 33 -60 15 -30 47 -91 70 -135 24 -44 67 -125 97 -180
87 -163 317 -561 396 -686 159 -252 324 -439 529 -603 282 -226 654 -384 1010
-432 28 -3 57 -8 66 -9 69 -13 239 -19 484 -17 160 2 1152 3 2206 3 l1917 -1
8 28 c13 49 12 107 -3 132 -23 41 -68 55 -195 65 -170 13 -362 32 -413 41
-244 44 -405 107 -552 215 -211 156 -392 366 -570 664 -62 103 -213 372 -213
380 0 2 -15 30 -34 62 -18 32 -55 99 -81 148 -27 50 -56 104 -65 120 -9 17
-41 75 -70 130 -29 55 -72 134 -95 175 -23 41 -66 120 -95 175 -29 55 -62 115
-72 133 -10 19 -39 73 -65 120 -25 48 -73 137 -106 197 -78 144 -105 194 -157
290 -24 44 -69 127 -100 185 -32 58 -77 141 -100 185 -23 44 -58 109 -78 145
-19 36 -47 88 -62 115 -15 28 -54 100 -87 160 -33 61 -80 146 -103 190 -63
117 -109 203 -140 260 -15 28 -47 86 -70 130 -24 44 -69 127 -100 185 -32 58
-77 141 -100 185 -61 114 -108 202 -140 260 -29 52 -50 93 -170 315 -40 74
-85 158 -100 185 -28 51 -77 144 -151 283 -23 42 -49 91 -59 107 -9 17 -39 71
-65 120 -26 50 -60 113 -75 140 -37 68 -141 261 -210 390 -39 73 -133 247
-200 370 -27 51 -76 141 -151 283 -54 100 -105 195 -139 257 -34 62 -90 166
-143 265 -22 41 -69 129 -105 195 -35 66 -83 154 -105 195 -22 41 -50 93 -62
115 -12 22 -46 84 -74 137 -28 54 -62 117 -75 140 -13 24 -43 79 -66 123 -23
44 -55 103 -70 130 -156 288 -277 515 -327 615 -21 41 -40 77 -43 80 -3 3 -23
41 -46 85 -203 397 -375 728 -379 733 -2 2 -17 -9 -34 -25z"/>
</g>
</svg>
