<svg xmlns="http://www.w3.org/2000/svg" class="beh" viewBox="0 0 346.58 69.14" style="cursor:pointer"><defs><style>path,polyline{fill:none;stroke:#fff;stroke-miterlimit:10;stroke-dasharray:210px;transition:all 2s linear}svg.beh:hover path{stroke-dashoffset:110px;}</style></defs><title>Asset 13</title><g id="Layer_2" data-name="Layer 2"><g id="Layer_1-2" data-name="Layer 1"><path class="cls-1" d="M.5.5H21.9A19.67,19.67,0,0,1,41.57,20.17V54.09A14.45,14.45,0,0,1,27,68.54L.5,68.37Z"/><path class="cls-2" d="M6.22,6.4H21.78A13.87,13.87,0,0,1,35.64,20.27V28.2H6.22Z"/><path class="cls-2" d="M35.64,33.23H6.22V62.08H27.7a7.94,7.94,0,0,0,7.94-7.94Z"/><path class="cls-2" d="M92,.5H67.17A14.38,14.38,0,0,0,52.79,14.88V53.23A15.28,15.28,0,0,0,68.2,68.51l15.71-.14"/><path class="cls-2" d="M86,6.4H67.19a8,8,0,0,0-8,8V28.2H92"/><path class="cls-2" d="M80.15,33.23H59.4l-.26,21.26a7.68,7.68,0,0,0,7.59,7.68L92,62.5"/><line class="cls-2" x1="100.42" y1="0.5" x2="100.42" y2="68.37"/><polyline class="cls-2" points="106.98 11.27 106.98 28.2 135.56 28.2 135.56 0.5"/><line class="cls-2" x1="141.91" y1="6.4" x2="141.91" y2="68.37"/><polyline class="cls-2" points="135.56 54.24 135.32 33.23 106.74 33.23 106.98 60.38"/><path class="cls-2" d="M153.56,45.67V14.14A13.64,13.64,0,0,1,167.2.5h27.64V68.37"/><path class="cls-2" d="M159.7,28.2V14.44a8,8,0,0,1,8-8h20.75V28.2Z"/><polyline class="cls-2" points="159.7 56.78 159.79 33.23 188.59 33.23 188.49 56.78"/><path class="cls-2" d="M207.77,68.37V6.4S209.23.5,215.1.5s7.12,5.9,7.12,5.9l17,41.18V11.13"/><line class="cls-2" x1="213.9" y1="56.07" x2="213.81" y2="7.24"/><path class="cls-2" d="M245.15.5v62A3.67,3.67,0,0,1,242,64.74c-2.21,0-3.62-2.24-3.62-2.24L216.15,7.16a1.24,1.24,0,0,0-1.05-.76,1.43,1.43,0,0,0-1.14.76v49.3"/><path class="cls-2" d="M300.14.5H280.4a19.24,19.24,0,0,0-19.24,19.24V49a19.67,19.67,0,0,0,19.67,19.67h19.31"/><path class="cls-2" d="M300.14,6.4l-19.07-.1a13.82,13.82,0,0,0-13.89,13.89l.14,28.66A13.71,13.71,0,0,0,281,62.5h10.13"/><path class="cls-2" d="M346.58.5H321.32a13.85,13.85,0,0,0-13.85,13.85V53.83a14.68,14.68,0,0,0,14.81,14.68l16-.14"/><path class="cls-2" d="M340.78,6.4H322a8.42,8.42,0,0,0-8.41,8.41V28.34h33"/><path class="cls-2" d="M334.28,33.23H313.55V53.78a8.71,8.71,0,0,0,8.72,8.72h24.31"/></g></g></svg>