<svg xmlns="http://www.w3.org/2000/svg" viewBox="0 0 307.15 541.82"><defs><style>path{fill:none;stroke:#fff;stroke-miterlimit:10;stroke-width: 1px;stroke-dasharray: 2845px;stroke-dashoffset: 2845px;display:'none';-webkit-animation: svgAnim 20s ease-in-out 17s 1 both ;animation: svgAnim 20s ease-in-out 17s 1 both ;}@-webkit-keyframes svgAnim
{
	0% {stroke-dashoffset:2845px;}
	50% {stroke-dashoffset:0}
	100% {stroke-dashoffset:2845px;}
}@keyframes svgAnim
{
	0% {stroke-dashoffset:2845px;}
	50% {stroke-dashoffset:0}
	100% {stroke-dashoffset:2845px;}
}</style></defs><title>Asset 25</title><g id="Layer_2" data-name="Layer 2"><g id="Layer_1-2" data-name="Layer 1"><path class="cls-1" d="M161.37,396.45H148.05v10.31l-1.12.11c-.36-3.2-.72-6.4-1.1-9.87H140.4l-3,16.79-1.57-.31c.65-5.19,1.29-10.38,2-16.42L96.53,402.3l-.2-1.3,41.15-5.7c0-5.9.19-12,0-18.09-.39-10.31-.64-20.66-1.78-30.91a32.2,32.2,0,0,0-4.78-13.7c-9.55-14.48-22.88-25.44-35.95-36.55-17.16-14.59-30.5-31.55-35-54.26-.15-.79-.16-1.61-.35-3.63,3.2,3.55,5.52,6.44,8.16,9,5.48,5.28,10.43,11.58,16.84,15.34,19.46,11.38,32,28.3,41.07,48.21,4.37,9.59,8.17,19.48,11.61,29.45,1.37,4,1.25,8.52,1.48,12.83.75,13.91,1.35,27.84,2,42.07l4.82-.37c5-54.59-5.6-106.87-22.19-158.3,10.79,36.69,15.71,74.35,19,112.27l-1.43.22c-.73-6.51-1.42-13-2.21-19.51-3.72-30.5-8.46-60.79-17.55-90.25-1-3.35-2.68-4.81-6-4.12-3.89.79-7.74,1.75-12,2.73l-.62-5.92c-2.54.64-5,1.26-7.52,1.9-9.5,2.46-17.5-.75-22.87-8.92a36.7,36.7,0,0,0-5.44-6.43,16.94,16.94,0,0,1-2.51-22,69,69,0,0,1,8.32-10.56c1.79-1.75,4.82-2.23,7.73-3.47-.05-.7-.2-2.86-.38-5.51-4.7-4.24-2.23-16.72,4.49-21.46-1.92-2.54-4.51-4.81-5.62-7.66-2.09-5.37,1.61-10.65,7.26-12.8,4.67-1.78,8.91-4.64,13.48-6.72,1.08-.49,3.38-.23,4,.56a86.41,86.41,0,0,1,5.39,8.35c1.59-6,3.24-12.44,5.06-18.87.8-2.84,2.33-4,5.83-3.64s7.48-.82,11.09-1.85c3.92-1.1,7.13-1.54,10.41,1.93,1.84,1.94,5.11,2.52,8.38,4-3.56-14.24-26-9.39-43.4-17l32.35-2.93c-1.32-3.16-2.34-7.73-4.94-11.06C132,85.5,128,84.19,125,84.29a50.62,50.62,0,0,1-23.59-5,23.35,23.35,0,0,1-2.92-2.13c8.66-1.14,16.55-2.7,24.48-3,2.88-.09,5.85,3,9.55,5-1.47-6.14-2.1-12.47-4.5-18-4.35-10-2.29-19.66.39-29.7"/><path class="cls-1" d="M128.45,31.49c4.21,4.35,7.15,9.62,7.16,15.48,0,6.34-1.9,12.66-2.47,19-.33,3.74.32,7.57.5,10.89l17.73-24.8c-1.77,10.34-1.12,21.75-11.63,28.49-4,2.53-4.83,5.5-2.64,9.62,1.78,3.35,3.35,6.8,4.62,9.41,4.68-9.45,9.49-19.16,14.35-29,4.63,3.91,5.51,11.27,1.43,18.34-3.29,5.68-7.76,10.68-12,16.37,2,3.54,4.36,7.52,6.29,10.87l17.67-26.09c3.12,10.33,1.3,27.68-14.63,32.77.45,4,.9,8.09,1.45,13,4.27-6.67,10-10.36,17-12.74,5.36-1.83,8.49-5.94,8.6-12.12a137.88,137.88,0,0,1,8-43.85c.34-.94-.25-2.25-.53-3.35-.83-3.24-2.5-6.5-2.32-9.67.12-2.16,2.79-4.18,4.31-6.27,2.62,2.07,6.29,3.65,7.53,6.35,1.12,2.44,0,6.26-1,9.15-.43,1.22-3.2,1.61-4.91,2.38l-1.49-1.07q-4.14,19.45-8.27,38.9l1.46.46c6.53-16.26,14.47-31.68,26.21-44.77-4-6.42-4.27-11.47,0-14.31,5.7-3.83,9.33,1.54,13.74,3.68-.82,3.82-1.06,7.61-2.52,10.85-.92,2.06-3.44,3.91-5.66,4.7-1.3.46-3.41-1.36-5.73-2.41-10.18,11.53-17.22,26.05-23.63,41-3.91,9.1-4.22,18.3-2.53,28.67,1.42-1.24,3.15-2,3.49-3.18,2.8-9.58,9.55-16.62,15.2-24.4,8.21-11.32,16.17-22.84,24.67-34.29-13.22,24.81-13,53.15-20.92,79.72,5.89-1.45,11.52-1.51,14.1,5.19,15-11.14,32-19.35,43.55-35.49.54,1.82.8,2.23.69,2.38C254.91,135.81,245,150.64,234,164.5c-5.5,6.87-13.22,11.95-19.95,17.83-.36.31-1,.33-1.31.69-4,5.33-7.74,10.85-14.12,14.08-1.17.59-.91,5.67,0,8.23,1.67,4.88,4.26,9.44,6.48,14.16,1.94-4.13,4.85-7.9,4.27-13.7-.6-6.08.88-12.37,1.45-18.57l1.86-.22q1.54,7.09,3.1,14.19l1.43.7c2.75-3.43,5.42-6.93,8.26-10.27,1.7-2,3.41-4.2,5.57-5.59,3.91-2.51,8.16-4.5,12.95-7.07-3.79,8-6.44,15.79-15.95,18.5-5.43,1.55-11.32,3.71-12.6,9.61l20.42,4.61c-8.35,4.25-16.51,7.37-26,3.28l-3.74,7.37L232,232.21c-4.28,3.21-8,2.25-11.87,1.13s-7.74-1.62-11.61-2.42c-4.88-1-7.78.78-9,5.75-.65,2.66-2,5.14-3,7.37L223,235.87c-10.05,16-15,18.09-27.47,11.72l-7.89,17.68h27.45c-5.62,9-14.28,11.85-28.36,3.55-13.19,20.6-24.43,84.42-22.1,125.41l29.43,6.21-.26,1.38-28.58-5.57v15l-1.55.18c-.75-4.86-1.49-9.71-2.29-15"/><path class="cls-1" d="M222.6,172.67c5.72-6.5,11.57-12.91,17.13-19.55,2.7-3.23,4.85-6.92,7.25-10.4l-.89-.52-23.78,20.13c5.05,3.91.58,6.62-.28,9.75L206.9,178c1.32,2,2.11,3.13,3.43,5.09Z"/><path class="cls-1" d="M165.71,192.11c3.43.62,3.17,3.11.89,6.16-1.2,1.6-2.51,3.11-3.73,4.69-6.08,7.83-11.5,15.86-9.6,26.63.43,2.42-.05,5-.13,7.48-.69,23.28-1.86,46.55-1.9,69.82,0,15.79,1.53,31.58,2.36,47.37.51,9.64-1.95,31.18-1.95,40h10.11c0-2.2-.11-4,0-5.84,1.38-20.06,1.14-40.41,4.66-60.09,3.44-19.33,10.56-38,16.37-56.89,2.62-8.52-10.92-16.13-10.2-28l14.49,17.93c1.48-3.63,3.22-7.88,4.66-11.38-3-2.66-6.22-4.48-7.8-7.25s-2.17-6.57-2.19-9.92c0-5.54.75-11.09,1.25-17.3l12.33,26.23c1.41-4.23,1.85-9,4.35-12.25,3.69-4.78.3-6.64-2-9.52s-4.19-6.36-6.69-9.19c-1.41-1.59-3.63-3.14-5.62-3.32-1.39-.14-3.71,1.74-4.4,3.27-2.75,6-4.81,12.39-7.51,18.45-8.42,18.89-12.61,38.88-14.3,59.26C158,302.38,156,330.16,156,351.6c-6.83-57.39,1.1-113.25,16.71-169Z"/><path class="cls-1" d="M105,174.11l-1,.31c-1-3.17-1.38-6.79-3.2-9.39-3-4.3-7.4-5.91-11.29-1.72L95,158.77c.14-1.23,1.79-.52,3.18.52,2.92,2.2,5.71,4.55,8.53,6.87s6.16,2.6,8.3-.46c4.22-6.06,8-12.44,11.71-18.84.68-1.18.1-3.1.1-5.75-2.62,1.44-4.48,2.13-5.93,3.32-8.75,7.23-18.51,11.14-30.08,11.17-4,0-8.71,1.54-9.66,7a77.67,77.67,0,0,0-1.31,8.79c-.06,1,1.28,3.08,1.67,3a36.39,36.39,0,0,0,6.68-2.16c3.63-1.49,7.21-3.11,10.63-4.6L101.53,179l-.84.23-3.36-9c-2.59,1.2-5,2.18-7.34,3.45-10.88,6-9.89,4.08-3.92,14.21.11.19.53.21,1.62.63.26-3.92.5-7.56.73-11.06l13.2,5.54c1.35.56,5.66-9.06,5.5-10.34-.08-.6-2.83-5.95-3.05-5.68l-.63.73Z"/><path class="cls-1" d="M130.23,140.84l-.16-1.88a22.48,22.48,0,0,0,2.31-1.78c5.21-5.21,9.38-10.88,7.34-18.89-.93-3.63-2.75-5.24-6.93-3.81a40.19,40.19,0,0,1-12.5,2.43c-2.74,0-3.79.68-4.75,2.94a40.34,40.34,0,0,0-2.94,22.76c.2,1.15.48,2.29.73,3.44,1.21-.4,7.85-7.44,10.66-10.76s4.9-7.37,7.31-11.1l1,.59c-2.7,4.51-5.39,9-8.69,14.55l4.5-3.75c-.68,1.86-1.69,3.19-1.37,4,1.71,4.24,9.73,6.7,14,4.68C144,142.7,147.4,141.44,151,140,144,138.77,137.28,133.51,130.23,140.84Z"/><path class="cls-1" d="M181.4,170.68c-1.1-1.73-2.19-3.26-3.08-4.9-3.9-7.2-8.16-8.5-15.9-5.89-3.74,1.26-6.19,4.13-8.33,7.29a36.75,36.75,0,0,1-3.14,4.55c-1.41,1.52-2.54,2.72-2,5a8.31,8.31,0,0,0,3.29,4.66c1.54,1.19,3.29,2.06,4.92,3.11a10.84,10.84,0,0,1,4.06,4.09c.32.63.67,1.42,1.37,1.49a1.74,1.74,0,0,0,1.06-.36c4.66-2.84,7.52-7.8,11.16-11.8a7.2,7.2,0,0,0,.79,2.87c1.72-1,2.85-2.59,4.39-3.8.84-.67,1.08-2.1,1.59-3.18a10.65,10.65,0,0,0-3-1.15c-2.8-.16-5.61-.06-8.42-.06l-.11-.39Z"/><path class="cls-1" d="M189.88,174.45l4.44,10.73-.92.4c-1.57-3.07-3.13-6.14-4.92-9.63l-1.23,15.22-1.06-.06.77-14.24-2.08-.24C179.55,185.08,181,195,179,204.15l14.44,2.7a24.19,24.19,0,0,0,1.43-4.57c.6-5.15,2.63-8.66,7.94-10.7,4.86-1.86,5.48-6.14,2.8-10.75-2.53-4.38-6.67-5.33-11.95-4.8l3.08,1.17-.81,1Z"/><path class="cls-1" d="M185.66,162.71c7.89-1.84,10.16-8.47,13.61-13.88a4.88,4.88,0,0,0,0-3.77,100.07,100.07,0,0,0-4.75-10.37c-1.87-3.48-4.62-4.59-8.18-2.08-3.39,2.38-6.88,4.61-10.17,7.11-.87.66-1.86,2.31-1.6,3.13,2.19,6.94,4.65,13.79,7,20.66l.78-.29Q181.2,156,180,148.76l.85-.14c.78,3.73,1.56,7.46,2.5,11.92.46-1.94.74-3.1,1.24-5.15C185,158.33,185.31,160.27,185.66,162.71Z"/><path class="cls-1" d="M193.31,169.9c3,1.55,6,4.39,8.87,4.27a53.48,53.48,0,0,0,15.61-3.54c3.24-1.17,5.42-3.7,2.15-7.63-1.08-1.3-.87-3.75-1.1-5.68-.6-5.11-3.88-7.46-8.91-6.69-6.56,1-11.06,5-14.93,9.88-1.58,2-2.95,4.21-4.42,6.32l1.13.81,4.14-4.42c-.3,1.61-.45,2.47-.62,3.35l4,.56Z"/><path class="cls-1" d="M101.9,147.51l.41-1.14,7.76-1.68c-2.88-5.37-5.47-10.22-7.57-14.16-5.49,2.33-10,4.72-14.84,6.15-4.48,1.34-6.92,3.6-6.89,8.34s3,7.42,7.26,8c3.72.55,7.6.12,12.46.12L96,149.24l.29-.42,4.89,2.08.66-.92-4.19-4.65.53-.56Z"/><path class="cls-1" d="M74.63,197.94c1-3.7,2.47-5.27,6.33-2.95.82.49,3.46-.34,3.8-1.17a5.44,5.44,0,0,0-.72-4.37c-.87-1.31-2.64-2-3.88-3.08-2.38-2.11-4.32-2-6.23.66-2.55,3.49-5.36,6.79-7.87,10.3-3.25,4.54-3.68,13.59-.92,16.9,3.61,4.31,7.07,8.78,11,12.76,2.16,2.17,5.13,4.83,7.82,4.92,6.16.22,12.37-.95,18.54-1.73.49-.06.8-1.5,1.2-2.3-1.14,0-2.55-.54-3.37,0-8.72,5.14-17.52,2.85-22.74-6a20.65,20.65,0,0,0-3-3.89c-2.67-2.72-5.19-7.25-4.1-6.46C70.69,211.32,73.82,201.14,74.63,197.94Z"/><path class="cls-1" d="M100.21,220.36a2.5,2.5,0,0,0-.62,1.14c-.53,2.38,2.64,2.72,4.25,2.67a21.83,21.83,0,0,1,4.42.32l4.66.81A32.47,32.47,0,0,1,122.4,228a23.64,23.64,0,0,0,3.83,1.92,7.07,7.07,0,0,0,5.63-.65c.56-.33,1.13-.88,1-1.51s-.7-.88-1.23-1.11L121.3,222c-1.72-.76-3.43-1.61-5.18-2.29a4.06,4.06,0,0,1-2.6-2.93A27.15,27.15,0,0,1,113,213a5.51,5.51,0,0,0-1.5-3.47,3.42,3.42,0,0,0-5.51,1.32,9.12,9.12,0,0,0,0,4c.12,1.35-.06,2.91-1.16,3.7-.89.65-2.1.57-3.15.9A3.44,3.44,0,0,0,100.21,220.36Z"/><path class="cls-1" d="M98.17,213.5a15.56,15.56,0,0,0,2,1c1.44.6,4.2.22,2.69-2a4.93,4.93,0,0,0-1.93-1.46,22.59,22.59,0,0,1-5.71-3.88c-2.66-2.68-3.06-6.47-3.61-10a11.44,11.44,0,0,1,1.56-8.3c.63-.91,1.44-1.69,2-2.61,2.06-3.09-.5-5.55-3.55-5.82-.85,3.26-2.33,6.43-2.46,9.84s-1.75,5.22-3.9,7.15c-2.42,2.18-3.48,4.38-.92,6.75C88.41,207.85,93.49,210.75,98.17,213.5Z"/><path class="cls-1" d="M86.87,209.07c-3.12-3-7.55-5-6.05-10.76.27-1-2.71-2.62-3.35-2.12-.71,2.59-3,9.93-1.45,13.65,1.83,4.56,5.29,6.32,8.1,9.17,1.94,2,4.71,3.45,6.93,5.11,2,1.53,4.67,2.27,7,3.35l1.13-2C96.27,223.44,89.79,211.93,86.87,209.07Z"/><path class="cls-1" d="M214,101.11l-1.3-.42c-4.49,12.19-9,24.37-13.39,36.6-.32.89.35,2.2.7,3.27,1,3.13,2.11,6.23,3.13,9.24C210.63,134.73,209.19,117.22,214,101.11Z"/><path class="cls-1" d="M142.07,235.15l-1.4.21q4.22,45.83,8.44,91.64l1.3-.12C147.79,296.29,148.69,265.37,142.07,235.15Z"/><path class="cls-1" d="M197.2,133.09q6.24-16.31,12.49-32.63l-1.05-.62-19.29,27.61Z"/><path class="cls-1" d="M171.41,145.38c1-2.75,1.12-6,2.53-6.68,4.7-2.41,3.91-6.24,4.09-10-3.45,3.26-6.43,6.87-10.16,9.37s-8.23,3.92-12.59,5.9v8.52Z"/><path class="cls-1" d="M151.56,219.5,150,219c-.41.82-1.35,1.81-1.15,2.44,1.31,4.17-.61,6.91-3.38,9.71a6.34,6.34,0,0,0-1.34,4.79c1.5,9.67,3.28,19.29,5,28.93l.38.18Q150.49,242.28,151.56,219.5Z"/><path class="cls-1" d="M138.73,134.78l15.62,4.12c-.65-5.81-1.25-11.13-1.95-17.35C146.34,125.72,140.09,127.31,138.73,134.78Z"/><path class="cls-1" d="M128.3,151c8.6-.59,17.07-1.09,24.47,4.7V142.8c-8.14-1.58-14.56,9.79-23.15,1.71Z"/><path class="cls-1" d="M177.32,124.21c-10,2-17.16,7-21.39,16.93C166.31,138.74,172.66,132.6,177.32,124.21Z"/><path class="cls-1" d="M153.25,161.85c-3.66-8.89-13.42-11.5-26.59-7.26Z"/><path class="cls-1" d="M154.83,159.66l20.54-6.11L173,147.78C165.63,149.27,158.79,151,154.83,159.66Z"/><path class="cls-1" d="M168.4,226.24l1.27.56c2.37-9.22,9.88-16.82,7.63-27.6-.69-3.28.69-7,1.13-10.51l-1.09-.21Z"/><path class="cls-1" d="M216,54.32c-.72-3-1.4-5.72-2.08-8.49l-1.65-.22c-.84,2.5-2.82,5.29-2.27,7.44.84,3.3,3.31,6.24,5.37,9.13.26.36,2.66-.14,3.34-.89,1.13-1.25,1.68-3,2.69-5Z"/><path class="cls-1" d="M135.89,167c-1.35-3.43-3.14-6.44-6.38-8.28a6.33,6.33,0,0,0-2.21-.9c-1.63-.22-2.06.85-2.61,2.09-.37.83-1.27,2.66-.65,3.55.24.35,1.62.66,2,.91a8.3,8.3,0,0,1,1.92,1.62c2.26,2.57,3,6.83,4,10,.23.73.86,1.64,1.53,1.27a1.63,1.63,0,0,0,.57-.82,2.66,2.66,0,0,1,3.39-1.1c-.15-.08-.22-3.12-.28-3.49a22.48,22.48,0,0,0-1-3.88Q136.08,167.45,135.89,167Z"/><path class="cls-1" d="M134.75,236.55c.08-.68.17-1.37.26-2.05-8,1.64-15.18-7.29-23.22-2Z"/><path class="cls-1" d="M153.09,163.22l-14.88-3.05-.22.7,13.53,5.49C152,165.33,152.47,164.46,153.09,163.22Z"/><path class="cls-1" d="M128.71,198.82c-1.39,1-2.62,2-4,2.75-5.8,3.51-6.71,7.09-4.24,13.41,1.93,4.93,6.46,6.33,10.19,9,3.12,2.24,5.16,1.55,7.34-1.14,2-2.53,4.42-4.82,6.45-7.37a2.91,2.91,0,0,0,.21-2.73c-3.45-4.41-7-8.72-10.7-12.95-.58-.67-1.78-.81-2.69-1.19a8.56,8.56,0,0,0-.84,2.53c0,2.32.18,4.65.29,7l-.32.1C129.86,205.07,129.28,201.93,128.71,198.82Z"/><path class="cls-1" d="M131.49,191.64l8.72-4.09.36.74-7.78,4.46,12.65.42v.88L133.61,194l-.12,1.73c7.21,4.08,15.35,2.52,23,3.78.62-4.45,1.12-8.08,1.67-12.07a20.77,20.77,0,0,0-3.85-1c-4.28-.29-7.27-1.84-9.17-6.16-1.73-3.95-5.31-4.29-9-1.89-3.53,2.28-4.15,5.74-3.5,10.09l.84-2.6.84.64Z"/><path class="cls-1" d="M121.93,195.61c-1.83-6.46-7.42-8.08-12-10.72a4,4,0,0,0-3.12.17,83.45,83.45,0,0,0-8.4,4.35c-2.81,1.68-3.62,4-1.4,6.86,2.11,2.71,4.09,5.51,6.3,8.14.58.69,2,1.45,2.65,1.2,5.66-2.09,11.24-4.4,16.84-6.64l-.28-.64-11.88,2.5-.15-.7,9.77-2.54-4.31-.83Z"/><path class="cls-1" d="M127.58,189c1.17-2.55,3.4-5.14,3.19-7.51a44.26,44.26,0,0,0-3.55-12.79c-1.1-2.64-3.28-4.34-6.41-1.48-1,1-3.06.87-4.66,1.14-4.21.7-6,3.5-5.19,7.64,1.09,5.39,4.54,9,8.78,12,1.74,1.23,3.6,2.28,5.41,3.41l.63-1L122,187.15l2.8.37c.09-1,.18-2,.3-3.3C126,186.05,126.82,187.54,127.58,189Z"/><path class="cls-1" d="M147.4,200.81c2.49.1,5-.06,7.41.75a5.11,5.11,0,0,1,2,1.09,2.5,2.5,0,0,1,.8,2,3.83,3.83,0,0,1-.45,1.25l-3.65,7.37a2.55,2.55,0,0,1-.89,1.15,2.39,2.39,0,0,1-2.47-.52c-2.52-1.79-4.19-4.46-6.44-6.53a37.38,37.38,0,0,1-5.89-7.19c-.2-.31-.35-.64-.08-1a71.27,71.27,0,0,0,8.84,1.51Z"/><path class="cls-1" d="M27.29,245.71C13.25,220.09,3.12,193.23,1,163.77c-3.1-43.41,7.77-82.55,37.86-114.56,22.67-24.12,51.48-38.6,83.89-45.37C150.48-1.95,178.26.23,205.36,7c30,7.48,52.58,26.27,70.18,51.34,17.81,25.36,27.21,53.69,30.35,84.33,3,29-3.16,56.33-13,83.36-9,24.72-20.57,48.06-35.89,69.34-17.38,24.13-26.64,51-30.34,80.22-.71,5.58-2.22,11.08-3.47,16.59a24.9,24.9,0,0,1-10.51,15.75L210,409.79h-3.43C217,405.7,220.82,397,222.74,387c2.41-12.57,4.65-25.17,7.3-37.68A133.27,133.27,0,0,1,252,300a332.73,332.73,0,0,0,42.87-84.7c13.87-40.75,13.08-80.87-2.3-120.82C283.16,70.17,269.21,49,248.87,32.27a3.92,3.92,0,0,0-2.84-1c5.19,5.85,10.21,11.86,15.6,17.52,20.69,21.71,31.14,48.28,34.91,77.32,2.85,21.93-.73,43.64-6.2,65.14-8.85,34.8-20,68.54-37.84,100-8.44,14.84-15.68,30.39-23,45.85-7.23,15.29-10.18,31.57-9.75,48.49a40.15,40.15,0,0,1-1.36,9.35c-3.44-34.15,8.85-64.09,25.64-92.3,24.12-40.52,39.2-84.23,48.53-130.12,7.38-36.26,2.13-71-17.24-102.36-11.72-19-25.83-36.85-46-48.31C211.49,11.68,192,7.85,171.89,6.65c-21.4-1.27-42.57-.48-63.23,6.3C55.4,30.42,17.45,62.59,5.83,119.94c-4.23,20.89-1.44,41.79,1,62.66a125,125,0,0,0,17.89,51.81c5.58,9.07,11.65,17.84,17.3,26.87,16.14,25.78,25.35,53.57,25.17,84.33-.1,17.82,5.07,34.66,12,50.9.85,2,3.26,3.26,5.52,5.4-1.64-.28-3.57-.11-4.89-.92-5.81-3.59-8.21-9.68-9.51-15.81-2.2-10.37-3.74-20.9-5.13-31.42-2.93-22.08-5.27-44.2-16.1-64.41C42.19,276.48,28.14,247.26,27.29,245.71Z"/><path class="cls-1" d="M210,409.79l2.65-1.87c.65,1,1.73,1.86,1.89,2.9.68,4.22.65,8.59,1.68,12.71,1.4,5.59.26,10.39-2.47,15.25a8.72,8.72,0,0,0-.7,5.68c.91,4.19,2.26,8,.3,12.53-1,2.31.9,5.72.88,8.63,0,3.51-.76,7-1,10.51-.18,2.5-.52,5.13,0,7.52,1.19,5.22.48,9.51-3,13.93-2.42,3.07-3,7.5-4.85,11.11-6.48,12.65-17.27,20.23-30.23,25.18-5.56,2.12-11,4.88-16.68,6.28-4.28,1.05-9.64,1.88-13.37.22-13-5.78-25.42-12.69-38.07-19.17-.58-.3-1.44-.5-1.68-1-3.69-7.37-10.42-11.45-16.77-16-1.59-1.15-3.34-3.74-3.13-5.43,1-8.29-3-16.5-.11-24.83.57-1.6-.06-4.09-1-5.65-3.28-5.44-3.51-9.66-.29-19-7.75-6.58.54-11.4,1.71-17.2-5.27-6.4-7.59-13.75-4.92-22.2.62-2,1.57-3.6,3.52-.88-.19,3.83-.49,7.62-.57,11.43-.11,6.18,2.34,9,8.52,10,17.87,3,35.77,5.83,53.57,9.15,12.47,2.33,24.76,1.65,37.08-.6,2.72-.5,5.4-1.2,8.1-1.81.07,1,.13,2,.2,2.93-34.85,5.48-69.53,8.06-103.68-8.47,0,4.32.29,8-.08,11.62-.35,3.46,1.24,4.63,4.22,5.35,6.91,1.67,13.78,3.51,20.65,5.36,17,4.58,34,7.62,51.66,3.79,7.77-1.68,15.59-3.13,23.56-4.72-1.08,1.33-2,3.11-1.53,2.87.15.45.29.9.43,1.34-6.53,1.63-13.15,4.9-19.59,4.6-26.3-1.22-53.41,3.29-78.9-10-.42,4.64-1,9-1.15,13.46-.06,1.13.61,3,1.46,3.35,4.18,1.93,8.41,4.35,12.86,5A241,241,0,0,0,132,476.51a233,233,0,0,0,35.26-1.63c9.35-1.28,18.39-4.86,27.73-7.47-1.55.86-3,1.83-4.59,2.55-19.17,8.74-39.36,10.06-60,8.34-7.44-.62-14.88-1.06-22.32-1.58-.06.44,7.07,3.79,10.73,3.93,15.29.6,30.6.82,45.9,1.07,3.14,0,6.47.24,9.39-.67,6.6-2.05,13-4.76,18.82-7-4.66,4.44-10.84,8.13-18.1,8.49-15,.72-30,1.22-44.9.83-7.51-.2-15-2.22-22.4-4.07-5.67-1.43-11.07-3.9-17-6a87.07,87.07,0,0,1-2,8.56c-1.51,4.32,0,6.64,4.29,7.55,1.13.24,2.24.6,3.37.87,19.78,4.81,40,4.16,60.1,4.64a79.32,79.32,0,0,0,35.37-7.38c2.11-1,4.17-2.05,6.25-3.08-4.38,5.9-10.4,9.64-17.11,10.32-15.17,1.53-30.48,2.84-45.7,2.54-14.16-.28-28.28-2.78-42.89-4.35a70.45,70.45,0,0,1,0,7.22c-.37,4.08,1.87,6.15,5.22,7.45a98.92,98.92,0,0,0,29.39,7c12.11.78,24.2,2.28,36.27.1a110.82,110.82,0,0,1-56.76-1.24c-1.12,3.4-.13,5.37,3,6.9,11.32,5.53,22.46,11.45,33.83,16.88,3,1.44,6.93,2.91,9.92,2.21,6-1.42,12.33-3.43,17.46-6.81,10.8-7.12,21-15.18,31.23-23.12,1.84-1.42,2.71-4.11,4.43-6.87l-5.57.3c9.3-7.58,14.2-13.1,9.74-23.22l-4.6,3.16-.46-.56c1.18-1.36,2.37-2.72,3.67-4.23l-3.55-.79c7.1-3.94,8.13-7.23,5.78-17.29l-4.79,3.75L213,453.46l-.63-.37-4.56,4c4.06-6.3,4.06-6.3,2.11-14.87l-4.16.58c7.75-4.84,9.2-8.07,7.4-17.52l-6.44,3.62c7.13-7.4,7.79-9.55,4.59-16.82-26.25,5.79-52.9,7.29-79.64,7.4-13.94.06-28,.05-41.15-5.62-2.32-1-4.12-3.23-6.16-4.9,10.6,6.23,22.32,8.63,34.34,8.42,20.25-.36,40.5-1.36,60.73-2.51,8.4-.47,16.76-2,25.12-3.15C206.43,411.43,208.2,410.44,210,409.79Z"/><path class="cls-2" d="M118.32,240.19l-7.5,5.9-10.47-3.7-.12-.57,10.52,1.75,7.21-4.26Z"/><path class="cls-1" d="M95.42,49.61S21.89,88.92,27.33,199.84"/><path class="cls-1" d="M91.58,69.08s-48.4,41.17-54.3,114"/></g></g></svg>