<svg xmlns="http://www.w3.org/2000/svg" viewBox="0 0 102.82 296.86"><defs><style>.cls-1{fill:none;stroke:#fff;stroke-miterlimit:10;stroke-width: 1px;stroke-dasharray: 1200px;stroke-dashoffset: 1200;display:'none';opacity:0;animation: svgAnim 20s ease-in-out 200ms 4 both;}@keyframes svgAnim
{
	from {stroke-dashoffset:1200;}
	50% {stroke-dashoffset:0;}
	to {stroke-dashoffset:1200;}
}</style></defs><title>Asset 2</title><g id="Layer_2" data-name="Layer 2"><g id="Layer_1-2" data-name="Layer 1"><path class="cls-1 svgs" d="M50.65,0V101c6,8,8.33,4.64,14.16,9.82l-26,1.69,30.53,2.83L39.15,117.5l-5,3,38.28.46v2.79l-39,1.12L34.8,123l34.64,3.07,4.71,2.43-42,1.51-2,3.49s31-4,36-3,6,3,6,4-35,1-35,1-9,1-7,3,36.15.08,39.57.54-2.82,4.83-23.7,4.14-14.44,5.18-14.16,6.75-6.16,21.5-6.44,36.54S.86,213.07.5,243.28s23.85,50.64,47.25,52.93,53.69-22.7,54.54-46.71-21.06-43.65-23.1-60.83.6-31.88-15.21-32.74c-7.83-.43-6.08,30.68-5.46,45.62s4.08,39.13,7.85,43,8.6,2.62,9.85-4.68c.93-5.41-12.92-13.59-17.5-10s-13.29,10.9-13.49,19c-.14,6-.69,15.18,5.92,17.62,7.73,2.86,1.38-26.89-1.31-33.45s-18.69-5.55-21.69,1.45,3,16,7,11c0,0,7.67-10.08,6.29-29.06"/></g></g></svg>