<svg xmlns="http://www.w3.org/2000/svg" class="dri" viewBox="0 0 360.26 69.14" style="cursor:pointer"><defs><style>path,polyline,line{fill:none;stroke:#fff;stroke-miterlimit:10;stroke-dasharray:210px;transition:all 2s linear}svg.dri:hover path{stroke-dashoffset:110px;}</style></defs><title>Asset 14</title><g id="Layer_2" data-name="Layer 2"><g id="Layer_1-2" data-name="Layer 1"><path class="cls-1" d="M.5.57H22.84A19.09,19.09,0,0,1,41.92,19.66V49.2A19.17,19.17,0,0,1,22.75,68.37H.5Z"/><path class="cls-1" d="M16.2,6.45h6.24A13.31,13.31,0,0,1,35.75,19.77V49.1a13.4,13.4,0,0,1-13.4,13.4H6.56V21.28"/><path class="cls-1" d="M88.05,58.36l-15.71-24H82.88a9.62,9.62,0,0,0,9.62-9.62v-15A9.23,9.23,0,0,0,83.28.55l-15.5,0A14.12,14.12,0,0,0,53.63,14.65V68.37"/><path class="cls-1" d="M68.32,6.4l14.39-.08a3.48,3.48,0,0,1,3.5,3.48V25.44a2.62,2.62,0,0,1-2.62,2.62h-24V15.15A8.75,8.75,0,0,1,68.32,6.4Z"/><polyline class="cls-1" points="59.63 58.45 59.63 30.81 62.61 30.81 87.13 68.37"/><line class="cls-1" x1="102.92" y1="0.53" x2="102.83" y2="68.37"/><line class="cls-1" x1="109.07" y1="68.37" x2="109.07" y2="0.53"/><path class="cls-1" d="M122.75,13.37V.5h22a19.36,19.36,0,0,1,19.37,19.36v34a14.54,14.54,0,0,1-14.54,14.53h-15"/><path class="cls-1" d="M128.72,6.48V28.34H158V19.79a13.4,13.4,0,0,0-13.47-13.4Z"/><path class="cls-1" d="M128.57,33.23h29.28L158,53.78a8.71,8.71,0,0,1-8.72,8.72H128.72Z"/><path class="cls-1" d="M173,13.37V.5h22a19.36,19.36,0,0,1,19.37,19.36v34a14.54,14.54,0,0,1-14.54,14.53h-15"/><path class="cls-1" d="M179,6.48V28.34h29.28V19.79a13.4,13.4,0,0,0-13.47-13.4Z"/><path class="cls-1" d="M179.32,33.23H208.6l-.35,20.55a8.71,8.71,0,0,1-8.72,8.72H179Z"/><path class="cls-1" d="M223.25,13.37V.5h22a19.36,19.36,0,0,1,19.37,19.36v34a14.54,14.54,0,0,1-14.54,14.53h-15"/><path class="cls-1" d="M229.22,6.48V28.34H258.5V19.79A13.4,13.4,0,0,0,245,6.39Z"/><path class="cls-1" d="M229.22,33.23H258.5V53.78a8.71,8.71,0,0,1-8.72,8.72H229.22Z"/><path class="cls-1" d="M360.26.5H335a13.85,13.85,0,0,0-13.85,13.85V53.83A14.68,14.68,0,0,0,336,68.51l16-.14"/><path class="cls-1" d="M354.45,6.4H335.63a8.42,8.42,0,0,0-8.41,8.41V28.34h33"/><path class="cls-1" d="M348,33.23H327.22V53.78a8.72,8.72,0,0,0,8.72,8.72h24.32"/><path class="cls-1" d="M282.63,8.81V54.55a8,8,0,0,0,7.95,8h18.79"/><path class="cls-1" d="M276.5.5V53.81a14.83,14.83,0,0,0,14.83,14.83H315.6"/></g></g></svg>