<svg xmlns="http://www.w3.org/2000/svg" viewBox="0 0 222.3 286.98"><defs><style>path{fill:none;stroke-miterlimit:10;stroke:#000;stroke-width: 1px;stroke-dasharray: 550px;stoke-dashoffset: 550px;transition:all 2s ease-in}
.svgs {
	-webkit-animation: svgAnim 6s ease-in 1 both ;
	animation: svgAnim 6s ease-in 1 both ;
}
@-webkit-keyframes svgAnim
{
	0% {stroke-dashoffset:550px}
	100% {stroke-dashoffset:0}
}@keyframes svgAnim
{
	0% {stroke-dashoffset:550px}
	100% {stroke-dashoffset:0}
}</style></defs><title>Asset 3</title><g id="Layer_2" data-name="Layer 2"><g id="Layer_1-2" data-name="Layer 1"><path class="cls-1" d="M122.35,74.3c-.31-1.42-.9-3.17-2.71-3.07s-1.8,2.1-2.28,3.45a17.73,17.73,0,0,0,3.76,9.58c2.85-1.28,4.53,1.44,6.84,2,2,.5,4.35,1.35,5.33-.86,1.18-2.66-1.74-3.47-3.35-3.82C125.76,80.69,123.25,78.5,122.35,74.3Z"/><path class="cls-1" d="M140.72,74.87a2.69,2.69,0,0,0-2-3.45c-4.09-1.07-6-3.58-6.45-7.67-.11-1.1-.23-3-2.18-2.53a2.6,2.6,0,0,0-1.82,3.15c.5,2.54,1.22,5,1.84,7.55a5,5,0,0,0,1.14,1.59c-.67-.2-1.35-.36-2-.51-.78-1.72-1.5-3.47-2.38-5.14-.49-.94-.87-2.39-2.43-1.82-1.27.47-1.37,1.68-1.37,2.89,0,5,7.36,12,12.16,11.61,2.23-.19,3.48-1.17,2-3.56A10.18,10.18,0,0,0,135,75.1c.76.16,1.54.29,2.28.47C138.51,75.83,140.1,76.48,140.72,74.87Z"/><path class="cls-1" d="M28.4,75.44c1.55-.71,2.67-2.68,4.8-1.49,3.7,3.32,11.08,9.67,10.94,9.7l1.56,1.56a10.35,10.35,0,0,0,3.67,3.68c2.81,2.82,5.59,5.67,8.23,8.65,2.11,2.37,4.11,4.84,6.09,7.32l2.88,3.63c.51.64,2,3.24,2.73,3.42h0a49.64,49.64,0,0,1,4,5.3,45.58,45.58,0,0,0,4.07,6.32l5.07,7.38c.84,1.23,1.68,2.47,2.53,3.69.51.72,1.06,2.15,2,2.43a1.57,1.57,0,0,0,1.76-.66,1.28,1.28,0,0,0,.14-.37c.22-1-.65-2.45-1.62-3.73l-.07-.46.3-6.74c.94-6.93,1.89-13.86,2.88-21.16-3,.85-1.15,3.39-3,4.22C87.38,94,86.1,80,85.22,66a48.57,48.57,0,0,0,5.32-2.61c1.66-1.07,3.79-2.75,2.62-4.75-1.43-2.44-3.42-.1-5.07.59a14.21,14.21,0,0,0-2,1.42c-.63.41-1.4,1.25-1.94,0a2,2,0,0,1,.35-1.78A19.44,19.44,0,0,1,87.36,57h0a34.31,34.31,0,0,0,3.36-1.87c1.41-1,2.48-2.49,1.5-4.17-1.09-1.9-2.57.13-3.9,0a13.89,13.89,0,0,0-2.87,1,7.15,7.15,0,0,0,1.83-1.91c1-.81,2.14-1.56,3.11-2.46a2.26,2.26,0,0,0,.35-3.14,1.72,1.72,0,0,0-2.64-.17c-4,3.36-8.32,4.37-13.28,2.37a1.9,1.9,0,0,0-2.57.81c-.57,1.34.32,2.3,1.32,2.88,2,1.18,4.35,1.43,6.64,1.73a5.67,5.67,0,0,0,3.76.56,14.58,14.58,0,0,1-3.75,1.28,29.05,29.05,0,0,0-3.38-.8c-1.5-.18-3.56-1.36-4.14,1.07-.48,2,1.22,3,2.87,3.44,2.24.57,4.55.83,6.83,1.22.77,1.75,1.51,3.38-1.72,2.53-2.29-.6-4.58-2.32-7-.42.37,2.06,1,4,2.92,5.15s4,1.46,6.07.27A7,7,0,0,0,82,70.66c1.7,17.64,1.86,35.32,1.65,53a27,27,0,0,0,.34,4.59c-2.77-3.57-5.58-7.11-8.24-10.75-1.28-1.75-1.33-3.52-1.87-5.56a19.79,19.79,0,0,0-1.18-3.17c-.32-.69-1.48-2.11-1.48-2.82-.17.19-.34.39-.52.58v-.12A2.52,2.52,0,0,1,72,104.36h0a12.49,12.49,0,0,0,8.43-6.74c.84-1.76.68-2.91-1.72-2a37.18,37.18,0,0,1-6.11,6.91h-.44l-.18-.49a14.74,14.74,0,0,1-.62-1.68c-.29-1.67.37-3.34,0-5-.34-1.2-4-3.15-5-3.46-.13.47-.25.94-.38,1.4-2.09.33-3.65-3.23-6-.83,1.61,2.46,4.12,3.12,6.64,3.79a5.92,5.92,0,0,1,.51,1.52c1,3.12,2.56,10.05,2.58,10.26C69,107,68.09,106,67.38,105c-1.88-2.83-4.61-4.94-6.54-7.72a13.76,13.76,0,0,0-3-3.57C56.18,92.33,54.42,91.4,52.8,90l-2-1.75a14.24,14.24,0,0,0-3.94-3.47c-.5-.43-8-9.34-12.55-10.83h0c-2.51-1.87-1-4.44-1.18-6.72-.14-1.69-.43-3.77-2.38-3.75S29.22,65.54,29.22,67c0,1.1.24,2.26-.89,3,0,1.45-1.22,1.83-2.16,2.38-1.55.91-3,2.13-1.65,3.84C25.71,77.67,27.17,76,28.4,75.44Z"/><path class="cls-1" d="M28.24,70a.71.71,0,0,0,.09-.07v0Z"/><path class="cls-1" d="M94.23,178.9c.11-2.4,2.38-5.06-.81-7.08a1.75,1.75,0,0,0-2.21.12c-1.37,2.29-2.67,4.6-2.94,7.32-.13,1.35-.29,2.86,1.12,3.54,1.21.59,2.13-.36,3-1.25A18,18,0,0,1,94.24,180c4.48.45,5.43-3.77,7.9-6,1.68-.72,5.45-2.82,7-1.52,2.57,2.14,5.4,4.41,10.38,3"/><path class="cls-1" d="M135.88,57.78a2.11,2.11,0,0,0-1.63,2.08c.07,5.58,1.78,8.75,6.56,9.55,1.21.2,2.61,1.35,3.35-.49.66-1.64-.68-2.52-1.9-2.93-2.78-.94-4.6-2.31-4.25-5.64C138.14,59.1,137.69,57.42,135.88,57.78Z"/><path class="cls-1" d="M144.62,57.86c-.25-1.46-.45-2.93-.78-4.37A1.72,1.72,0,0,0,142.08,52c-1,0-1.38.8-1.65,1.6-1,2.73-.1,5.86.76,7.89.74,1.73,4.77,2.24,7.45,2.9,1,.25,1.48-1.08,1.37-2.19C149.57,59.09,146.19,59.59,144.62,57.86Z"/><path class="cls-1" d="M82,32.73c-1.9,3-1.95,0-2.71-.59-.29,1.25-.53,2.42-2.42,2-1.69-.39-4-.92-4.27,1.54-.2,2,2.33,1.73,3.66,2.45a12.34,12.34,0,0,0,5.4.2,13,13,0,0,1-2.43,2.52c-1.77-.26-3.54-.63-5.32-.73a1.87,1.87,0,0,0-2,1.77c0,.57.23,1.54.62,1.71,2.9,1.26,6.14,2.35,9,.9,3.33-1.69,7.84-3,6.71-8.43a4.66,4.66,0,0,0-3.48-.31,20.86,20.86,0,0,0,1.45-2.92C84.91,27.62,82.87,31.31,82,32.73Z"/><path class="cls-1" d="M79.19,32.1l.06,0,0-.12Z"/><path class="cls-1" d="M79.28,32l-.1-.07s0,.1,0,.15Z"/><path class="cls-1" d="M76.17,26.74c-.48,0-1,0-1.45,0-1.56,0-3.66-.7-3.81,1.67-.12,2,2.07,1.71,3.35,2.09,1.64.48,3.52.18,4.92,1.45-.17-2.62,2.59-3.08,3.67-4.79s2.94-3.66-.45-5.08C79.64,22.72,78.58,25.63,76.17,26.74Z"/><path class="cls-1" d="M73.47,20.91c-1.3,0-2.94-.36-3,1.49s1.84,1.48,2.94,2a21.5,21.5,0,0,0,2.81.76c3,.1,4.06-2,4.89-4.36.08-1.23,1-2.78-.69-3.48-1.45-.6-1.76,1.08-2.53,1.81A6,6,0,0,1,73.47,20.91Z"/><path class="cls-1" d="M152.58,46.1c-2.48.13-2.24,3.17-2.4,5.27-.06.82,0,1.65-.06,2.48l0,0,0,0c-.68-.06-1.37-.17-1.26-1.07.17-1.3.77-3-1.27-3.05-1.69-.06-1.72,1.69-2.08,2.94-.49,1.72.81,3.68-.72,5.25,2.65,1.29,5.1,3.47,8.4,1.95.48-2.12-.93-3-2.52-3.54s-.57-1.43-.31-2.22h0c.26.18.5.48.79.54,2.1.5,4.45,3.07,6.11,1.42,2.19-2.18-2.66-2.44-2.28-4.64a2,2,0,0,1,.17-.4,3.8,3.8,0,0,1-1.15-.66C152.85,49.12,155.55,46,152.58,46.1Z"/><path class="cls-1" d="M155.15,51l.12.06-.1-.1A.08.08,0,0,1,155.15,51Z"/><path class="cls-1" d="M28.18,69.92c.27-2-.53-4.51-1.39-6.64-.43-1.08-.94-2.39-2.42-1.86S23.69,63,24,64a10.83,10.83,0,0,1,.24,2c-3.16-.61-1.38-3.54-2.42-5.14-.67-1-.7-3-2.39-2.65-1.94.37-1.16,1.91-.7,3.11.57,1.5-.43,1.6-1.46,1.69-.15-2.65.83-6.57-2.66-6.88-3.22-.29,1.15,3.67-1.33,4.83-.11.6,0,1.4-.4,1.72-1.19,1.08-3,2.15-2,3.85,1.25,2,2.78-.77,4.3-.37-.12,2.65.77,4,3.48,2.4,1.73-1,3.29-2.33,5.48-1.38-.57.54-1.12,1.12-1.73,1.61-1,.79-2.71,1.44-1.81,2.92,1.09,1.82,2.49.29,3.76-.26S26.55,71,28.18,69.92Z"/><path class="cls-1" d="M28.33,70l-.15,0a.67.67,0,0,1,.06.12Z"/><path class="cls-1" d="M76.12,12.21c-1,1.45-1.75,3.26-3.74,3.6-1.37.23-3.59-.63-3.49,1.53.11,2.32,2.55,1.35,4.75,1.87,2.69-.41,4.42-2.59,5.33-5.57.28-.92.33-2.08-.87-2.53C77.13,10.74,76.57,11.59,76.12,12.21Z"/><path class="cls-1" d="M159.15,47.81v0l.06,0,.07-.07h-.14Z"/><path class="cls-1" d="M155.27,51.1a.41.41,0,0,0,0-.11h-.09Z"/><path class="cls-1" d="M157.63,43.16c-2.85.21-2.23,3.7-2.42,6a15.87,15.87,0,0,0,0,1.82c2.6-.34,4.52,4.26,6.75,1.77,1.68-1.88-3-2.5-2.85-4.91C157,46.73,160.83,42.92,157.63,43.16Z"/><path class="cls-1" d="M71.15,9.21c-1,1.56-3.12,0-3.82,1.75.12,4.35,3.75,3.64,5.45,2.63C74.86,12.35,77.62,10,76.53,7c-.71-2-2-.68-2.36.87h0S72.65,10,71.81,7.69A36.68,36.68,0,0,0,68.7,1.57C68.25.81,67.28,0,66.28.92a1.68,1.68,0,0,0,0,2.27C67.84,5.24,69.52,7.23,71.15,9.21Z"/><path class="cls-1" d="M126.74,31.66a1.55,1.55,0,0,0,.81.33c7-.63,2.07,3.93,2.64,6.09,3.11-1.59,3.12-5.52,1.63-6.52-3.7-2.51-5.75-7.74-11.25-7.44,0,.32,0,.76.14,1C122.74,27.24,128.25,26.2,126.74,31.66Z"/><path class="cls-1" d="M13.12,60.85l.07.08h0l.06,0a.09.09,0,0,0,0,0Z"/><path class="cls-1" d="M5.62,56.86a1.64,1.64,0,0,0-2,1.09c-.32,1.13.71,1.48,1.38,1.66a23.69,23.69,0,0,0,8.1,1.24A11.5,11.5,0,0,0,5.62,56.86Z"/><path class="cls-1" d="M2.93,129.29c-1.69.29-2.15,2.78-2.4,4.57-.2,1.39.79,2.15,2.14,2.15,2,0,2.44-1.35,2.48-3.11C4.27,131.77,5.19,128.91,2.93,129.29Z"/><path class="cls-1" d="M172.7,87.47a1.59,1.59,0,0,0,2.56-.13c1.55-2.21.72-4.19-1.1-6.7C172.69,83.3,170.78,85.11,172.7,87.47Z"/><path class="cls-1" d="M165.44,43.28a20,20,0,0,0-6.15,4.54c2.66.22,5-1.14,7.38-1.85,1-.31,2.52-.73,1.81-2.25C167.87,42.42,166.5,42.83,165.44,43.28Z"/><path class="cls-1" d="M39.17,27.81c2-2.13.91-4.07-1-6.84-1,2.82-3.2,4.47-1.17,6.86A1.49,1.49,0,0,0,39.17,27.81Z"/><path class="cls-1" d="M143.81,155.5a1.56,1.56,0,0,0,2.54.07c1.7-2.17.79-4.23-1.23-7.14C144.39,151.47,142,153,143.81,155.5Z"/><path class="cls-1" d="M37.6,174a1.44,1.44,0,0,0,2.2.16c2.35-2.06,1.09-4.07-.63-6.83C37.66,169.8,36.05,171.54,37.6,174Z"/><path class="cls-1" d="M69.4,158c3.33-1,5.09-4.85,8.9-5,.07,0,.12-.16.15-.47a1.09,1.09,0,0,0-.34-.86c-1.31-1.29-4.23,0-4.57-2.22s2-3.18,3.51-4.43c1-.84,2.09-1.6,3.13-2.43,1.44-1.15,2.68-2.34,2.62-4.47,0-.15,0-.3,0-.45a2.72,2.72,0,0,0,.6.75,1.38,1.38,0,0,0,1.72.13c.62-.54.34-1.54,0-2.29-.13-.29-.26-.59-.4-.88-2.81-5.86-6.84-10.62-11.37-15.2s-9.31-9.2-15-12c-2-1-3.32-3.59-6-3.06v-.12a2.08,2.08,0,0,0-.83-2.63,3.38,3.38,0,0,0,.46-.68,5,5,0,0,0-.21-4.47,2.07,2.07,0,0,0-2-.65c-1.12,1-2.22,2-3.76.7l-1.8-2.22c1.57-2.16,1.5-4.12-1.17-5.13-1.86-.7-3.31.42-3.72,2.28-.68,3.16,1.08,4.17,3.94,4,.64,1.1,1.35,2.17,1.9,3.31,1.41,2.93-1.06,1-1.75,1.38h0c-3.68-2.37-7.83-3.24-12.07-3.87-.55-2.41-1.62-4.12-4.48-3-2,.79-2.23,2.54-1.54,4.16,1.09,2.52,3,2.15,4.93.87a24.27,24.27,0,0,1,9.59,1.93h0a5.76,5.76,0,0,0-3.66,1h0a8.11,8.11,0,0,1-4.76-.62c-1.87-.74-3.17.69-3.7,2.33a3.08,3.08,0,0,0,1.56,3.79c1.59.91,3.43.41,3.76-1,.85-3.7,3.86-2.79,6.16-3.45,2.72.2,5.54-.4,8.11,1l4.86,2.49h0c.19.57,1.31,1.32-.37,1.5-3.84.42-7.62,1.51-11.54,1.13-2.8,0-3.28,1.86-2.94,4a2.6,2.6,0,0,0,2.93,2.14c2.76,0,3.06-2,3.13-4.12a18.74,18.74,0,0,1,16.28,1.08c4.5,2.58,8.09,6.48,11.73,10.1l1.57,1.52a9.08,9.08,0,0,0-2-.71,5.77,5.77,0,0,0-4.59.75,31.75,31.75,0,0,0-.6,6.53,18.78,18.78,0,0,0,.48,3.42c.08.32,1.13,3.08,1.06,3.15q.39,5.92.77,11.87c-1.5,6,.09,12.28-1.69,18.25h0a25.8,25.8,0,0,0-2.29,8.61c-1.56,8.09-.62,24.59-.73,24.37l-.27,4.66a17.34,17.34,0,0,0,0,10.57h0c.05,1.23.1,2.47.14,3.7l8,38c1,10,1.36,20,1.68,30"/><path class="cls-1" d="M144,120.05c.09-1.7-1.48-2-2.8-2.08a42.23,42.23,0,0,0-7.2.52c-.43-1.33,2.15-1.78.81-3.71-.83-1.21-1.69,0-2.53.18a22.5,22.5,0,0,1-3.08.26c-3.45.27-3.64,3.85-5.58,5.73-1.65-1,.7-2.67,0-3.51a2.38,2.38,0,0,1-1.67-.39c-1.32.27-1.82,1.91-2.44,3.1s-.78,2.56-2.49,2.77c-.85-1.78,1.66-4.31.3-5.43l-.91-.41c-2.35-.56-2.8,2.66-3.27,4.74-.53.31-.63,1.21-1,1.72.1,1.45.43,2.8,2.1,3.6,1.43,1.6,2.74,5.33,4.8,3.73,2.8-2.18-1-4-2.15-6-.1-.16.06-.48.1-.76,1.46-.38,2.07.78,3,1.45,1.24.94,2.31,3.49,3.87,2.26,2.06-1.64-1-3-1.3-4.58-.06-.26.19-.59.35-1,2.7.71,3.36,5.54,6.35,4.23,2.41-1-1.72-3.23-.9-5.44,3.08.78,3.37,4.88,6.6,4.87,1.68-2.57-.76-3.29-.88-5.31,0,0,4.62.42,7.23.74C142.29,121.45,143.88,121.66,144,120.05Z"/><path class="cls-1" d="M57.58,84.44c.48,1,.89,1.94,1.44,2.84,1.62,2.67,6.38.24,10.15,0-1.27,1.13-3,1.08-4,2.33.41,1.19,1.51,1.78,2.32,2.63.52-.75-.9-2.38.76-2.42,1.85,0,3.06-1.36,4.72-1.8,2.53-.67,1.74-8.52,1.74-9.14s-1.29-1.5-2-2.38c-1.43-1.85-3.19-1.41-4.91-.62a1.62,1.62,0,0,1-1.76-.05c-3.06-1.67-6.35-.63-6.32,2.33a4.8,4.8,0,0,1-2.33,4.41c0,.63-.4,1.3.15,1.89Zm11.2-6.93c.63-.72,1.48-.49,2.26-.13,1.54.7,1.47,2.14,1.63,3.48.12.39.53,1.21.54,1.4.76,1.48.62,3-.78,3.8s-1.82-1-2.68-1.67c-.45-.33,0-1.07.19-1.17a2,2,0,0,0,.45-.64c.45-1.37-.54-1.93-1.38-2.65A1.6,1.6,0,0,1,68.78,77.51Zm-5.47-.67c.66-.24,2.45,2.54,2.8,4-.48,0-1.46.13-1.48.11s-2.87.45-3.22-1.23S62,77.32,63.31,76.84Zm-1.5,6.54a7.91,7.91,0,0,0,3.46.85c-1,.65-1.59,1.66-2.58,2.23-.59.34-1.4.91-1.66-.32C60.68,84.42,60.38,82.58,61.81,83.38Z"/><path class="cls-1" d="M109.2,46.9h0a.31.31,0,0,0,.07.09Z"/><path class="cls-1" d="M92.41,70.45c-1-.94-1.67-2.88-3.43-2.39-2,.56-1.86,2.49-1.86,4.15A14.14,14.14,0,0,0,93,84.07h0c.26,2.33-2.08,4.32-.9,6.78-1.72,3.79-2.14,7.81-3.06,12.6,3.32-2,1.51-6.23,5.19-6.56h0c4.34,1,7.79-.06,9.76-4.33,1-2.23.77-3.33-2.21-3-2.62.34-4.54,2.82-7.39,2.11a3.78,3.78,0,0,1,0-.75h0A23.15,23.15,0,0,1,104.05,83a7.4,7.4,0,0,0,4.75-7c0-1.87.47-4.65-1.31-5.5-2-.93-3.14,1.69-4.48,2.93a14,14,0,0,0-4.62,8c-.46,2.85-2.08,4.7-4.14,6.38h0a27,27,0,0,1,.76-6q5.52-14,11-28.06h0c2.1-3.22,5.77,0,8.16-2,4.43,1.33,8.81,2.93,13.31,3.91a8.57,8.57,0,0,0,9.24-4.58c1.54-2.87-.37-6.16-3.3-8.18-.93,1.49-.38,3-.21,4.59.39,1.48.47,2.89-1,3.93-3.05,2.42-6.39.38-9.6.58a1.31,1.31,0,0,0-.47-1.1c-2.68-1.33-5.34.32-8,.07h0c-2.81,0-4.25-1.65-5-4.16C108.49,46,106,36.32,104,32.36c-.28-.56-.78-1.06-1.06-1.61.27.37,6.14,16,6.23,16.15l16.55-3c.07-.11.21-.24.2-.34a4.29,4.29,0,0,0-.2-.7c-1.28-.34-3.16,1.42-3.84-.63-1-3.14-3-1.31-4.63-1.17-1.18-.53-1.23-2.44-2.9-2.37h0c-.53-1-.91-.78-1.21.14-3-3.93.23-7.75.21-11.63h0c1.73-.52,3.62-.7,4.83-2.3-2.59.08-4.68-.46-4.63-3.7h0c1.58-.86,3.7-1.94,2.09-3.89-1.33-1.63-3.08.16-4.14,1.21a25.16,25.16,0,0,0-5.62,7.92c-.43,1-.83,2.63-2.66,1.73-2.3-1.86-3.34-1.38-2.67,1.57,1.16,5.09,2.46,10.15,3.71,15.22h0c-1.33,2.79,1.23,5.16.85,7.85h0c-4.45,7.2-6.6,15.35-9.54,23.3-.53-.89-.94-1.58-1.36-2.27A5.19,5.19,0,0,0,92.41,70.45Zm14.37-40.12c2-2.29,3-5.25,4.7-7.71a7.24,7.24,0,0,0,.8,3.52c-3,2.07-2.56,5.41-2.86,8.36-1-1-1.33-3-2.73-4.09Z"/><path class="cls-1" d="M118.36,142.89a35,35,0,0,0-1.45-5.12c-1.2-2.73-2.52-5.42-3.84-8.1-.53-1.06-1.18-2-1.75-3-.38-.68-1.38-2.29-1.4-2.43A24.83,24.83,0,0,0,108,121.9a9.12,9.12,0,0,1-1.7-1.7c-.7-1.15-1.39-2.31-2.09-3.47a5.3,5.3,0,0,1-.4-3.73c1-2,1.93-4,3-5.92A45.17,45.17,0,0,1,114.73,96a32.38,32.38,0,0,0,3.71-5.87,6.33,6.33,0,0,0,5.12,3A12.13,12.13,0,0,0,128.23,92c1.94-3.26-1.37-3.2-2.78-4.17-1.6-1.11-4.37-.17-5.13-2.86-1-3.13-1.7-6.43-5.16-8-5.44,4.24-.65,7.45,1.09,11-2.54,4.25-5.23,8.41-8.13,12.43-1.46,2-3,4-4.53,5.89a32.15,32.15,0,0,0-2.45,2.78c-1.19-1.69-2.33-3.43-3.61-5.06a2.69,2.69,0,0,0-3.41-1.06c-1.47.66-.67,1.94-.78,3a27.58,27.58,0,0,1-.81,3.78,20,20,0,0,0-.22,3.94,21.86,21.86,0,0,0,1.59,6.83,39.29,39.29,0,0,0,7.29,12.13h0a3.6,3.6,0,0,0-2.9,1.66,3.07,3.07,0,0,1-3.11.61,23.1,23.1,0,0,0-11.09,4.89c-.76.66-2.45,1.13-1.16,2.57,2.87,3.19.73,4.92-1.74,6.62-.53.58-1.51,1.18-1.48,1.71.07,1.17,1.08.58,1.81.52,1.57-.14,3.14-.19,4.71-.27l.67.05c2.43-.26,4.24-2.43,6.68-2.66a12.28,12.28,0,0,0-2.28,2.33,29.56,29.56,0,0,0-7,10.18l-.18.05A4,4,0,0,0,82.36,162c.14,2.82-2.34,4.6-2.84,7.15-.61,3.11-.24,5.39,3.86,4.12h0c.31-.32,1.91-.3,2.39-.36.86-.12,1.73-.22,2.58-.41A7.62,7.62,0,0,0,92.82,170c1.21-1.48,1.73-3.3,3-4.76s3-2.8,4.41-4.28c3.2-1.91,6.29-4.05,10-5.07,6.4-.31,7.62,5.73,11.07,9.05.07.05,1.17,1.7,1.38,2.05a17.12,17.12,0,0,0,1.35,1.93,17,17,0,0,0,1,1.54c.53.52,1.29.53,1.25-.4a9.11,9.11,0,0,0-1.1-3.46A143.33,143.33,0,0,1,118.36,142.89Z"/><path class="cls-1" d="M130.65,178.27c2.7,16-22.11,38.45-23.7,49.94s-.29,34.74-1.76,38.33"/><path class="cls-1" d="M92.49,189.71a23.79,23.79,0,0,1-10.94,19.95"/><path class="cls-1" d="M81,222.86c5.24,6.31,17.08,6.21,20.48,4.66"/><path class="cls-1" d="M100.93,176.29s5.64.47,5.78,12.5"/><path class="cls-1" d="M76.65,173s-6.42,5.07-6.65,9.52"/><path class="cls-1" d="M82.05,163.89c10.45-9.51,4.9,8.66,3.72,9"/></g></g></svg>