<svg xmlns="http://www.w3.org/2000/svg" viewBox="0 0 328.98 69.18" class="lin" style="cursor:pointer"><defs><style>path,polyline,line{fill:none;stroke:#fff;stroke-miterlimit:10;stroke-dasharray:210px;transition:all 2s linear}svg.lin:hover path,polyline,line{stroke-dashoffset:110px;}</style></defs><title>Asset 23</title><g id="Layer_2" data-name="Layer 2"><g id="Layer_1-2" data-name="Layer 1"><line class="cls-1" x1="45.98" y1="0.54" x2="45.98" y2="68.68"/><line class="cls-1" x1="52.03" y1="0.54" x2="52.03" y2="68.68"/><path class="cls-1" d="M69.05,68.41v-62S70.51.54,76.38.54s7.13,5.9,7.13,5.9l17,41.18V11.17"/><path class="cls-1" d="M106.43.54v62a3.67,3.67,0,0,1-3.12,2.24c-2.21,0-3.63-2.24-3.63-2.24L77.43,7.19a1.22,1.22,0,0,0-1.05-.75,1.4,1.4,0,0,0-1.13.75V56.5"/><line class="cls-1" x1="123.16" y1="0.56" x2="123.16" y2="68.68"/><polyline class="cls-1" points="129.47 0.56 129.47 26.92 155.83 0.56"/><polyline class="cls-2" points="129.47 60.5 129.47 30.98 156.51 68.61"/><polyline class="cls-1" points="158.09 7.09 135.67 29.29 163.83 68.61"/><path class="cls-1" d="M206.16.54H180.89A13.85,13.85,0,0,0,167,14.39V53.87a14.68,14.68,0,0,0,14.81,14.68l16-.14"/><path class="cls-1" d="M200.35,6.44H181.54a8.42,8.42,0,0,0-8.42,8.41V28.38h33"/><path class="cls-1" d="M193.85,34.43H173.12V53.82a8.72,8.72,0,0,0,8.72,8.72h24.32"/><path class="cls-1" d="M214.47.54H236.8a19.08,19.08,0,0,1,19.09,19.08V49.16a19.17,19.17,0,0,1-19.17,19.17H214.47Z"/><path class="cls-1" d="M230.17,6.42h6.23a13.31,13.31,0,0,1,13.32,13.31V49.07a13.39,13.39,0,0,1-13.4,13.39H220.53V21.24"/><line class="cls-1" x1="268.18" y1="68.55" x2="268.18" y2="0.56"/><line class="cls-1" x1="273.95" y1="0.56" x2="273.95" y2="68.68"/><path class="cls-1" d="M291.1,68.37V6.4S292.55.5,298.42.5s7.13,5.9,7.13,5.9l17,41.18V11.13"/><path class="cls-1" d="M328.48.5v62a3.67,3.67,0,0,1-3.13,2.24c-2.21,0-3.62-2.24-3.62-2.24L299.48,7.16a1.24,1.24,0,0,0-1.06-.76,1.42,1.42,0,0,0-1.13.76v49.3"/><path class="cls-1" d="M6.63,8.85V54.58a8,8,0,0,0,8,8H33.37"/><path class="cls-1" d="M.5.54v53.3A14.83,14.83,0,0,0,15.33,68.68H39.6"/></g></g></svg>