<svg xmlns="http://www.w3.org/2000/svg" viewBox="0 0 444.83 440.48"><defs><style>.cls-1{fill:none;stroke-miterlimit:10;stroke:#fff;stroke-width: 1px;stroke-dasharray: 3050px;stroke-dashoffset: 3050px;display:'none';-webkit-animation: svgAnim 20s ease-in-out 45s 1 both ;animation: svgAnim 20s ease-in-out 45s 1 both ;}@-webkit-keyframes svgAnim
{
	0% {stroke-dashoffset:3050px;}
	50% {stroke-dashoffset:0;}
	100% {stroke-dashoffset:3050px;}
}@keyframes svgAnim
{
	0% {stroke-dashoffset:3050px;}
	50% {stroke-dashoffset:0;}
	100% {stroke-dashoffset:3050px;}
}</style></defs><title>Asset 9</title><g id="Layer_2" data-name="Layer 2"><g id="Layer_1-2" data-name="Layer 1"><path class="cls-1" d="M47.38,160.44c-3,16.74-13.6,76.07,19.61,88.21,12.38,10.74,54.09-5.69,72.38,1,19.57,7.68,37.56-49.12,49.69-51.62,9.08-1.08,45,77.45,56.82,72.8,13.53-3.06,15.13-26.35,39.46-30,15-4.09,27.22-8.28,43.35-13.64,19.42-6.82,52,7.21,77.12,1.61,7.9-9.81-109.24-35.81-96.53-53.65-10.46-17.5,8.23-45.56,8.28-46-7.6-1-42.44,8.35-61-3.23-10.59-8.47,17.8-60.39.31-68.34-14.3-10.56-34.37,38.36-42.6,38.07-12.94,0,7.08-19-18.2-8.23C183.89,99.75,98.41,88.69,108,98.24c-1.67,10.78,53,10.11,86.05,17.82,15.67,8-30.21,44.12-3.52,54.05,2.92,8.91-3.06-1.33-.54,12.22-9.42,8.79,8.3,31.87-19.47,40-14,8.42-45.1-.84-41.33,0-15.92,2.25-47.53,3.8-37.25-12.78-7.71-13.83-14.44-29.67-1.75-46.35C93.85,150,65.91,124.61,72.1,112.86c4.71-12.8,9.87-42,19.82-52.32,8.62-8.52,68.73,18.09,63.35,11.64,14.65-5,5.37-47.42,23.14-50.92,14-5.2,8.22-18.33,43.09-20.71,11.39-1.67,35.34,42.1,44.47,44.92,14.47,2.45,14.8,24.3,13.57,40.42,7.56,13.77-11.11,22.65,16.45,39,5.53,22.48,42.3,39.08,32.36,44.7-1.6,3.75-26.18-44.83-50.7-43-12.59,1.17-13.48,21-39.35,22-14,.72-35.4,71.64-39.6,71.36-15.19.49-39.46-7.18-43.08-5.69-25,.5-4.58-67.24-43.35-65.93"/><path class="cls-1" d="M207.37,201.47c25.52-4.09,10,14.35,56.32,7.67,16.19-3.52,25.24-43.88,43.51-48.32,21.53-6.55-3.07-57.11,3.83-66.15,6.73-8.34,53.05-17.86,24.65-28.77-12.2-5.93-47,4.91-52.81.38C268,61.57,247.71,58.39,237.05,55,217.46,51.32,159.49,12,171,15.7c-12,4.38-4.91,108.47,1.34,119-14.15,9-55.74-15.25-57.18-2.06-12.62,13.34,14.22,25.15,7.48,41.18"/><path class="cls-1" d="M360.71,238.69c10.53-8.76,27.43-38.86,47.67-53.32,1.61-12.7-39.74-38.9-43.42-51.54-5.24-11.61-57.58,22.38-68.33,12.14-9.7-7.86,25.65-83.78,4.6-88.45-18.12-5.39-54,9.53-60.88,8.91-19.57-1.17-44.75,2-56.75,4.88C162.34,76.51,85,67,97.2,78.84c-8.33,11.86,51.57,78.28,69.17,91-6.93,16-60-6-32,2.65,9.36,4.08,31-20.4,42.84-16.49,12.46,3,21.41,57.91,28.77,59.43,13.76,1.37,22.08-56.24,36.22-57.95,14.54-1.58,31.63,20.09,28.55,12.55,15.15-9.52,61-16.88,66.38-28.87-5.1-9.77-80.36,20.29-77.05,12.83-12.27-6.25-44.81-57.43-32.63-56.66-15.31,2.15-50.17,20.21-50,26.5-19.84,6.63-11.12,31.65-30.38,45.26-5.71,22.56-5.11,43.42,36.34,41.92,13.38-.45,6.71-14.94,36.4-21,11.29-6.25,16.89-14.7,29.77-26.16,5.27-12.49-21.06,5-42.87,8.51-18.7,1.78-10,3.11-17,12.66-14.76,21.59-6.38,23.61,7.07,6.42,34.27-16-.73-16.88,6.93-31.4.19-9.92,9.66,26.22,13.64,30.61C208,193.12,191,155.51,172.1,163.69c-37.32,24,20.45,39,37.62,30.39"/><path class="cls-1" d="M147.11,44.44c-5.51,1.54-57.67.21-54.19,10.14C82.38,62,88.77,100.33,81.19,108.91c-14.75,12.24,31.15,40.06,31.14,44.23-.84,8.75-54.17,46.67-42.95,62.19,11.88,10.49,34.54,7.83,61.22,14.52,15.58,5.78,35.86,9.9,57.18,6.8,16.77-2.1,40.45,21.75,69.85,15.13,12.13-9.41-89.47-77.74-63-90.47,4.19-16.29,28.85-17.88,37.78-25.77-1-7.39-15.46,18.21-38.93,8.1-12.23-6.42,2.6-60.88-19.62-64.77-14.63-3.75-31.64,52.59-45.64,52.9-15.37.61-4.8-19-32-12.54-15.49,8.45-92.81-14-84.59-1.84-3.1,13.75,45.54,31.9,67.7,44.82,6.12,13.24-45.62,58.49-11.46,67.09,12.13,10.32,30.22,8.62,59.73,10,11.35.34,43.17-20,43.82-17.52,13.45,1.13,13.43,19.54,41.84,19.93,14.37.93,10.48-9.45,43.89-9.73,15.34.07,22.9,3.51,43.82,2,17.13-2.36,12.78-33.37,23.06-39.49"/><path class="cls-1" d="M255.29,233.7c12.35-5.71,38.87-31.19,65.25-49.89,9.13-20.94-28.69-75.2-37.45-81.68-7.78-4.88-40.55,52.12-60.23,47.83-14.92-2.35-15.49-85.21-37.79-86.32-18.79-.82-50.27,19.44-51.6,22.49-8.72,2.15-28,9.61-39.94,16.06-11.42,5.49-66-23-57.55-15.43C23.82,94,50.1,190.05,63.79,197.47c-14.18,11.39-51.6-20-41.45-10.28,0,10.1,23.73-14,34-3,9.48,7.26-2.83,57.94,4.34,64.17,11.75,5.23,39.69-46.05,54.56-42.79,12.9,3.34,30.31,25.56,30.26,25.91,17.34,1.52,33.63,72.49,62.31,66.72,17.18-4.73-3.29-71,27.53-80.9,16.45-9.41,39.82,19.38,74.48,7.18,11-10.92-3.69-39.54,16.27-48.86,5.47-14.11-3.93-29.25-35.38-36.46-10.67-5.74-34.52-25.4-36.57-28.45-13.53-2.16-49.5,8.59-44.4,8.78-14.87.57-38.34-1.92-42.92,2.17-19,3.74-11.31,31.29-30.82,37.68C124.09,162.26,119.8,175,107.51,180c-13.14,5.67-24-23.79-51.62-16.11-7.24,9.43,8.78-10.94,33.74-5.66,9.48,2.66-6.64-4.11,29.34-3.59,13.8,1.17,32.11,45.4,41,44.92,15-.64,44.73,19.67,48.49,16.9,16.31-3,13.49-12.52,48.45-17.38,14.57-7.65,20.58-40.11,23.2-47.34,14.17-10.14,73.94,5.52,77.59-6,5.75-12.37-.16-58-16.94-73.93-4.22-11.15-66.27,30.45-75.44,24.76-13.06-3.41-29.44-12.29-36.9-11.93-14.74-.78-13.3-68.22-46.14-66-15.7,1-36.41,53.86-39.75,57-17.27,3.26-9.67,26.36-29.21,32.8-14.78,7-39.59,3.17-36.34,13.06-12.57,12-69.67-4.12-64.35,8.92C2.75,148.54-.45,181.58.74,192.09c4.46,9.49,46.37-26.94,73.41-15.84,12.2,7.72,33,36.25,22.41,42.24,16.88,7,20.48,7,36.28,7.19,9.09,0,21.12,17.61,41.76,12.6,12.77-3.78,20-53.44,12.92-61.66,12.3-7.14.65,6.06,30.15-4.36,8.52-10.8-2.22-4.2,20.89-19.37,2.13-15.42,24-18.73,4.9-30.2-5.23-13.13-12.13-38.17-4.93-44.27-11.07-7.26-28-27.63-39.74-29.36-13.43-1.69-46.11,47.28-36.18,50.84"/><path class="cls-1" d="M108.34,90c-12.25,6-71.1,16.26-64.47,29.91-14,16.89,3.94,76.66,16.9,88.29,6,6.24,37.09-46.9,57.15-45.58,13.28,1.64,28.87,84.81,37.21,84.53,15,.15,22-20.37,45.08-21.11,19.2-1.56,36.24-4.91,47.23-9.32"/><path class="cls-1" d="M191.4,102.23c-15,2.83-56-9.93-51.69-6.58-15.32,4.29-23.92,44.14-34.69,50-15.73,6.61,6.19,66.39-3.44,73.33-14.61,11.6-78.1-6.14-81.76,7.27,2.39,10.38,39.32,22,71.53,25.25a257.53,257.53,0,0,0,49.48,2c15.58-.22,16.33,39,52.29,38.06,16.86-1.54-4-109.82,33.39-112.47,22.8-3.89,29.19,30.74,44.86,27.35,9.69-7.57-11.85-21.65-11.6-34,5-15.06,62.56-21,51.63-28.59-2.63-4.62-28.1,48.51-51.88,49.6-14.45.8-16.29-17.35-46.48-16.13-16.32,2-55.93-67.42-59.12-65.6-22.31,4.3-34.95,69.68-24.8,72.89-8.54,6.82-80.08-15.52-62.78-7.09-7,10.95-7.22,52,20.9,61.29,6.8,4.59,47.68-12.32,50.6-11.34,12.94-.06,15.36,16.15,43.46,14.06,14.43-1.5,8.47-14.61,40.69-17.36,18-3.33,27.38-3.71,42.94-7.18,12.48-6.17-8.57-32.66-4.17-46.91,3.43-17.71,8.53,1.26-2.35-4.45-7.37-4,12.23-46.79-31.75-51.95-16.53-2.82-45.45,34.33-54.86,33.62-22.26-1.39-44.31,4-31.13,8.14"/><path class="cls-1" d="M47.26,396.2q6,21.17,11.9,42.33L63,437.08q-6.1-21-12.22-41.93Z"/><path class="cls-1" d="M209.1,311h0l-.1.12Z"/><path class="cls-1" d="M296.06,370.26c10.46-8.7,17.29-36.94,12.28-46.37"/><path class="cls-1" d="M209.06,311c0-.05-.1.07-.1.07l0,.13C209,311.17,209,311.11,209.06,311Z"/><path class="cls-1" d="M307.5,289.5c-16.77-6.63-33.7-12.84-50.6-19.16-4.16-1.56-8.44-2.79-12.67-4.17-.29.7-.57,1.39-.85,2.09,1.77,1.19,3.41,2.74,5.35,3.52,14,5.57,27.93,11.14,42,16.4,15.68,5.85,32.62,10.29,40.65,26.89,4.87,10.08,9.22,21,10.83,32,3.73,25.45,5.63,51.17,8.38,76.76A101.88,101.88,0,0,0,352.73,434c2.18-1.41,2.81-2.36,2.72-3.25-2.92-29.61-4.61-59.43-9.31-88.76C342.41,318.76,331.21,298.88,307.5,289.5Z"/><path class="cls-1" d="M267,291.11c-9.31-4.33-18.53-8.87-28.75-13.78l-4.5,5-4.29-.37c12.72-11.07,10.11-21.46,4.24-29.95-4.79-.46-9.58-.81-14.38-1a1.61,1.61,0,0,1-.38,1.05q-17.9,15.55-36,30.82a6.53,6.53,0,0,1-3.36,1.77c-10.76.53-28.89-15.72-30.09-26.55a12.79,12.79,0,0,1,.07-3.85c-4.76,0-9.5-.05-14.24-.06,9.87,16.34,23.24,27.71,41.08,35.07-2.1-.87-5.64-.64-7.83-.21a8.3,8.3,0,0,0-5,2.78,13.1,13.1,0,0,0-2.47,6.44c-.5,3.21-.67,5.94-4.79,5.58a11.62,11.62,0,0,1-5.51-1.46,41.73,41.73,0,0,1-4-2.85,39.59,39.59,0,0,1-6.79-7,39.19,39.19,0,0,1-7.41-18,40.88,40.88,0,0,1-.14-10.13,43.28,43.28,0,0,1,.89-5.19c.12-.5,1.11-5,1.48-5-4.05,0-3.47.22-5.24.81-2.67,3.72-3.69,6.48-5.66,7.68-16.5,10-32.3,22-50,29.1-24.91,10.06-38.3,26.79-41,52.89q-4.51,43.85-8.8,87.72c0,.25,1,.61,3.68,2.2,1.7-9.41,3.88-18,4.67-26.65,1.81-19.66,2.36-39.44,4.46-59.06,3.7-34.65,16.8-48.48,52-56.54,7.49-5.71,14.83-11.65,22.62-16.92,1.47-1,4.74.67,6.85,3.33L89,292.44c1.15,6.67,4.7,3.49,7.91,1.95,10.68-5.09,21.37-10.15,30.31-14.39l22.61,40.31c-1.16,2.8-3.39,8.2-5.63,13.6l3,1.22,11.15-18.85,11.13,3.94c0,12.89-.07,25.95,0,39s.26,26.14.55,39.21c.28,12.53.74,25.06,1.13,37.6l2.82-.15c0-8.82.06-17.64,0-26.46q-.39-48.75-.89-97.5c-.1-9.18,4.8-8.46,10.3-6.65.32,7.12.62,13.52,1,22.72,3.52-7.1,5.55-11.2,7.53-15.22l-5-3.69.91-1.76,21.2,3.66c5.2-6.38,10.95-12.4,15.39-19.26,3.06-4.73,6.17-5.35,11.42-5.34,16.71.06,29.58,9.92,44.06,15.69,4.86,1.93,10.21,2.66,15.33,3.94C286.08,299.7,276.49,295.51,267,291.11Zm-63.78,17.06c-2.16-6.72-2.37-13.62-5.85-16.33-3.21-2.51-9.92-.54-18-.54l44.19-37.38c-1.81,5.7-2.74,8.62-4.79,15l14.84-6.13C232.21,281.53,216.4,292.2,203.21,308.17Z"/><path class="cls-1" d="M80.88,393.37c-1.76,13.4,6.34,15.51,6.7,28.91"/><path class="cls-1" d="M276.14,362.71c7,12.34-.48,23.62,4.93,38.42"/><path class="cls-1" d="M319.49,398.31c-7.4,10.22-6.11,25.05-16.45,37.73"/><path class="cls-1" d="M285,412.76s12.33,10.57,3.52,27.49"/><line class="cls-1" x1="43.87" y1="350.73" x2="52.68" y2="381.04"/><path class="cls-1" d="M317.53,323.89s13.38,8.78,9.39,34.22"/></g></g></svg>