<svg xmlns="http://www.w3.org/2000/svg" viewBox="0 0 351.08 50.22">
	<defs>
		<style>
			.cls-1 {
			fill: none;
			stroke: #000;
			stroke-linecap: round;
			stroke-linejoin: round;
			stroke-width: 0.5px;
			transition: all 8s;
			}
			.word1 {
			stroke-dasharray: 330px;
			stroke-dashoffset: 330px;
			transition-delay: 0s;
			}
			.word2 {
			stroke-dasharray: 385px;
			stroke-dashoffset: 385px;
			transition-delay: 8s;
			}
			.word3 {
			stroke-dasharray: 445px;
			stroke-dashoffset: 445px;
			transition-delay: 16s;
			}
			.word4 {
			stroke-dasharray: 310px;
			stroke-dashoffset: 310px;
			transition-delay: 24s;
			}
			.word5 {
			stroke-dasharray: 295px;
			stroke-dashoffset: 295px;
			transition-delay: 32s;
			}
		</style>
	</defs>
	<title>Asset 15</title>
	<g id="Layer_2" data-name="Layer 2">
		<g id="Layer_1-2" data-name="Layer 1">
			<path class="cls-1 word3" d="M145.15,31.81a4.21,4.21,0,0,0,2.56-1,16.29,16.29,0,0,0,4.07-4.41,8,8,0,0,0,.7-2c.69-2.19,1.37-4.4,2.05-6.6.15-.5.29-1,.44-1.52-.57,0-1.11,0-1.65,0s-1,.14-1.47.2c-1.24.15-2.47.3-3.72.41-.48,0-.55.46-.66.75-.49,1.35-.91,2.72-1.38,4.08A43.46,43.46,0,0,0,144.53,28a19.94,19.94,0,0,0-.21,2.57,2.62,2.62,0,0,0,.1.83.66.66,0,0,0,.67.48" />
			<path class="cls-1 word3" d="M204.25,31.34c-1.27.77-2.59,1.48-3.81,2.32A30.6,30.6,0,0,0,195,38.37a14,14,0,0,0-3.63,6.44,3.67,3.67,0,0,0-.11,1.89,1.59,1.59,0,0,0,1.48,1.16c2.36.18,4.08-1,5.54-2.64a21.1,21.1,0,0,0,3.27-5.33,45.31,45.31,0,0,0,2.61-7.5c.1-.38.17-.77.26-1.15" />
			<path class="cls-1 word2" d="M73.46,31.34c-1.15.68-2.35,1.3-3.44,2.06a32.65,32.65,0,0,0-5.77,4.92,14.18,14.18,0,0,0-3.46,5.76,9.18,9.18,0,0,0-.41,1.78,1.68,1.68,0,0,0,1.76,2A6.21,6.21,0,0,0,66.75,46a18.3,18.3,0,0,0,3.68-5.39,41.15,41.15,0,0,0,2.14-5.35c.36-1.13.67-2.27,1-3.41a2.69,2.69,0,0,0,.06-.57" />
			<path class="cls-1 word3" d="M214.16,32.08c-.63.59-1.27,1.17-1.88,1.78a9.24,9.24,0,0,0-1.95,2.83,4.71,4.71,0,0,0-.42,2.25,1.13,1.13,0,0,0,1,1.05,3.2,3.2,0,0,0,3.52-2.78,10.53,10.53,0,0,0-.22-4.4c0-.16-.07-.32-.1-.47" />
			<path class="cls-1 word1" d="M29.45,3.52c-.72.61-1.47,1.18-2.14,1.84-2.24,2.16-4.49,4.32-6.65,6.56-1.49,1.54-2.84,3.23-4.26,4.85-.73.84-1.89,2.31-1.89,2.31a4,4,0,0,0,.68.05c1.16-.1,2.31-.24,3.46-.3,1.35-.08,2.69-.07,4-.12.77,0,1.54-.09,2.33-.14.36-1.21.68-2.43,1.08-3.63,1.17-3.44,2.37-6.88,3.55-10.32A12.49,12.49,0,0,0,30,3.31,1,1,0,0,0,29.45,3.52Z" />
			<path class="cls-1 word1" d="M1.83,25.16c-.53-.5-.57-.94-.27-1.73a3.31,3.31,0,0,1,1.85-1.77,23.66,23.66,0,0,1,6.39-1.9,2.78,2.78,0,0,0,2-.87q2.74-3.48,5.65-6.82C18.83,10.49,20.29,9,21.75,7.5A75,75,0,0,1,27.88,2,7.28,7.28,0,0,1,31.18.26c.51-.09,1.41.32,1.5.8a2.44,2.44,0,0,1,0,1.14c-.35,1.17-.75,2.31-1.14,3.47Q29.59,11.33,27.67,17c-.17.51-.29,1-.46,1.64,2.49-.11,4.86,0,6.8,1.71.43-1,.79-1.87,1.2-2.88.81-2,1.6-4,2.42-6,.12-.29.24-.63.67-.58a1.45,1.45,0,0,1,1.1,1.78c-.3.85-.6,1.69-.94,2.52-.9,2.19-1.88,4.34-2.71,6.56a43.65,43.65,0,0,0-2.36,8.17,5.13,5.13,0,0,0,.09,2.4c.21.67.36.79,1.05.79a5.29,5.29,0,0,0,2.41-.73,11.64,11.64,0,0,0,3.14-2.57,12.68,12.68,0,0,0,3.32-5.39,68.62,68.62,0,0,1,3.18-8.44c.62-1.54,1.24-3.07,1.83-4.62.11-.31.25-.49.58-.47a1.58,1.58,0,0,1,1.2,1.78c-.25.69-.55,1.37-.83,2-.8,1.9-1.68,3.78-2.39,5.72a47.25,47.25,0,0,0-2.87,9.68,4.8,4.8,0,0,0,.13,2.2c.22.71.33.8,1,.79a5.09,5.09,0,0,0,2.46-.74,18,18,0,0,0,5.51-5.65c.21-.31.43-.6.64-.91l.21,0c.07.31.25.65.17.91a6.59,6.59,0,0,1-.72,1.63,21.25,21.25,0,0,1-3.08,4,10.76,10.76,0,0,1-3.2,2.4,3.14,3.14,0,0,1-3.77-.62c-1.33-1.48-1.41-4.45-1.41-4.45s-.17,0-.21.1a16.79,16.79,0,0,1-2.95,3.34,13.35,13.35,0,0,1-2.3,1.57,3.14,3.14,0,0,1-2.46.28,3.7,3.7,0,0,1-2.4-2.52,7.38,7.38,0,0,1-.09-4.24c.41-1.84,1-3.64,1.5-5.45.18-.62.38-1.22.57-1.84l-.16-.06c-1.09.35-2.19.68-3.29,1a1.19,1.19,0,0,1-1.24-.73A.87.87,0,0,0,28,20.54a3.32,3.32,0,0,1-.89,0,.55.55,0,0,0-.68.48c-.73,2.69-1.51,5.37-2.19,8.07-.36,1.45-.58,2.93-.85,4.4-.22,1.22-.5,2.44-.61,3.67-.12,1.48-.1,3-.11,4.45,0,.3.18.6.18.89s.2.72-.24,1a.94.94,0,0,1-1.05-.16,1.89,1.89,0,0,1-.67-1.42,14.66,14.66,0,0,1-.2-2.72c0-1.3.23-2.59.4-3.88s.37-2.66.63-4,.63-2.91,1-4.35c.51-2,1.07-4,1.61-6a1.5,1.5,0,0,0,0-.37c-.68,0-1.36,0-2,0-.88,0-1.75.13-2.62.2L16,21.12c-.77.07-1.53.15-2.3.21a2.52,2.52,0,0,0-2,1c-2.07,2.71-4.14,5.42-6,8.29a34.94,34.94,0,0,0-2.93,4.87c-.26.59-.49,1.19-.74,1.78-.17.43-.52.59-.82.31a9.5,9.5,0,0,1-1-1.2c-.05-.07,0-.25,0-.36A31.37,31.37,0,0,1,5,27.89c1.19-1.69,2.41-3.36,3.61-5A7.74,7.74,0,0,0,9,22.17s0,0-.21,0a14,14,0,0,0-4.4,1.47A1.88,1.88,0,0,0,3.26,25c0,.38-.19.47-.54.48" />
			<path class="cls-1 word5" d="M339.34,27.25a1.36,1.36,0,0,0,1.52.06,4.86,4.86,0,0,0,3-2.78,1.78,1.78,0,0,0,.06-.47,2.29,2.29,0,0,0-.52,0,5.68,5.68,0,0,0-3.83,2.83c-.08.11-.14.24-.21.36" />
			<path class="cls-1 word2" d="M95.63,27.25c.47.48,1,.24,1.46.05a4.48,4.48,0,0,0,3-2.82c.14-.44,0-.61-.42-.53A5.46,5.46,0,0,0,96.42,26c-.31.38-.56.8-.84,1.2" />
			<path class="cls-1 word4" d="M275.52,27.25a1.36,1.36,0,0,0,1.52.06,4.91,4.91,0,0,0,3-2.78c.06-.14.1-.42.05-.45a1,1,0,0,0-.57-.12,5.84,5.84,0,0,0-3.19,2,10.8,10.8,0,0,0-.79,1.2" />
			<path class="cls-1 word5" d="M293.06,18.46a1,1,0,0,0,1.17.31,8.84,8.84,0,0,1,1-.42c1.15-.32,2.31-.61,3.47-.91l.1.13c-.06.23-.1.45-.17.67-.52,1.68-1.11,3.34-1.56,5A31.16,31.16,0,0,0,296,28.46a6.59,6.59,0,0,0,.67,3.92,2.69,2.69,0,0,0,1.61,1.43,3.29,3.29,0,0,0,2.57-.53,11.16,11.16,0,0,0,2.87-2.48c.42-.48,1-1,1-1l.15,1.47a3.25,3.25,0,0,0,3.36,2.92,5.29,5.29,0,0,0,2.87-1.2c.88-.68,1.73-1.41,2.57-2.15v.06c0,.07.06.15,0,.21-.11.49-.26,1-.35,1.47a1.48,1.48,0,0,0,.94,1.61.56.56,0,0,0,.75-.29c.68-1.28,1.46-2.52,2.18-3.79A32.29,32.29,0,0,1,321,24.85a6.38,6.38,0,0,1,.88-.74s.05-.07.06.05a13.51,13.51,0,0,1-.27,3.3c-.15,1.07-.29,2.13-.41,3.2a1.49,1.49,0,0,0,1.09,1.47c.46.08.61-.26.79-.58.55-1,1.12-1.92,1.67-2.88a6.9,6.9,0,0,1,1.94-2c.1.52.18,1,.26,1.41a7.42,7.42,0,0,0,1.38,3.51,3.11,3.11,0,0,0,3.71.89A9.14,9.14,0,0,0,335.62,30a12.06,12.06,0,0,1,1-.94,5.06,5.06,0,0,1,.1.68,4.51,4.51,0,0,0,3.93,4.51,8.51,8.51,0,0,0,6.55-1.9,10.2,10.2,0,0,0,3.3-4.24,2.65,2.65,0,0,0,.31-1.46,6.32,6.32,0,0,0-.22-.78c-.59.87-1.07,1.65-1.61,2.4a10.4,10.4,0,0,1-5.66,3.85,6.26,6.26,0,0,1-3.3.13,1.75,1.75,0,0,1-1.46-2c0-.47.1-.94.15-1.35a7.89,7.89,0,0,0,1.73.48,4.3,4.3,0,0,0,1.73-.3,5.45,5.45,0,0,0,3.58-3.65,2.67,2.67,0,0,0-2.06-3.24,4.85,4.85,0,0,0-4.29,1.41,12.28,12.28,0,0,0-1.7,2,16.3,16.3,0,0,1-5.23,4.82,3.41,3.41,0,0,1-2.19.42,1.42,1.42,0,0,1-1.2-1.09,16.29,16.29,0,0,1-.32-1.83,6.07,6.07,0,0,0-.53-2.15c-.73-1.3-1.8-1.5-3.13-.66a10.92,10.92,0,0,0-1.22,1c0-.31,0-.63,0-.94.06-1.28,0-2.51-1.11-3.4a1.36,1.36,0,0,0-1.46-.1,6.83,6.83,0,0,0-2.19,1.88,22.76,22.76,0,0,0-1.63,2l0-.11c.13-.59.23-1.19.38-1.78a1.57,1.57,0,0,0-1.32-1.63c-.26,0-.36.11-.43.37-.32,1.21-.73,2.4-1,3.62a4.25,4.25,0,0,1-1.26,2.21,18.77,18.77,0,0,1-3.37,2.81,6.47,6.47,0,0,1-3.19,1.16c-.51,0-.71-.16-.68-.68.05-.73.14-1.47.26-2.2A23,23,0,0,1,308.69,24a1,1,0,0,0-.27-1.09,1.1,1.1,0,0,0-1.14-.51c-.18.05-.33.31-.42.51-.33.79-.65,1.6-.95,2.41a8.41,8.41,0,0,1-1.42,2.3,14.61,14.61,0,0,1-3.61,3.45,3.85,3.85,0,0,1-2,.75c-.61,0-.87-.22-.89-.84a16.63,16.63,0,0,1,.29-3.52,43.85,43.85,0,0,1,1.29-5.29c.48-1.55,1-3.07,1.56-4.61a.93.93,0,0,1,.94-.65c.93-.06,1.85-.26,2.78-.39a10.24,10.24,0,0,1,1.1-.11l3.56-.21a17.9,17.9,0,0,1,1.79-.1c.94,0,1.88.14,2.83.2.39,0,.61-.25.4-.57a1.84,1.84,0,0,0-1.24-.91,38,38,0,0,0-6.66-.18c-1.4,0-2.79.16-4.19.25h-.1a1.7,1.7,0,0,1,.1-.32c.45-.94.9-1.89,1.37-2.82a.87.87,0,0,0-.06-1.05A3.59,3.59,0,0,0,303,10c-.36-.22-.69-.22-.93.3-.72,1.51-1.4,3-2.11,4.55a.85.85,0,0,1-.47.46c-.65.15-1.33.2-2,.34-1.3.29-2.6.59-3.88,1a1.62,1.62,0,0,0-1,.68c-.21.4.07.81.42,1.14" />
			<path class="cls-1 word4" d="M230.09,18.55a1.21,1.21,0,0,1-.47-1.25c.14-.5.64-.56,1-.66,1.27-.37,2.57-.67,3.87-1,.64-.14,1.3-.2,1.94-.33a.76.76,0,0,0,.41-.36c.71-1.5,1.4-3,2.11-4.5.31-.66.74-.75,1.3-.32a1.18,1.18,0,0,1,.37,1.73c-.47,1-.92,1.95-1.42,3,.38,0,.72,0,1.05,0,.81-.06,1.61-.16,2.41-.2,1.17-.07,2.35-.17,3.51-.15,1.4,0,2.8.13,4.2.26a1.3,1.3,0,0,1,1.09,1.47l-1.93-.12c-.77,0-1.54-.11-2.31-.1s-1.82.12-2.72.21-1.92.2-2.88.31-1.82.23-2.73.3a.81.81,0,0,0-.78.54,69.18,69.18,0,0,0-2.61,8.44c-.31,1.39-.45,2.82-.63,4.24a3.48,3.48,0,0,0,.1,1.15c.11.49.68.65,1.35.47a7.52,7.52,0,0,0,3-1.83,30.07,30.07,0,0,0,3.89-4.76A7.66,7.66,0,0,1,247,22.26a3.21,3.21,0,0,1,3.67,1.07v-.06l.21-.26a10.64,10.64,0,0,1,.9-1.09.87.87,0,0,1,1.31,0,1.64,1.64,0,0,1,.41,2c-.54,1.59-1.12,3.17-1.61,4.78a9,9,0,0,0-.36,2.25c0,.66.25,1.1,1.09.86a10.55,10.55,0,0,0,2.45-1.08,16.41,16.41,0,0,0,3.55-3.15,3.84,3.84,0,0,0,1.13-1.72c.18-.79.44-1.57.67-2.36q1.36-4.68,2.72-9.37c.31-1.06.65-2.1.94-3.15a.53.53,0,0,1,.69-.46,1.76,1.76,0,0,1,1.09,1.77c-.47,1.61-1,3.21-1.46,4.82-.4,1.38-.71,2.78-1.17,4.13a9.4,9.4,0,0,0-.4,1.9c.17-.16.36-.31.52-.48a6.18,6.18,0,0,1,1.94-1.3,2.49,2.49,0,0,1,2.88.57,2.6,2.6,0,0,1,.29,2.92,6.23,6.23,0,0,1-5.16,3.68c-.3,0-.55.12-.47.47a7.4,7.4,0,0,0,1,2.58,2.25,2.25,0,0,0,2.48.88,8.68,8.68,0,0,0,3.93-2.25,22.28,22.28,0,0,0,3.65-4.67,8.65,8.65,0,0,1,2.22-2.44,4.71,4.71,0,0,1,3.56-1A2.72,2.72,0,0,1,281.76,26,5.88,5.88,0,0,1,278,29.18a3.43,3.43,0,0,1-1.41.2,11.6,11.6,0,0,1-1.8-.51c0,.55-.06,1.15,0,1.74a1.71,1.71,0,0,0,1.73,1.71,9.6,9.6,0,0,0,2.14-.1,10.13,10.13,0,0,0,6.49-3.93c.58-.72,1-1.56,1.53-2.34.43.44.44.9.16,1.67a10.09,10.09,0,0,1-3.47,4.71,8.33,8.33,0,0,1-6.59,1.89A4.53,4.53,0,0,1,273.51,32a15.78,15.78,0,0,1-.72-2,1.48,1.48,0,0,0-.42.42,11.33,11.33,0,0,1-3.4,3.25,4.82,4.82,0,0,1-5.35-.15,6.59,6.59,0,0,1-2-2.94,2.3,2.3,0,0,0-.31-.58,7.52,7.52,0,0,0-.62,1.06c-.41,1-.78,2-1.17,3s-.65.74-1.25.3a1.44,1.44,0,0,1-.48-1.82c.22-.73.38-1.47.59-2.2,0-.06-.06,0-.06,0-.44.4-.87.81-1.31,1.2a9.23,9.23,0,0,1-3,1.94,3,3,0,0,1-3.9-1.32,6.17,6.17,0,0,1-.55-2.66c-.82.94-1.6,1.92-2.48,2.82a3.34,3.34,0,0,1-2.66,1.11,3,3,0,0,1-2.83-2.67,5.47,5.47,0,0,0-.15-.58,10.74,10.74,0,0,0-.85.78,11.14,11.14,0,0,1-3.08,2.47c-2,1-3.32.16-4.09-1.68a7.43,7.43,0,0,1-.33-3.77,36,36,0,0,1,1.34-5.81c.41-1.47.93-2.9,1.39-4.36a1.85,1.85,0,0,0,0-.5c-1.59.47-3.11.88-4.61,1.36a1,1,0,0,1-1.1-.18" />
			<path class="cls-1 word4" d="M263,26.63a2.16,2.16,0,0,1,.47-.26,4.62,4.62,0,0,0,3.29-2.79,1.17,1.17,0,0,0,0-.39,4.9,4.9,0,0,0-2.43,1.66,13.31,13.31,0,0,0-.89,1.2,1.63,1.63,0,0,0-.11.31" />
			<path class="cls-1 word2" d="M69.6,31.37a3.26,3.26,0,0,0,.47-.17c1.26-.69,2.52-1.38,3.77-2.09a.92.92,0,0,0,.41-.42,8.33,8.33,0,0,0,.22-1.31,13.35,13.35,0,0,0,.06-1.57,4.33,4.33,0,0,0-.52.42q-.75.82-1.47,1.68c-.58.68-1.13,1.38-1.74,2s-1.29,1.36-2,2-1.34,1-2,1.45a32.88,32.88,0,0,0-4.53,4,14.21,14.21,0,0,0-2.94,4.4A8.39,8.39,0,0,0,58.67,46a3.65,3.65,0,0,0,1.76,2.73,4.75,4.75,0,0,0,3.41.84,8.39,8.39,0,0,0,4.29-2,18.21,18.21,0,0,0,3.93-5.24,31.24,31.24,0,0,0,2.51-6.34c.46-1.7.89-3.41,1.25-5.13a1.84,1.84,0,0,1,1.33-1.68,3.61,3.61,0,0,0,.42-.16l3.92-1.57c.09,0,.06.06.06.06-.11.61-.19,1.22-.32,1.83-.25,1.17-.53,2.34-.78,3.51a1.61,1.61,0,0,0,1.15,1.57.61.61,0,0,0,.74-.42c.62-1.38,1.2-2.78,1.89-4.13a14.33,14.33,0,0,1,3.35-4.56,4.11,4.11,0,0,1,1-.62c.56-.25.67-.19.88.41a12.63,12.63,0,0,1,.43,1.52c.15.65,2.24.77,2.8.94l.5.12a5.15,5.15,0,0,0,.47,4.12,4.4,4.4,0,0,0,3.3,2.2A8.35,8.35,0,0,0,103.5,32a22,22,0,0,0,1.73-1.62.48.48,0,0,1,.27-.15,9.48,9.48,0,0,0,.64,1.61,2.85,2.85,0,0,0,3.28,1.21,4,4,0,0,0,1.83-1.15c.8-.87,1.55-1.78,2.32-2.67,0,0,.08.6.12,1.2A3.11,3.11,0,0,0,115.13,33c1.34.9,2.6.47,3.83-.18a12.59,12.59,0,0,0,3.44-2.94c.35-.4.81-.82.81-.82.07.38.16.77.2,1.15a4.3,4.3,0,0,0,1.58,3,2,2,0,0,0,1.62.41,5.36,5.36,0,0,0,2-.81,14.87,14.87,0,0,0,3.55-3.53,20.79,20.79,0,0,0,1.36-2.09,1.17,1.17,0,0,0-.28-1.68,3.79,3.79,0,0,0-.34.43,19.11,19.11,0,0,1-3.31,3.87,6.45,6.45,0,0,1-2.82,1.67c-1,.24-1.45,0-1.43-1a16,16,0,0,1,.32-3.45c.38-1.56.67-3.13,1.13-4.66.53-1.77,1.19-3.5,1.82-5.24a.85.85,0,0,1,.47-.46,4.62,4.62,0,0,1,1-.12l1.94-.21c.85-.1,1.71-.23,2.57-.31,1-.1,2.06-.18,3.09-.21.78,0,1.51,0,2.3,0,1.41-.14,1.36-.42,1.36-.42-.08-.48-.37-.62-1.22-.69-1-.09-2.06-.16-3.09-.15-1.59,0-3.18.08-4.77.14-.83,0-1.67.1-2.51.16h-.11c.46-1,.9-2,1.37-3a1.35,1.35,0,0,0-.95-2,.46.46,0,0,0-.58.3c-.61,1.3-1.25,2.59-1.88,3.88a7.53,7.53,0,0,0-.36.89.56.56,0,0,1-.53.38,32.32,32.32,0,0,0-5.76,1.25,2.3,2.3,0,0,0-.32.15c-.79.4-.91.94-.37,1.63a1.13,1.13,0,0,0,1.42.31,22.06,22.06,0,0,1,4.5-1.24,13.76,13.76,0,0,1-.37,1.35c-.87,2.37-1.45,4.84-2.09,7.28a1.11,1.11,0,0,1-.16.42,18.61,18.61,0,0,1-4.56,4.29,7,7,0,0,1-2.4,1c-.73.13-1,0-1.05-.8a8.3,8.3,0,0,1,.58-3c.43-1.24.84-2.49,1.32-3.72a3.31,3.31,0,0,0,.18-1.52c0-.5-.43-.76-.82-1a.81.81,0,0,0-1,.22,16.25,16.25,0,0,0-1.11,1.31,3.37,3.37,0,0,0-1.68-1.11,3.76,3.76,0,0,0-3,.54A10.29,10.29,0,0,0,106,27.08a9.62,9.62,0,0,1-1.82,2.31A10.09,10.09,0,0,1,99.67,32a7.26,7.26,0,0,1-3.46.18,1.61,1.61,0,0,1-1.36-1.77c0-.54,0-1.08.06-1.73a3.11,3.11,0,0,0,2.18.66,6.48,6.48,0,0,0,1.78-.51,5.52,5.52,0,0,0,2.94-2.82,2.71,2.71,0,0,0-2-3.9,4.6,4.6,0,0,0-3.5.93c-1.51,1.07-3,4.18-3,4.18-.16-1.65-2.19-3.06-3.64-4.08a2.37,2.37,0,0,0-2.66.05,9.37,9.37,0,0,0-2.46,2.24c-.07.08-.14.14-.21.21A20.16,20.16,0,0,1,84.68,23c.09-.38.16-.77.26-1.15.17-.64-.62-1.7-1.26-1.62-.46.06-.59.48-.68.88-.32,1.54-.63,3.08-.94,4.61-.07.31-.26.43-.57.54-1.4.51-2.77,1.07-4.15,1.61-.32.12-.65.22-.94.32a23.56,23.56,0,0,0,0-3.67c-.2-1.21-1.31-1.89-2.58-.84-.42.35-.79.75-1.21,1.15a10.28,10.28,0,0,0-.47-.94,4,4,0,0,0-5-1.45A7.14,7.14,0,0,0,64,25.21a7.89,7.89,0,0,0-1.39,3.41,4.7,4.7,0,0,0,.82,3.71,3.13,3.13,0,0,0,3.35.9,1.48,1.48,0,0,1,.42,0" />
			<path class="cls-1 word3" d="M139.17,18.14c-.37-.64-.26-1,.42-1.31l1-.47,1.24-.29c.27-.06.51-.14.75-.18.82-.15,1.65-.25,2.46-.44.42-.1,1,.12,1.21-.51.12-.32.27-.63.42-.94.59-1.24,1.17-2.49,1.79-3.72.21-.42.45-.46.88-.27a1.32,1.32,0,0,1,.79,1.69c-.37.7-.71,1.42-1.05,2.14-.17.36-.31.72-.46,1.1.35,0,.67,0,1,0l5.3-.31a.74.74,0,0,1,.21,0c.26,0,.39-.06.48-.37.32-1.11.68-2.2,1-3.3.12-.38.38-.55.73-.41a1.46,1.46,0,0,1,1,1.88c-.26.69-.42,1.42-.64,2.16l1.42.14a1.89,1.89,0,0,1,1.72.95c.06.13.11.38,0,.45a.72.72,0,0,1-.5.16c-.9-.05-1.79-.12-2.68-.2-.36,0-.52.05-.64.47q-.95,3.2-2,6.34a28.93,28.93,0,0,0-.77,3.1,3.12,3.12,0,0,0,.46-.43,11.29,11.29,0,0,1,3-2.81c1.28-.75,2.81-.6,3.29,1.09a9.75,9.75,0,0,1,.31,1.78c.1,1.2.11,2.42.23,3.61s.52,1.28,1.51.84l.21-.1a7.89,7.89,0,0,0,3.19-2.73,10,10,0,0,0,.94-1.62c.42-.93.8-1.88,1.15-2.83a.61.61,0,0,1,.8-.41,1.36,1.36,0,0,1,.89,1.83c-.35.83-.69,1.66-1,2.51a13.58,13.58,0,0,0-.9,4.93c0,.52.06.58.58.57a5.89,5.89,0,0,0,2.88-.94,18.57,18.57,0,0,0,4.66-4,.9.9,0,0,0,.16-.36c.39-1.64.77-3.29,1.16-4.93.11-.49.38-.66.83-.52a1.3,1.3,0,0,1,1,1.73c-.24,1-.4,2.08-.7,3.08a5.31,5.31,0,0,0-.19,1.58c.17-.19.36-.37.52-.58a26.86,26.86,0,0,1,4.56-5c1.34-1.08,2.91-.95,3.6.58a5.71,5.71,0,0,1,.42,1.88c.09,1.29.07,2.58.12,3.87a1.36,1.36,0,0,0,1.52,1.37,7.87,7.87,0,0,0,4.24-2.73s0-.1.06-.15a8.77,8.77,0,0,1,1.52-2.63,6.94,6.94,0,0,1,2.77-2.1,4,4,0,0,1,4.56,1.32c.24.37.47.75.67,1.08.56-.48,1.08-1,1.64-1.39a1.21,1.21,0,0,1,1.56.11,2.12,2.12,0,0,1,.52.83c.45,1.26.14,2.55.08,3.9l5.38-2.1a9.35,9.35,0,0,1-.19-1.49,5,5,0,0,1,1.6-4,2.65,2.65,0,0,1,2.31-.65,4.05,4.05,0,0,1,3.2,4.33c0,.48-.38.67-.84.47a1.53,1.53,0,0,1-1.06-1.63c0-.94-.54-1.43-1.4-1.19a2.17,2.17,0,0,0-.78.41,2.91,2.91,0,0,0-1,2.41,14.5,14.5,0,0,0,.21,2.46c.11.68.35,1.34.54,2.05l.86-.48a40.26,40.26,0,0,1,7.13-2.67,3.89,3.89,0,0,1,.84-.15.88.88,0,0,1,.89.57c.08.4-.06.59-.58.79-1.45.54-2.93,1-4.34,1.64S217,30.34,215.67,31c.2,1.28.37,2.4.53,3.52a10.85,10.85,0,0,1,0,3.46c-.39,2.17-2.33,4.41-5.1,3.89a3.26,3.26,0,0,1-2.36-1.48,5,5,0,0,1-.46-4.35A8.84,8.84,0,0,1,211,32.19c.81-.75,1.7-1.41,2.56-2.12-.09-.35-.17-.72-.26-1.09a16.62,16.62,0,0,0-.58-1.62l-2.36,1c-1.06.46-2.12.95-3.2,1.4-.58.25-.47.8-.55,1.22a49.69,49.69,0,0,1-2.69,9.17,23.52,23.52,0,0,1-3.2,5.65,10.19,10.19,0,0,1-5,3.77A6.25,6.25,0,0,1,194,50a5.2,5.2,0,0,1-1.68-.35,4,4,0,0,1-3-3.3,7.17,7.17,0,0,1,.18-3,13.32,13.32,0,0,1,2.67-4.88,30.55,30.55,0,0,1,5.35-4.87,2.92,2.92,0,0,0,.4-.29l2.36-1.57a2.93,2.93,0,0,0,.43-.23c1.25-.68,2.49-1.35,3.72-2.05a1,1,0,0,0,.41-.52c.16-.73.27-1.46.38-2.2a1.57,1.57,0,0,0-.05-.63c-.79.84-1.59,1.66-2.35,2.52-.93,1-1.75,2.18-2.76,3.11a5.86,5.86,0,0,1-2.7,1.56,3.21,3.21,0,0,1-3.5-1.32,9.08,9.08,0,0,1-.69-1.78.68.68,0,0,0-.26.11,4.69,4.69,0,0,1-2.62,1.36,3.4,3.4,0,0,1-3.2-1.15A6.91,6.91,0,0,1,186,26.84c0-.49-.09-1-.1-1.47s-.11-1.57-.11-1.57a10.17,10.17,0,0,0-1.15.79,40.83,40.83,0,0,0-4.93,5.81c-.8,1.07-1.57,2.17-2.36,3.25-.37.5-.68.59-1.15.36a1.19,1.19,0,0,1-.79-1.36c.14-.75.23-1.5.38-2.25,0,0-.06,0-.06,0-.46.44-.92.86-1.36,1.31a9.52,9.52,0,0,1-2.95,2.08,3.42,3.42,0,0,1-2.72.24c-1.83-.69-2.35-4-2.35-4-.58.51-1.12,1.06-1.74,1.51a2.84,2.84,0,0,1-2.51.5A3,3,0,0,1,160,29.72a24.64,24.64,0,0,1-.68-5.19,3.74,3.74,0,0,0-1.62,1.11,27.44,27.44,0,0,0-3.88,5.08c-.79,1.22-1.54,2.48-2.31,3.71a.79.79,0,0,1-1.26.21,1.61,1.61,0,0,1-.48-1.73c.22-.72.38-1.47.59-2.19,0,0-.06,0-.06,0-.52.49-1,1-1.58,1.46a15.55,15.55,0,0,1-2.2,1.46,2.19,2.19,0,0,1-2,.12,3.9,3.9,0,0,1-2.13-3.46,10.7,10.7,0,0,1,.31-4c.6-2.31,1.28-4.61,1.93-6.92.17-.61.34-1.22.52-1.83,0,0-2.38.52-3.67.84a6.34,6.34,0,0,0-.73.26,1.13,1.13,0,0,1-1.63-.52" />
			<path class="cls-1 word5" d="M308.58,18.29A2.27,2.27,0,0,0,308,20.8a1.76,1.76,0,0,0,.78.62.63.63,0,0,0,.88-.45c.08-.24.12-.5.22-.74a1.28,1.28,0,0,0-1.26-1.94" />
			<path class="cls-1 word3" d="M200,24a4.55,4.55,0,0,0-2.67,1.58,8.46,8.46,0,0,0-2,3.72,6.78,6.78,0,0,0-.16,1.1c0,.87.4,1.37,1.4,1a5.06,5.06,0,0,0,1.67-1c1.33-1.31,2.59-2.69,3.84-4a5.34,5.34,0,0,1-.3-.91A1.62,1.62,0,0,0,200.06,24" />
			<path class="cls-1 word3" d="M170.3,18.29c-.48.27-.46.79-.62,1.21a1.23,1.23,0,0,0,.41,1.73.78.78,0,0,0,1.31-.37,6,6,0,0,0,.36-1,1.31,1.31,0,0,0-1.41-1.57" />
			<path class="cls-1 word2" d="M112.76,23.9a5.21,5.21,0,0,0-2.51,1.26,8.75,8.75,0,0,0-2.87,4.09,5.51,5.51,0,0,0-.16,1.67.73.73,0,0,0,1.09.62,5.6,5.6,0,0,0,1.25-.73,13.34,13.34,0,0,0,2.89-3.5,5.29,5.29,0,0,0,.71-1.32,8.38,8.38,0,0,0,.11-1.88c0-.07-.3-.14-.45-.21" />
			<path class="cls-1 word4" d="M248.79,23.9a6.79,6.79,0,0,0-3.72,2.46,8.44,8.44,0,0,0-1.5,2.42,7.08,7.08,0,0,0-.32,1.78c-.07.92.55,1.37,1.39.86a7.69,7.69,0,0,0,2.08-1.67,33.65,33.65,0,0,0,2.38-3.5,3.15,3.15,0,0,0,.3-1.82c0-.27-.13-.61-.55-.53" />
			<path class="cls-1 word2" d="M69.22,24a4.77,4.77,0,0,0-2.67,1.58,9.43,9.43,0,0,0-2.09,3.87,3,3,0,0,0-.11.89c0,.93.31,1.38,1.41,1.05A5.4,5.4,0,0,0,68,29.76c1.13-1.15,2.19-2.35,3.24-3.49-.11-.37-.19-.69-.29-1-.37-1.06-.48-1.09-1.68-1.31" />
		</g>
	</g>
</svg>