<svg xmlns="http://www.w3.org/2000/svg" viewBox="0 0 337.26 605.95"><defs><style>path{fill:none;stroke-miterlimit:10;stroke:#fff;stroke-width: 1px;stroke-dasharray: 1425px;stroke-dashoffset:1425px;display:'none';-webkit-animation: svgAnim 20s ease-in-out 31s 1 both ;animation: svgAnim 20s ease-in-out 31s 1 both ;}@-webkit-keyframes svgAnim
{
	0% {stroke-dashoffset:1425px;}
	50% {stroke-dashoffset:0;}
	100% {stroke-dashoffset:1425px;}
}@keyframes svgAnim
{
	0% {stroke-dashoffset:1425px;}
	50% {stroke-dashoffset:0;}
	100% {stroke-dashoffset:1425px;}
}</style></defs><title>Asset 6</title><g id="Layer_2" data-name="Layer 2"><g id="Layer_1-2" data-name="Layer 1"><path class="cls-1" d="M332.27,298.51c-.56-1.38-.44-3.09-2.28-3.31s-4,0-4.62,2c-1.38,4.31-5.05,6-8.35,8.29-4.26,3-4.77,6.57-2.09,10.78a20.93,20.93,0,0,1,2.13,4.42c.41,1.21.84,2.13,2.59,2.32a6,6,0,0,0,1.68-1.22c1.94-2.6,4.33-2.41,7.1-1.66,1.45.4,3.43,2.18,4.58-.57,1.25-3,5.29-5.45,3.13-9.18S333.85,302.36,332.27,298.51Z"/><path class="cls-1" d="M274.8,153.19c.86.66.93,2.67,2.79,1.7-1.2-2.11,3.93-3,1.06-5.39-1.38-1.14-2.13-2.31-1.58-4.24.27-.92-3.62-3.77-4-3.18-1.25,2-1.47,2.46-2.14-.4-.45-1.94-3.37-2.45-5.05-2.6s0,1.73-.08,2.7c0,.2-.38.38-1.21,1.15l-2.14-4.27c-1.17,3.8.51,4.69,1.54,5.89C267.06,148.11,271.15,150.38,274.8,153.19Z"/><path class="cls-1" d="M298.86,353.91c-3.24.08-7.3,6.22-6.46,9.76-.16,1-.32,1.93-.49,2.89-2.13.06-4.06,1.1-6.43-.55s-6.27,1.65-5.84,4.6a18.05,18.05,0,0,0,1.93,5.61c1.68,3.2,4.19,3.14,6.38.67s4.15-5.5,6.2-8.27c3.3-1,4.54-4.24,6.69-6.39S301,353.85,298.86,353.91Z"/><path class="cls-1" d="M19.32,291.47c.42.24.79.68,1.23.75,1.74.26,1.71-1,1.78-2.2a12.55,12.55,0,0,0,2.33-.53c1.28-.56,3.21-1.07,1.86-3s-2,0-2.91.78c-.3.28-.92.22-1.39.31h0c-.29-2.61-1.06-5.19,0-8.21a17.49,17.49,0,0,0-3.33,1.19c-3.24,2.14-6.36,5-6,8.93C13.29,293.29,17.28,290.3,19.32,291.47Z"/><path class="cls-1" d="M320.16,291.68c3.32,0,4.72-2.6,5.14-5.55.46-3.28-1.82-3.78-4.44-3.88-2.92-.08-3.73,1.67-3.8,4.35C317,289.09,317.06,291.66,320.16,291.68Z"/><path class="cls-1" d="M301.06,346.36c.09-1.63-.69-3.75-3.16-3.51s-3.13,2.06-3.41,4.15c0,2.12,1,3.58,3.22,3.52C300.25,350.46,301,348.16,301.06,346.36Z"/><path class="cls-1" d="M305.19,170.59l-.1,0s0,0,0,.06Z"/><path class="cls-1" d="M207.23,258c.2,3.05,1.78,1.24,2.94.53,1.63.83,4.53-1.12,4.59,4.15,1.29-3.56,1.18-5.11-.31-6.45.91.4,1.52,1.94,2.85.78l-.15-3.27-.53-.58c.11-.3.2-.6.29-.9a2.41,2.41,0,0,0-.54-1.62c2.41-.52,1.8-2.31,1.47-4l1.31-2c.9-1,3.3-.41,3-2.45s-2.83-2.23-4.27-3.32c-.68-.5-.76,1-1,1.72a2.63,2.63,0,0,0,.67,1.58,1.8,1.8,0,0,0-1.53.57c.29,1.45-.06,2.5-1.73,2.7-.89-4.28-5.35-7.27-3.66-12.4-2.43.56-2.92,2-2.56,3.21,1.19,4.06,1.52,7.66-2.8,10.2a2.93,2.93,0,0,0-1.07,3.58c.54,1.39,2.15.79,3,.51,2.46-.75,1.47,1.51,2.2,2.22l-5.47.55C207.21,254.51,207.11,256.19,207.23,258Zm5-5.2a13.47,13.47,0,0,0-.95,1.17,1.93,1.93,0,0,0-.12-.77h0A9.88,9.88,0,0,0,212.26,252.81Z"/><path class="cls-1" d="M89.14,98.64c.91-2.84,2.66-5.78-1.09-8C88.69,93.28,86.46,96.3,89.14,98.64Z"/><path class="cls-1" d="M149.5,211.68c1.88,0,1.79-2.13,2.32-3.43a6.31,6.31,0,0,0,.28-2.46c-.14-7.64-.18-15.29-.54-22.91-.29-6-.48-11.88,2.52-17.35.73-1.33,1.71-2.79,3.14-2.9,1.61-.12,1.72,1.67,2,2.92.21.92.75,1.61,1.6,1.66a1.51,1.51,0,0,0,1.53-1.64c-.08-2.71,1.53-3.71,3.73-3.15,2,.52,2.83,2.27,3.13,4.53.71,5.22-1,10.19-1.7,16.34,3.27-3.35,3.45-6.84,4.32-9.84,1-3.5,3.59-3.8,6.22-4.59s3.68,1.34,5,2.87a5.93,5.93,0,0,0,1.68,3.9,3.38,3.38,0,0,0-.45-4c.16-1.3.43-2.33,2.13-1.38,2.45,1.37,5.33,2.22,7.34,4,4,3.65,10.87,5.91,7.77,13.79-.58,1.5.41,3.39,2,4.24,2.29,1.25,4-.17,5.62-1.69a2.6,2.6,0,0,1,3.95.19c1.34,2,1.64,4.79,4.28,5.84-.29,1.33-1.37,1.27-2.3,1.13-3.5-.51-5.93,1-7.66,3.89a13.71,13.71,0,0,0-3.55,4.09c-1.18,2.35-.71,4.36,1.42,5.59,2,1.13,3.44-.22,4.48-1.91.75-1.24,1.1-2.85,2.93-3,1.13,2.47-1.71,4.7-.42,7.18,2.56,1.29,5.09.8,7.62-.08,1.93-2.64,2.1-5.74,2.3-8.83.43-2.16-.93-3-2.52-3.63a6.07,6.07,0,0,1,1.32-.6,14.4,14.4,0,0,0,4,5.26c2.27,3,4.68,5.95,5.88,9.51,4.94,14.79,10.94,29.37,10.41,45.42l-.3,6.85c-.08,1.44-1.48,3.18.94,4q.51-5.93,1-11.85a8.43,8.43,0,0,1,.25-1.65c1,0,.89.82.89,1.42,0,7.44.25,14.9-.18,22.31-.12,2.26-.69,5.17-4.12,6a2.68,2.68,0,0,0-1,4.87c3.31,2,2.7,5,2.15,7.39-2.29,10-6.15,19.45-10.32,28.8-1.25,2.83-3.84,4.19-6.17,5.44-1.69.91-4.07,1-4.86-2.61-.65-3,.75-5.51.42-8.3-.23-2-.37-3.94-2.76-3.89-2.74.06-2.69,2.66-2.07,4.11,2.46,5.74.77,12,2.28,17.61,1.39,5.16-1.29,7.3-3.93,10.15-4.94-12.24-6.63-25-8.49-37.7-.12-12.09-2.66-24-3.31-36a71,71,0,0,0-1.12-8.32c-.15-.92-.64-2.11-2-1.52-1.07.48-.4,1.38-.17,2.11a36,36,0,0,1,1.31,9.21c.59,11.52-.21,23.08,1.33,34.55.3,8.2-.52,16.4.19,24.63.69,8-4.46,15.2-3.87,23.32a7.36,7.36,0,0,1-1.47,5.2c-1.22,1.49-1.9,4.16-4.09,3.95s-1.08-3.1-2.1-4.54a3.88,3.88,0,0,1-.58-1.87c-.11-1.51-.95-2-2.32-1.93-1.22.07-1.49.84-1.83,1.91a11.11,11.11,0,0,0-.06,6.26c.48,2-.36,4.14-2.76,4.51-1.94.29-2-1.73-2.37-3-1-3.12-1.83-6.3-2.73-9.46-.4-2.47.34-5.07-.87-7.45h0l0-.11a5.75,5.75,0,0,0,.38-2.56l.57-3.89c.61-1.4-.61-2.07-1.2-3,.23-.64-.14-.91-.68-1.06l-.31-.95c-.56-3.62,1.27-7.44-.89-10.94v0L167.44,262l-1.68.16c-.78,11.5,1.82,22.86,1.84,34.33,0,2.47-.67,5-.07,7.38,2.46,9.81,1.39,19.75,1.36,29.66h0c0,.15-.06.29-.09.44-.7,2.3-4.09,3.92-1.77,7a.66.66,0,0,1,.09-.4l-.09.4.28,5.77c.43,1.42.54,3,1.78,4q.58,5,1.16,9.95h0c0,1.35,0,2.69,0,4h0c0,1,0,2-.05,3-.48,5.33-3.78,10.41-1.39,16-1,1.21-2.78-.47-3.69,1-2.73.38-5.5.57-8,1.91l-1.9.4a1.12,1.12,0,0,0-1.12.51c-4.32,1.29-6.92-.16-7.78-4.7-.64-3.4-1-7-2.3-10.1-2.17-5,1.32-10.41-1.66-15.19-.62-1,.24-3.11-1.76-3"/><path class="cls-1" d="M2.93,282.47c1.4-11,2.93-22,5.2-32.76.07-.32.13-.64.19-1,1-2.62,1.95-5.22,1.92-8.07.33-1,.67-2,1-3a7.32,7.32,0,0,0,1.75-4c3.23-7.23,5.42-15,10-21.55,13.21-19,29.61-34.53,50-45.72,7.27-4,14.7-7.64,23.08-8.73,2.8-.36,4.1-.05,4.59,3.62a101.88,101.88,0,0,1,.39,12.32c0,3.72.21,7.25,2.92,10.13.68,2.37-.32,5,1.11,7.25h0c.46,6.54-1,13.11.29,19.64-.14.93.07,1.74,1.15,1.76,1.49,0,1.88-1.12,2.1-2.32.65-3.63.92-7.26-.29-10.85h0l.18-.3-.23-.26a12.28,12.28,0,0,0-.8-5.7,2.15,2.15,0,0,0-.22-.46c-.33-8.52-.86-17-.91-25.55,0-3.18-1-8.1,5.41-6.31a2.63,2.63,0,0,0,2.64-1.05c1.84-2.2,3.57-1.07,5,.32,2.29,2.18,3.49,4.72,1.73,7.9-1.6,2.87-.2,3.91,2.59,4,1.81,3.07-2.32,6.34.33,9.38h0l.17,6.47c-.84,2.47-1.46,5-.17,7.47h0c1.44,4.07.77,8.37,1.3,12.54.28,2.95.75,5.9.79,8.85.21,12.44-.57,24.91,1.09,37.31.16,1.22-.57,3.2,1.29,3.22,2.09,0,1.7-2.06,1.66-3.48-.08-2.49-.67-5-.39-7.46,1.08-9.44-2.62-18.72-.77-28.16-1-2,1.34-4.38-.75-6.21a3.67,3.67,0,0,0,1-1.32c-.13,2.19-.77,4.59,2.86,5.16,1.8-2.66.44-5.29-.11-7.92l0-1c-.26-1.66-.53-3.33-.79-5l-.15-2c.12-1.81.36-3.63-.79-5.25h0a.45.45,0,0,0-.11-.74c-.1-2.3.18-4.64-.66-6.84a3.86,3.86,0,0,0-.2-.51c-.86-4.55.28-9.1-.1-13.65h0c0-.34,0-.67-.05-1h0c.12-2.48,0-5,.39-7.43.78-5.34,4.23-6.51,8.84-3.76,4.3,2.56,5.53,6.59,5.51,10.79-.07,12.33,3.61,24.29,3.39,36.62,0,1.53,0,3.73,2.24,3.76"/><path class="cls-1" d="M193.37,108.94c-1.1-3.86-6-6.84-2.9-11.78.35-.56-.1-1.6-.18-2.42h0c1-3,2.1-6,3.11-9,.36-1.07.9-2.46-.66-2.87s-2.37.81-2.53,2.23c-.37,3.21-.64,6.44-.94,9.66-.86,3.42-2.86,6.46-3.29,10.05-.11,1-.53,2.42-1.83,2.62s-2.08-.67-2.72-1.73c-.48-.81.39-2.74-1.63-2.27a2.84,2.84,0,0,0-2,2.6c-.36,3.36-7-1.37-10-2.46-1.51-.55-1.05-2.69-.31-3.43,2.84-2.84,2.2-6.45,2.43-9.78.31-4.29,2.53-8.59.35-13.7a10.62,10.62,0,0,0-3.15,7c-.84,8-2.63,15.57-8.07,21.82-1.86-.57-6,2-4.28-3.48.59-1.84-1.47-1.88-2.65-1.17-1.67,1-3.12,2.35-4.71,3.49-3.12,2.24-7.55,1.47-9.22-1.55.17-1.92-.33-3.35-2.45-3.63,1-1.79-.06-3.57-.37-5.35-.8-1.08-.4-4.06-3.19-2-2.36,2.77-1.12,5.9-1,8.91a3.14,3.14,0,0,0-1-1.22l-.13,0a14.42,14.42,0,0,0-2-10.66l0,.06c-1-1.25.52-2.94-.73-4.14-1.55-2.85-1.26-5.93-1.14-9,.8-1.55.44-3.22.51-4.85.42-8.92-2.21-17.43-3.39-26.14,0-.35-.09-.7-.14-1.05-1.44-2.52.63-5.44-.89-7.95,0-.67,0-1.34,0-2a18,18,0,0,0-.94-12L121.06,16c-.46-3.75-.07-7.54-.73-11.28-.7-1.44.63-4.43-2-4.16-1.72.17-.84,2.85-1,4.41a27.62,27.62,0,0,0,.33,3c.33,8.75,1.35,17.55.73,26.23-.7,9.75,1,19.37.33,29.08-.41,5.92,3.34,12.11-1.35,17.8-.41.5-.13,2.11.38,2.78,4.88,6.27,4.32,13.66,4.5,20.91-2.75,4-9.07,4.47-12,.91h0l-1.34-3.9c-.62-9.87-1.3-19.74-1.79-29.62a24.66,24.66,0,0,0-1.17-7.3c-.4-1.12-.69-2.3-2.24-2.14-2,.2-1.69,1.69-1.61,3,.16,3,.18,5.94.46,8.92.84,8.69,1.87,17.42.52,26.16-.12,1.82-.13,3.65-.38,5.45-.85,6.11-2.18,11.39-8.52,15-6.13,3.53-12.73,6.08-18.65,10.06-15.49,10.42-29.53,22.18-41.78,36.47C16.13,188.36,6.51,212.07,3,238.63a3.28,3.28,0,0,0-.65,3.05l-.24,3.78a4.8,4.8,0,0,0-.34,2.35C.13,259.39-.32,270.94,2.93,282.47"/><path class="cls-1" d="M18.92,329.67c-1.46,8.77,13.69,32,28.14,45.25a3,3,0,0,0,2,1.81l5,4.19c6.56,7.6,14.71,13.1,23.42,17.91,1.87,1,5.07,1.12,4.11,5-1.62,6.58-2.86,13.26-4.24,19.91-.21,1-1.36,2.35.35,2.93s1.92-1.13,2.19-2.09A93.69,93.69,0,0,0,83,409.53c.62-5.63,2-6.36,7.15-4.36,11.08,4.33,21.76,9.77,33.67,11.75,3.85.63,5.54,3.09,5.38,7-.12,3,0,6.06,0,9.68,3-1.88,1.25-4.54,2.47-6.3a7.37,7.37,0,0,1,1.45,5.55c-.65,9.94.67,19.85.28,29.83-.52,13.29-.27,26.62-1.51,39.89a56.6,56.6,0,0,0-.38,8.91c.11,1.65.5,4,2.77,4.17,2,.15,3.94-1.37,3.65-3.27-.59-3.79.68-7.53-.35-11.31-1.36-5-2.08-10.29-1.15-15.32,1.79-9.72,1.3-19.5,1.75-29.25a139.63,139.63,0,0,1,3.75-26.6c.67-2.75,1.85-4.77,5-5.08v8.75c0,1.42-.59,3.29,1.72,3.37s2.4-1.78,2.39-3.52c0-2,0-4,0-6,0-.87-.39-2.23,1.16-2.2,3.35.07,6.93-.23,7.8,4.41.64,3.38,2.71,6.42,2.32,10.05.62,7-.36,14.2,1.72,21.11h0c-.28,12.24.94,24.45.1,36.72-.5,7.28-1.22,14.61-.12,22,.85,5.66.74,11.46,1.05,17.2-1.91,5.62-.73,11.48-1.34,17.2.59,5.83-1.73,11.61-.64,17.37a25.54,25.54,0,0,1-.29,10.81,29.67,29.67,0,0,0,0,6.32c.26,3.78-1.27,7.8,1.44,11.27l2,5a2.82,2.82,0,0,0,4-.14.91.91,0,0,1,.82-.28,1.28,1.28,0,0,0,.3-1.29c0-1.77,1.32-3.33.9-5.17.35-9.19.51-18.39.33-27.6a11.65,11.65,0,0,0-.36-2.63A85.53,85.53,0,0,1,172,547c.33-1.79-.44-3.5-.38-5.26-.9-6-.8-12-1.28-18l0-2h0c1-.85,1-2,1-3.17q-.09-12.55-.21-25.11h0c-.27-4.94-.87-9.89-.71-14.82.21-6-1-12.08.79-18,3.15.32,3.45-1.48,2.92-3.91a34.32,34.32,0,0,0-.84-11c.58-5.26-.39-10.62,1.87-15.79,1.76-4,5.14-6.37,8.06-9.56,1.27,4.74,3.39,9.13,2.15,14.13-.37,1.48-.27,3.26,1.91,3.21,1.75,0,1.94-1.58,1.86-3-.14-2.14-.38-4.28-.59-6.43-.18-1.81-.58-3.62.37-5.36s2.69-1.79,2.86-.25c.52,4.72,4.35,8.15,4.44,13s.78,9.6,1,14.41c.34,9.29.51,18.59.76,27.88.06,1.94.51,3.94,2.8,3.93,2.13,0,2.44-2.05,2.37-3.71-.36-7.89-.46-15.91-1.26-23.63-1.13-10.9.45-21.47.7-32.17.06-2.77.08-6.39,3.31-8.42,3,5.1-.31,11.53,3.88,16.19,3.85-2.91,1.37-6.7,1.26-10.06-.16-5.29,2.1-10.69,6.54-12.14,7.48-2.44,13.87-6.94,20.87-10.27a44,44,0,0,0,8.95-5.49c5.72-4.67,11.16-9.7,16.71-14.58,1.68-1.16,4.19-3.06,4-4.35,3.34-3.45,6.57-7,10-10.34a83.6,83.6,0,0,0,21.19-33.11c3.87-11.25,8.31-22.49,10.17-34.51s3.44-24.25,3-36.55c4.23-2,1.62-3.91,0-5.85l0-.26-.25-.09c2.18-1.94.61-3.91,0-5.86a194.29,194.29,0,0,0-7.71-35.18c-4.58-13.77-12.55-25.76-20.18-37.9a126.24,126.24,0,0,0-17.64-22.26c-5.88-5.89-13-10.42-18.39-16.8-1-.33-2.06-.38-3.07-.64-4.59-1.59-7.73-5.42-11.87-7.68-11.3-6.19-23.82-9.38-35.6-14.39-1.72-.73-3.78-1.15-4.29-2.92"/><path class="cls-1" d="M140.65,354.56c-1.75.1-1.87,1.93-2.49,3.28-1.64,3.52.5,7.58-1.76,11a3,3,0,0,0-1.16,1.53c-.92,2.91.47,5.48,1.1,8.18,1.59,6.87-1,10.3-7.29,9.61a3.79,3.79,0,0,0,2.34-2.06c1.27-2.4,0-3.91-1.93-5.34s-4.22-2.57-3.18-5.62a10.28,10.28,0,0,0,.88-7.4c-2.34-4.37-3.18-4.59-7.85-2.07l-3.12-3.12c.65-.73,2-1.63,1.82-2.15-.45-1.71,3.66-1.17,1.54-3s-1.71,1.19-2.59,1.82c-.63.44-1.81,1.45-1.81,1,0-3.87-5.62,1-5.24-3.35,0-.1-1.43.46-1,1.43,1.63,3.48-.77,5.91-2.7,8.75l3-.35h0c2.46,1.24,3.5,4.24,5.27,5.45,3,2,1.18,4.08,1.56,6,.57,3-1.81,2.93-3.69,3.3-.32,2.84,1.82,4,3.7,5.41.13.1.27.19.41.28a9.11,9.11,0,0,1-1.34-.35c-10.43-2.38-20.93-4.42-31.33-6.94-1-.14-2.05.22-2.76-.77-2.5-5,4-.54,3.35-4.18-3.18,2.06-7-1.41-10.21,1.72-2.28.09-4.07-1.19-6-2.11.21-4.09-2.44-1.78-4-1.8l-9.28-4c-.37-1.37-1.73-1.44-2.67-2a29.16,29.16,0,0,1-2.05-5.46c-.93-3-1.55-.24-2.23.46-1.07-1.13-1.55-3.49-3.93-1.88-10.74-7.45-18.54-17.52-25.07-30.11"/><path class="cls-1" d="M293.14,173.9l.07-.06,0,0Z"/><path class="cls-1" d="M293.21,173.84c-1,2.12.85,2.83,2,3.91L298,175.2a1.87,1.87,0,0,0,.22.07,2.29,2.29,0,0,0,.89-.26c.38,1.17.77,2.33,1.15,3.5,2.75-2.31,1.07-4.55-.11-6.79.63-2.34.65-2.36,2.23-1.2.93.68,1.83.22,2.74.09a4.83,4.83,0,0,0-4.14-4c-1.05-.18-2.31.87-3.48,1.36,1.17,2.32-1.23,4.42-.42,6.72C295.59,175.32,294.81,172.51,293.21,173.84Z"/><path class="cls-1" d="M83.21,91.77c1,.5,1.4,2.17,2.92,1.43a1.59,1.59,0,0,0,.73-2.35c-1.27.18-2.86-1.09-3.74.79-1.94.17-5.49-1.18-3,3.21C82.11,94.72,83.44,94,83.21,91.77Z"/><path class="cls-1" d="M42.65,108.78c1.15-2.17-.54-3.42-1.51-4.82C39.77,106.14,40.37,107.66,42.65,108.78Z"/><path class="cls-1" d="M213.53,230.41a1.36,1.36,0,0,0-.26-1.27c-1.64-.84-2.45.86-3.65,1.49C211,230.45,212.49,232,213.53,230.41Z"/><path class="cls-1" d="M85.16,105.65c2.1-.25,1-1.79.9-2.92l-2.62.08C83.33,104.18,82.8,105.94,85.16,105.65Z"/><path class="cls-1" d="M52.27,103.55c-.43-.24-1.21.16-1.83.26l1.92,4.89C53,105.91,54.06,104.51,52.27,103.55Z"/><path class="cls-1" d="M59.26,393.25c1.54.25,3.25,1.2,4.48-.51a.9.9,0,0,0-.23-.86C61.73,390.89,60.91,393.34,59.26,393.25Z"/><path class="cls-1" d="M151.79,355.39c-.19.85,0,1.67.88,2,1.13.36,1.35-.49,1.46-1.33s-.66-1.39-1.23-1.93C152.11,354.17,151.93,354.79,151.79,355.39Z"/><path class="cls-1" d="M158.88,347.67c.71-.19.78-.53.21-1l-2-3c-1.29,0-1.44,1.21-2,2-.11,1,.11,1.66.73,1.93a2.76,2.76,0,0,0,.38,2l1.83.57A2.89,2.89,0,0,1,158.88,347.67Z"/><path class="cls-1" d="M36.79,105.92a1.45,1.45,0,0,0,1.41-1.66,1.06,1.06,0,0,0-1.29-1.07c-.8.13-1.56.54-1.47,1.6A1.23,1.23,0,0,0,36.79,105.92Z"/><path class="cls-1" d="M208.91,228.2a7.69,7.69,0,0,0-.63-1.17c-1.05.4-2.07.89-3.1,1.37l.42,1.16Z"/><path class="cls-1" d="M293.23,173.81l-.09,0v.11Z"/><path class="cls-1" d="M293.14,173.79l-.06-3.18c-.79.42-2.29-.44-2.36,1.26S292,173.56,293.14,173.79Z"/><path class="cls-1" d="M293.18,170.5l-.09-.07h0v.19l.1-.05Z"/><path class="cls-1" d="M295.64,169.86c.28-.8-.06-1.48-.64-1.54-1.51-.14-1.74,1-1.82,2.18C294.23,171.33,295.08,171.45,295.64,169.86Z"/><path class="cls-1" d="M44.2,116.16c.87.78,1.62,1.29,2-.37,2.74-.74,3.49-3,4-5.37.43-1.94-1.63-.9-2.18-1.71L46,103.89c.48,2-4.07,4.31.18,5.82-.17,1.48,1.13,3.3-1,4.34-.6-.18-1.25-.66-1.75.13C42.76,115.17,43.59,115.61,44.2,116.16Z"/><path class="cls-1" d="M34.58,99A4.71,4.71,0,0,0,31,94.75C31.39,97.07,32.12,98.26,34.58,99Z"/><path class="cls-1" d="M89.21,99.52c-2.48-.09-2,1.45-1.64,3C90.05,102.57,89.57,101,89.21,99.52Z"/><path class="cls-1" d="M81.12,101.68c.17-1.54.81-3.38-2-3C79.26,100,79,101.64,81.12,101.68Z"/><path class="cls-1" d="M37.58,101.45c.37-.06.59-1,.75-1.34-.09-1-.36-1.58-1.21-1.53S36,99.29,36.06,100C36.08,100.89,36.64,101.62,37.58,101.45Z"/><path class="cls-1" d="M154.16,346.77c-2.43-.19-2.08,1.38-1.84,2.89l1.78,0Z"/><path class="cls-1" d="M37.45,350.37c-.35-.68-1-1.69-1.56-.53s.67,1.8,2.36,2.51C37.8,351.22,37.67,350.78,37.45,350.37Z"/><path class="cls-1" d="M181.79,245.83c.66-.13,1.22-.54,1.05-1.31s-.75-.92-1.44-.93a1.06,1.06,0,0,0-1,1.32A1.07,1.07,0,0,0,181.79,245.83Z"/><path class="cls-1" d="M304.79,176.61c1.1.56,1.43-.81,1.5-1.81l-1.21-1.2C304,174.54,303.17,175.79,304.79,176.61Z"/><path class="cls-1" d="M300,162.65c-2.27.2-3,1-2.44,2.92C298.49,164.73,299.82,164.5,300,162.65Z"/><path class="cls-1" d="M252.77,134.87c.69-.32,1.33-.6,1.24-1.38a.9.9,0,0,0-1.33-.82,2.82,2.82,0,0,0-1,1.51C251.69,134.26,252.42,134.65,252.77,134.87Z"/><path class="cls-1" d="M54.28,122.11c1,.22.91-.64,1-1.16s0-1.31-.82-1.38-1.05.48-1.13,1.16A1.28,1.28,0,0,0,54.28,122.11Z"/><path class="cls-1" d="M75.43,108.2c.94.37.78-.68,1.1-1.14-.34-.48-.19-1.44-1.14-1.21-.33.08-.84.63-.79.86C74.71,107.26,75,108,75.43,108.2Z"/><path class="cls-1" d="M150.18,345.86c.59.07,1.43,0,1.31-.84-.07-.53-.6-1-.83-1.35-1,0-1.64.05-1.67.91A1.22,1.22,0,0,0,150.18,345.86Z"/><path class="cls-1" d="M147.83,351.26a7.62,7.62,0,0,0,1.08,1.49l1.18-1.08c-.06-1.26-.64-1.49-1.35-1.27C148.37,350.52,147.77,351.12,147.83,351.26Z"/><path class="cls-1" d="M285.77,167.37c.36-.46.86-.82.84-1.16a1.29,1.29,0,0,0-.83-.94.87.87,0,0,0-1,1.13C284.85,166.75,285.36,167,285.77,167.37Z"/><path class="cls-1" d="M107.62,375.52c-1.59.3-4-.76-4.34,2s2.16,3.34,3.82,4.59c2,1.52,3.53.37,5.13-.64l-.42-2.31C111.38,376.79,110.43,375,107.62,375.52Z"/><path class="cls-1" d="M112.23,381.42v.06h0l.1,0a.41.41,0,0,1,0-.11A.57.57,0,0,0,112.23,381.42Z"/><path class="cls-1" d="M84.3,97.29a1.45,1.45,0,0,0,.84-1c0-.32-.42-.71-.74-1.2-.48.44-1,.7-1.11,1.07C83.16,96.79,83.41,97.52,84.3,97.29Z"/></g></g></svg>