<svg xmlns="http://www.w3.org/2000/svg" viewBox="0 0 472.99 279.12"><defs><style>path{fill:none;stroke-miterlimit:10;stroke:#fff;stroke-width: 1px;stroke-dasharray: 1050px;stroke-dashoffset: 1050px;display:'none';-webkit-animation: svgAnim 20s ease-in-out 17s 1 both ;animation: svgAnim 20s ease-in-out 17s 1 both ;}@-webkit-keyframes svgAnim
{
	0% {stroke-dashoffset:1050px;}
	50% {stroke-dashoffset:0;}
	100% {stroke-dashoffset:1050px;}
}@keyframes svgAnim
{
	0% {stroke-dashoffset:1050px;}
	50% {stroke-dashoffset:0;}
	100% {stroke-dashoffset:1050px;}
}</style></defs><title>Asset 5</title><g id="Layer_2" data-name="Layer 2"><g id="Layer_1-2" data-name="Layer 1"><path class="cls-1" d="M65.87,139.13l.91,4.88c-1.91,0-1.41-2.2-3.21-2.5,2,8.68,8.34,14.14,13.53,20.51-3.79-.21-4.74-4.34-8.3-6l3.77,7.8c-3.66-1.51-4-5.44-6.85-8-.09,10.84,8.5,14.81,15.76,20.45-3.06.72-3.89-1.85-5.72-1.64-.94,1.19,1.09,2.3.06,3.94-3.24-3.08-4.26-7.64-8.37-10.46.24,5.38,3.53,8.6,5.76,11.91-.52,1.9-1.76.51-2.59,1.27,2.62,4.88,8.74,6.11,12.35,11.28-3.14-.32-4.32-2.77-6.63-2.69-1.14,1.65,2,2.54.71,4.59-4.68-2.14-4.16-8.24-8.44-11.42.52,4.66,2.58,8,5.14,11.65-4.86-1-4.12-5.73-6.69-7.76-.68,11.18,7.26,16.41,15,21.72,1.57,1.07,3.8,1.17,4.76,3.13-.93,1.75-2.12-.41-3.07.35-.56,1.48,2.26,1.61,1.21,3.44-2.42.48-2.81-2.41-4.59-3-.68.63.85,1.61-1,2.25-3.44-1.67-3.58-6.37-6.63-9.11-.51,3.12,2.29,5.09,2.32,8.89-3.84-3.78-4.35-8.61-7-12.3-.93,2.19.81,4.14-.16,6.08-2.56-.71-1.37-3.92-3.37-5.23-2.71,12.73,8.12,19.39,13.17,28.89-3.32.65-4-1.29-4.81-2.78s-.68-3.28-2.74-3.77c-1.18,2.9,2.71,4.58,1.64,7.72-2.34-.94-1.78-3.89-3.81-5-1.13,1.92,1.48,4-.16,5.86-2.37-.8-.44-3.5-2.62-5a77.45,77.45,0,0,0-.4,14.24c4.36,2,10.26-1.32,13.43,4.44C74,246,69.52,246.71,65,246.54c-.65,2.78-1.45,5.37,1.25,6.65-3.08,5.79-1,11.84-1.63,17.45,1.8,1.2,1.82-2,3.38-1-1.32,5.23-1.65,5.4-10.78,5.29,3.79-4.19-.08-7.6-1.24-12,4,1.44,3.82,5.16,5.86,7.94v-13.3c-1.27-1.43-3,.64-3.91-1.77,4-.61,4-3.76,3.68-6.71-.5-4.58,1-9.34-1.41-13.87-.37-.69,1.74-3.19.44-5.52-2.4,2.25-1.84,6.19-4.9,7.89-1.35-1.87,1.59-3,.2-4.68-2.35,1.57-2.35,4.91-4.71,6.69-.68-4.45.31-7.86,4-10.4,8.29-5.78,5.18-14.14,4.73-21.87a20,20,0,0,0-.61-2.75c-2,3.12-1.7,6.81-3.56,9.61l-1.13-.24,2.58-11.78-1.07-.31c-2.27,5.46-2.87,11.6-6.11,16.77-1.39.16-.62-1.69-1.69-2-1.63.51-1.47,2.87-3.53,3.45.59-2.94,2.9-5.3,2.45-8.89-3.5,4.44-5.57,9.37-9.93,13.53-.11-3.41,3-4.81,3-7.66-2.77.42-4.67,2.7-7.26,2.77-.74-1.38.34-1.64,1-1.93,9.5-4.44,15.9-12.4,22.79-19.84,3.83-4.13,4.48-9,3.62-14.87-2.08,2.5-1.16,5.83-3.79,8.05l1.18-10.45-1.17-.36c-2.34,5.22-3.48,11.11-8.13,16.22.63-4,3.09-6.41,3-9.76-4.66,5.16-5.12,13.82-13.44,15.41-.25-2,2.42-3.57,2.51-6.77-2.72,1.8-4.3,4.6-7.17,5.62-.61-2.11,1.06-2.5,1.86-3.4,5.91-6.56,13.9-10.85,19.43-17.83,1.43-1.81,3.48-2.95,1.8-6.28-1-2,2-5,1.54-8.12-1.46,6.28-5.3,10.54-10.76,13.46-1.36-.67.74-1.8-.56-2.66l-3.75,2.86-.8-.65c7-7.21,15.32-13.45,18-24.15-4.55.06-3.7,4.41-6.21,6.33-2.79-2.39-4.19,2-8,2.27,5.14-6.79,11.83-11.53,13.22-19.73-2.09.28-2.13,3.19-4.38,2.9-1.05-1.27,1.61-2.22.31-3.51-1.83.49-2.19,3.4-5.21,2.82,5.14-7.19,10-14.24,10.82-24,4.19,3.73,2.56,8.78,5.06,12.29,2.37,3.33,4.79,6.67,7.54,10.65C69.42,144.12,69,140.35,65.87,139.13Z"/><path class="cls-1" d="M401.16,181.58c-2.85,1.78-3.41,5.36-6.29,7.5-.37-4,3.94-5.63,4.4-9.7-2.85,2.55-4.49,5.32-8.22,7.65,3.65-6.92,9.85-11.11,10.78-18.31-1.54,2.66-5.27,3.14-5.49,6.51-2.41-.48-.76-2.24-1.91-3.07-.95.77-1.92,1.58-2.83,2.33-.9-.53-.49-.93-.2-1.28,3.37-4.11,7.35-7.68,10.41-12.09a7,7,0,0,0,1.3-6.5c-2,1.72-4.4,1.94-7.86,2.19,6.1-4.91,5.82-12.46,10.51-17.69A19.92,19.92,0,0,0,411.53,153c-8.22,8.9-.57,14.47,4.66,21-3.14-.06-4.16-2.38-6.25-3.24-.65,1.9,1.44,3.23,1.08,5.29-2-.91-1.92-3.65-4-4.13-1.17,6-.15,7.59,13.38,21.24-2.18,3-4.13-4.76-6.44.06L411,189.65c-1.17,1.82.08,3.36,0,5.07-1.81-1.45-1.39-3.95-3.27-5.13,1.78,10.67,10.3,16.54,17.66,23.77-2.36.61-3.52-1-4.83-1.88-1.49-1-2.82-2.27-4.16-3.38-1.58.72.73,1.86-.59,2.59-2.47-1.42-2.18-5-5.11-6.53.54,4.13,2.69,7.42,3.9,11.24-2.29-3.4-5.26-6-8.74-8.8.86,6,4,10.36,7.84,14.45,3.65,3.91,8.82,6.17,11.88,10.75-4.44-1.34-8.59-3-11.43-8.23-.34,4,2.07,5.62,3.22,8.28-2.53-.35-3.25-2-4.21-3.71s-1.17-3.79-3.07-5.11c-1,2.11.29,4,.11,6.08-2.6-.94-.84-4.05-3-4.84-1.47,9.4-1.44,9.56,3.21,14.14-.25.89-.85.81-1.53.59s-1.22-.38-1.44-.45c-2.55,8.57-.72,15.07,10.1,17.33-3.09.86-4.86.3-10.82-2.61-1.23,5.84-.72,11.46.17,17.92,4.43-1.95,8.92.23,13.16-1.76a3.67,3.67,0,0,1,2.9-.09c5.83,3.37,11.79,2,17.75.69a4.8,4.8,0,0,1,5.12,1.61c-7.73.45-14.63,4.48-21.82.16a3.22,3.22,0,0,0-2.88-.39c-5.83,2.28-12,.67-17.05,1.84-.58-9.5,0-18.79.28-28-3.59-1.57-4.12,4-7.83,2.61,2.68-3.26,7.66-4.56,7.85-9.41.15-4,0-7.93,0-12.71-3,3-1.76,6.38-3.64,9.86a17.09,17.09,0,0,1,.83-10.24c-2.86,1.9-2.32,5.37-4,7.63-1.5-.57-1-1.86-1.38-2.68-1.7.44-1.3,2.76-3,3.09-1.4-.62-.05-1.74-.46-2.63-2.07.79-2.05,3.61-4.13,4.43-1.43-1.46.57-2.38.38-4.11l-8.4,4.19c1-2.89,3.24-3.69,5.12-4.82,6.33-3.78,12.18-8.05,16.31-14.38,1.57-2.42,2.39-4.69,1.24-7.71-2.37,2.14-2.21,5.45-4,8.27-1.56-2,.08-3.4.15-4.81.08-1.62,1.65-3,.75-5.07-2.09,4.32-2.44,9.28-6.39,13-.71-2.93,2.05-4.32,1.61-6.8-2.77,1.86-3,5.18-5,7.38-1.48-.5-.14-2.11-1.23-2.89-2.82,1.18-4.61,4-7.89,5,1.65-1.77,3.17-3.69,5-5.3,3.49-3.1,6.55-6.63,9.9-9.85s3.59-6.94,3.4-11.8l-7.38,8.67c.57-2.84,3.14-4.45,3.49-7.31l-10.73,5.82a8.1,8.1,0,0,1,4.36-4.43c4.34-1.74,7.29-5.12,10.49-8.28C402.25,187.47,403.08,184.88,401.16,181.58Z"/><path class="cls-1" d="M250.13,272c5.77-13.64,10.73-27.41,11.91-42.58-8.92,19.32-22.54,34.31-40.33,45.55-.57.36-1.27.37-2.51-1,22.24-14.12,38.57-32.82,43.94-60a129.14,129.14,0,0,0,18.49,9.87,166.21,166.21,0,0,0,32.42,9.75c9.28,1.92,18.57,3.79,27.89,5.45a5.32,5.32,0,0,1,4,3.22q3.43,6.36,6.92,12.7c3.85,7,9.45,12.42,15.28,17.66a16.61,16.61,0,0,0,2.38,1.52c2.3-2.09.67-5.13,2.51-7.16l.92,1.85c2.2-3,1.22-6.43,3.57-9.4v13c1.12-3.8,1.66-7.67,4.33-11-.27,2.09-.54,4.19-.79,6.11,3.39,3.85,7,7.3,12.9,6.25-2.1,2.16-4.42,2-6.55,1.44-1.8-.45-3.75-1.26-5.36-.68-6.3,2.24-13,.41-19.32,2.42a8.57,8.57,0,0,1-5.87-.57c-5.21-2.08-10.4-2.5-16.06.09.49-3.26,2.48-3.68,4.4-3.93a20.1,20.1,0,0,1,11.24,1.26c2.4,1.09,5,2,7.54-.1.4-1.66-.93-2.45-1.81-3.26-7.63-7-12.22-16.14-17.05-25.06a7.17,7.17,0,0,0-5.55-4.19c-12.25-2.31-24.47-4.81-36.63-7.59-12.37-2.83-24.05-7.65-35.7-13.32,7.64,19.52,17.64,37.49,32.53,51.9,2.18.63,2.36-1.64,3.69-1.7.32.34.75.66.7.76-1.86,4.22-3.42,4.62-6.94,1.42-9.11-8.28-15.7-18.47-21.68-29.09-3.16-5.61-6.16-11.31-9.74-17.92C263.31,242.6,259.36,258.26,250.13,272Z"/><path class="cls-1" d="M466.59,221.68c-2.37.07-3.44-1.63-5-2.52-1.49.18,0,1.33-.88,1.82-2.77,0-2.55-3.39-4.62-4.78-.68,2.91,1.58,5.25,1.28,7.88-.36,3.26,1.85,5.22,3.55,7.38s3.76,4.12,6.06,6.58c-5.84,1-8.56-2.08-10.72-6.18-1.66,2,.5,3.62,0,5.32-2.06-.31-.82-2.78-2.56-3.61a14.3,14.3,0,0,0,2.29,9.84c1.74,2.87,4.26,5.27,6.13,8.17-3.35-.17-3.88-3.51-6-5.05-1.42.81.47,2.12-.34,3.07-1.44-.1-1.19-2-2.5-2.26-.74.71-2.21,1.25-1.72,2.52,2,5.15-.37,10.36.4,15.51.34,2.33-.53,4.9,2,6.55-2.05,1.24-3.43.37-5.33.44,1.58-3.79,1-7.36,1.1-10.55-1.09-1.54-2.5.45-3.31-.92,5.1-5.63,5.14-7.79.25-10.14-.68-1.52,1.16-2.79.25-4.58-2.81,1.47-1.52,5.67-4.94,7.17.08-3.63,2.92-5.87,3-9.31-2.45.34-2.87,3.07-6,4.36,3.76-5.39,8.88-9.27,7-15.8-1.56,2.56-2.72.3-4.1-.47,2.51-4.48,6.93-8,7.35-13.6-1.56,1.86-2.61,4.22-5.34,4.15-2.15-4.69.86-7.52,3.67-10.46,2.15-2.25,3.91-4.71,3.31-9.16l-5.22,6.48c.22-3.09.9-5.52-1.39-7.38-1.35-1.1.37-2,.94-2.72,2.3-3,4.55-6,5.85-9.65-2.48-1.13-2.41,2.1-5.2,2,3-4.18,3.25-9.23,7.65-13,1.94,5.24,3.27,10.53,7.76,14.08-2.47.13-4-1.78-6.8-1.75.84,5.16,4.6,8.55,7.29,12.51-1.32.77-1.68-.61-2.6-.67a3.36,3.36,0,0,1-3,1.84C454.76,213.36,462.4,216.42,466.59,221.68Z"/><path class="cls-1" d="M204.19,72.63C214,83,225.14,86.19,235.41,79.57c15.33-9.88,15-22.58,4.12-36.43,4.44,2.17,7.2,5.65,10.28,8.63,9.25,9,7.75,19,2.18,29.18-4.82,8.76-12.75,12.82-22.45,13.48a23.61,23.61,0,0,1-20-8.05A23.06,23.06,0,0,1,204.19,72.63ZM250.08,56C249.44,78,233.58,91.27,209,81.39c4.82,7.58,11.33,10.6,19,10.75,9,.18,16.8-3.55,21.35-11.34C253.85,73.18,256.89,64.78,250.08,56Z"/><path class="cls-1" d="M188.39,138.87c7.89,5.25,14.7,2.56,22.19-2.13-1.4,4.58-4.41,6.94-5,10.57-.69,4.45,3.54,6,5.34,9.42-3.81.7-6.5-3.14-10.15-1.26-3.06,1.57-2.66,6.27-7.45,7,1-4.48,1.81-8.57,1.14-12.85S188.87,143.87,188.39,138.87Zm15.17,12.39c-1-2.25.53-4.56-.66-6.6-7.07.27-7.07.27-4.64,9.32Z"/><path class="cls-1" d="M343.72,165.15c-7.61-1.61-14.52-2.8-18.3,6.43,1.05-7.82,3.09-15.37-3.73-21.2,2.25-1.53,3.39-.85,4.59.3,3.92,3.75,6.47,3.64,10.31-.24.88-.89,1.15-2.46,3.46-2.73C338.84,154,338.8,160,343.72,165.15Zm-6.44-4.05c-.31-2.42-.58-4.51-.87-6.78l-7.55,2.86c.4,1.74.09,3.47,1.32,4.72Z"/><path class="cls-1" d="M360.83,74.92c-.25-13.54-.25-13.54-9.55-16.29-.45-2.16.91-3.38,2.65-3.08,7.34,1.26,9.73-3.24,11.2-9.06a2,2,0,0,1,1.5-1.55c1.94,2.87-.39,6.51,1.4,9.35s5.46,3.36,8,5.93c-3.16,2.2-7.49,1-9.85,4.38C364.09,67.54,364.27,71.59,360.83,74.92Zm-1.08-16c2,1.22,2.18,3.43,3.65,4.75l4.75-4.57c-1.1-1.61-2.18-3.18-3.25-4.76A12.2,12.2,0,0,0,359.75,58.89Z"/><path class="cls-1" d="M327,73.49c.73,6.78,3.07,11.82,11.47,11.81-2.79,3.35-6.41,3.41-8.3,6s-1,6.22-4,9.52c-2.07-7.08-5-13.12-13.42-13.9,3.66-3.44,8-.28,10.72-3.62C325.69,80.48,324.87,76.75,327,73.49Zm3.61,13.07-4.5-3.84c0,3.16-3,3.14-3.95,5.16,1.34,1.59,2.28,3.37,4.09,4.4Z"/><path class="cls-1" d="M61.21,77.1c-.74-6.36-.54-12.69-8.9-14.08,1.88-4.19,6.23-1.18,8.61-3.52S64,54.3,66,51.1c.89,3.41.8,6.27,2.67,8.57s5.1,2.44,7.08,6C67.51,65.44,64.58,71.29,61.21,77.1ZM65.15,59c-1.48,2.26-3.39,3.24-5.05,4.48.92,2,1.36,3.94,2.94,5.24l5.84-5C67.8,62.32,66.7,60.94,65.15,59Z"/><path class="cls-1" d="M9.43,264.15A4.22,4.22,0,0,1,13,265.59a4.77,4.77,0,0,0,4.36,1.62c3.36-.28,5.86,3.8,4.59,6.9-.83,2-2.61,3.3-4.24,1.84-2.37-2.14-4.22-.7-6.31-.07-.63.19-1.23.5-1.85.71-4.11,1.41-7.86.18-8.83-2.88s2.3-8.23,5.81-9C7.47,264.52,8.45,264.34,9.43,264.15ZM3.33,274.4c2.72,1.09,4.72,0,6.79-.24,2.74-.29,4.09-1.85,3.23-4.29-.73-2.09-2.18-3.78-5.22-3.08C3.87,267.78,3.56,270.75,3.33,274.4Z"/><path class="cls-1" d="M324,257.25c-9.71,5.61-22.6-4.84-27.91-13.5C304.74,249.43,311.31,259.55,324,257.25Z"/><path class="cls-1" d="M32.57,265.68c1.2-3.76-.29-7.88,2.28-11.41-.63,6.79.91,13.73-2.16,21.69-2.76-6-2.3-12.27-7.09-16.15,4.32.05,4.37,4.24,6.67,6.13A2.7,2.7,0,0,0,32.57,265.68Z"/><path class="cls-1" d="M280.3,272.16c-1.31,2.11-3.08,4-5.44,3.34-6-1.77-12.13-1-18.19-1.43a1.76,1.76,0,0,1-1.3-1C263.52,269.9,272,274.5,280.3,272.16Z"/><path class="cls-1" d="M89.4,268.75c1.51,2,0,3.49.52,5,1.08,1.17,2.87,0,4.06,1.06-2.49,3.14-3.11,3.13-6.8-.1-3.07,3.24-6.21,1.93-9.6.35,1.92-3.62,5.23.84,6.61-1.36S87.38,270.29,89.4,268.75Z"/><path class="cls-1" d="M112,274.36c-4.07,3.08-9.09-1.27-13.82,3C100,273,100,273,112,274.36Z"/><path class="cls-1" d="M456.09,272.36a27.51,27.51,0,0,1,14.1.05C464.77,272.59,460.49,274.64,456.09,272.36Z"/><path class="cls-1" d="M228.71,272.47c3.25,1.51,6.41-1.66,9.88-.2C233.85,276,232,276.05,228.71,272.47Z"/><path class="cls-1" d="M140.9,172s-13.93,65.55-9.54,84.27"/><path class="cls-1" d="M147.4,185.9c7.43,21.92,11.83,44.29,7.2,71.22"/><path class="cls-1" d="M138.72,83.45s-9.59,23.89-.92,62.47"/><path class="cls-1" d="M138.69.08c-2.91,18.83.08,62.44,9.72,84s-3.68,78.72-3.68,78.72"/><path class="cls-1" d="M131.83,273.86a4.24,4.24,0,0,0,4.62-.37,6.64,6.64,0,0,0,2.43-4.58c.39-3.54-1.88-7.14-4.92-8C127.89,259.09,127.63,271.44,131.83,273.86Z"/><path class="cls-1" d="M140,267.38a5.58,5.58,0,0,0,.33,3.12,5.72,5.72,0,0,0,2.28,2.14c1.14.72,2.46,1.46,3.7,1a3.88,3.88,0,0,0,2.06-2.54,8.06,8.06,0,0,0-.47-6.08c-.84-1.61-3.12-3.88-4.89-3.28S140.22,265.58,140,267.38Z"/><path class="cls-2" d="M148.75,268a6.55,6.55,0,0,0,.86,3.44,2.87,2.87,0,0,0,2.41,1.06,4.59,4.59,0,0,0,2.71-.59,4.12,4.12,0,0,0,1.78-2.92,5.33,5.33,0,0,0-1.75-4.69c-1-.77-3.21-1.85-4.33-1.7C148.82,262.78,148.66,266.07,148.75,268Z"/></g></g></svg>