<svg xmlns="http://www.w3.org/2000/svg" viewBox="0 0 319.24 785.16"><defs><style>path{fill:none;stroke-miterlimit:10;stroke:#fff;stroke-width: 1px;stroke-dasharray: 3050px;stroke-dashoffset: 3050px;display:'none';-webkit-animation: svgAnim 20s ease-in-out 59s 1 both ;animation: svgAnim 20s ease-in-out 59s 1 both ;}@-webkit-keyframes svgAnim
{
	0% {stroke-dashoffset:3050px;}
	50% {stroke-dashoffset:0;}
	100% {stroke-dashoffset:3050px;}
}@keyframes svgAnim
{
	0% {stroke-dashoffset:3050px;}
	50% {stroke-dashoffset:0;}
	100% {stroke-dashoffset:3050px;}
}</style></defs><title>Asset 12</title><g id="Layer_2" data-name="Layer 2"><g id="Layer_1-2" data-name="Layer 1"><path class="cls-1" d="M255,51c-1.81,1.15-4.58,2-5.95,3.94-4.34,6-8.84,12.14-11.94,18.84-2.4,5.2-3.18,11.27-4,17.05s-.43,11.66-.94,17.46c-.16,1.86-1.84,3.56-2.15,5.45-1.32,8-1.83,16.18-3.69,24.05-2.13,9-5.38,17.81-8.54,27.95-.82-2.61-1.63-4.18-1.77-5.81-.59-6.55-.9-13.13-1.48-19.69-.12-1.31-1-2.56-1.51-3.83-1,1.1-2.59,2.05-2.88,3.31-1.61,6.81-3.22,13.64-4.19,20.56-.77,5.52-2.15,11.66-.54,16.65,3.09,9.63.18,16.87-5.12,24.44-5,7.08-9.13,14.74-13.65,22.14a4.48,4.48,0,0,1-.54-3.28c2.5-13.58,5.83-27.07,7.32-40.75s1.41-27.4,1.46-41.12c0-10.61.11-21.36-1.47-31.8-2.28-15.1-2.26-29.65,3.09-44.14,2-5.52,3.41-11.37,1.4-17.49-2.06-6.3-8.25-9.09-12.49-4.19-4.45,5.14-10.88,2.37-15.7,6.19-2.54,2-6.78,2.45-8.8,6-1.43,2.5-3.35,3.88-6.45,3.43-3.41-.49-5.39.77-5.2,4.67.05,1-1.1,2.14-1.72,3.2-1.19,2.07-2.42,4.11-3.6,6.19-1.08,1.91-1.77,4.15-3.21,5.71-4.18,4.51-3.68,10.55,1.8,13.28a29.71,29.71,0,0,0,9.88,2.64c9.38,1,18.81,1.42,28.19,2.41,1.57.16,3.85,1.72,4.29,3.11,1.91,6,4.27,12.21,4.61,18.43.69,12.94-.34,26,.32,38.93,1,19.36-4.13,37.87-7,56.68-1.32,8.78-4,17.36-6.36,26-3.27,12.21-6.69,24.39-10.15,36.55-1.68,5.93-3.58,11.79-5.38,17.68h-1.81c-.2-3-1.11-6.18-.47-9,2.81-12.43,6.25-24.76,1.24-37.42-2.4-6-4.83-12.07-7.59-19-8.11,11-5,23.26-7.37,35.22-3.32-5.88-6.3-10.84-8.93-16-1.14-2.23-1.55-4.83-2.47-7.87"/><path class="cls-1" d="M244.76,275.87A110.77,110.77,0,0,1,239.6,290c-2,4.64-4.85,9-7.31,13.41a8.08,8.08,0,0,1-1.9-4.31c-1.14-8.81-2.2-17.63-3.41-26.42a22.13,22.13,0,0,0-1.58-4.38c-1.05,1.24-2.7,2.33-3,3.73-1.73,7-3.24,14.1-4.6,21.21-1.76,9.2-1.09,18.1,4.25,26.89l-39.3,54.9a19.87,19.87,0,0,1-.81-3.4c-1.44-16.18-6.38-31.55-10.34-47.19-3-12-8.85-23.73-4.54-37,4.55-13.94,8-28.22,12.12-42.31a5.34,5.34,0,0,1,2.51-3.2c8.57-3.56,17-7.34,23.64-14,3.52-3.55,6.62-7.51,9.9-11.28l-1.28-1.52-20.62,7.79c-.23-.39-.47-.78-.71-1.17,6.79-11.26,13.66-22.47,20.31-33.81A78,78,0,0,0,219,175.4c3.38-9.28,6.23-18.75,9.54-28.06.46-1.32,2.22-2.19,3.42-3.22,4.06-3.53,8.82-6.5,12-10.67,5.23-6.78,9.23-14.51,14.2-21.53,2.6-3.67,2.42-6.76.13-10.75l-23.48,22.71-1.27-1c1.7-7.14,3.33-14.3,5.15-21.42.39-1.54,1.06-3.39,2.23-4.29,6.62-5.08,8.35-12.55,9.82-20,1.65-8.4,2.73-16.91,4.17-26.13"/><path class="cls-1" d="M133.6,237.77c-.55-.51-2.23-1.41-3-2.81-5.22-9.72-10.17-19.59-15.4-29.31-1.74-3.24-2.31-6.06.33-9.06.71-.8.8-2.12,1.22-3.19,3.4-8.71,3.33-17.81,3.08-27-.14-5,0-10.08,0-15.12l-1.91-.48c-4.32,10-8.65,20-13.34,30.82-1.11-2.09-2.21-3.5-2.66-5.09q-7-25-13.87-50c-2.1-7.64-1.51-13.89,5.33-19.84,4.07-3.54,6-10,7.82-15.54,2.14-6.36,3.17-13.09,4.66-19.67.37-1.65.68-3.32,1-5a52.15,52.15,0,0,0-5.65,1.92,8.43,8.43,0,0,0-2.48,2.3C93.85,76.44,89,82.18,83.91,88.16a67.06,67.06,0,0,1-1-8.12c0-10.26-4.73-21.11,3.52-30.46a5.11,5.11,0,0,0,.77-2.33c2.88-14.85,3.7-29.71-.29-46-2.32,3.84-4.23,6.9-6,10-7.11,12.29-10,25.74-6.46,39.31,2.86,11.06,2.63,22.22,4.18,33.28,2.07,14.67,3.34,29.45,5.09,44.18.42,3.53,1.37,7,2,9.91-8.43-5.47-17-11-25.54-16.59-1.89-1.23-3.6-2.78-5.61-3.72-.68-.32-2.33.54-2.95,1.32-.36.47.23,2,.76,2.78,4.12,6.11,8.66,12,12.43,18.28,5.29,8.86,11.19,16.39,22.56,17.34,1.52.13,3.47,2.24,4.15,3.88,1.58,3.79,2.12,8,3.78,11.77,6.64,15,13.59,29.86,20.35,44.81,1.27,2.81,2.2,5.79,3.52,9.34-7.89-3-14.81-5.79-21.81-8.32-1.27-.46-2.86,0-4.31,0,.44,1.31.6,2.81,1.36,3.9A125.49,125.49,0,0,0,102,233.18c6.48,7.67,13.35,14.58,25,11.44,1.17-.32,3.39,1.1,4.28,2.33a61,61,0,0,1,4.57,8.24c7.15,14,14.07,28.08,21.54,41.88a11.2,11.2,0,0,1,1.38,8.3c-1,5.17-2.1,10.35-2.76,15.57-1.33,10.58-2.49,21.19-3.56,31.81-.83,8.22-1.42,16.47-2.16,25.25-7.28-9.49-14.85-18.23-11-31a10.83,10.83,0,0,0,.07-2.49c.52-9.83-3.38-18.45-7.55-27-.65-1.34-2.09-2.31-3.17-3.44-.87,1.35-2.28,2.61-2.51,4.07-1.1,7.07-1.88,14.2-2.77,21.31-3.39-3.47-5.79-7.57-8.21-11.65a7.09,7.09,0,0,0-1.11-1.44c-1.85-1.75-4.1-3.2-5.52-5.24-5.07-7.29-9.83-14.8-14.79-22.18-2-2.9-3.08-5.8-1.2-9.15A54.05,54.05,0,0,0,98,248.75c-.29-1.16-1.54-2.07-2.35-3.09a14.06,14.06,0,0,0-2,2.74c-3.52,8.4-6.94,16.84-10.85,26.39-1.31-3.88-2.47-6.75-3.22-9.72-1.33-5.27-2.67-10.55-3.49-15.9a15.6,15.6,0,0,1,.77-7.79c3-7.38,7.15-14.71,5.66-22.78-1.56-8.47-4.75-16.66-7.41-24.91-.23-.71-1.89-1.31-2.89-1.3-.61,0-1.65,1.19-1.76,2-1.42,9.42-3,18.82-3.87,28.29-.36,4,.73,8.19,1.55,12.22.58,2.83,2.23,5.46,2.71,8.29,2.13,12.67,4.16,25.32,9.69,37.14,2.28,4.88,3.6,10.21,5.48,15.29a12.66,12.66,0,0,0,2,2.72l15.38,20.82c-10.23-1.72-18.64-3.19-27.08-4.48-1.25-.18-2.63.55-4,.85.47,1.2.66,2.66,1.47,3.56a105.81,105.81,0,0,0,9.37,9.68c6.93,6,15,9.08,23.88,5.41,4.79-2,7.14.12,9.32,3.22,8.84,12.53,17.32,25.32,26.29,37.75,8.62,12,9.56,24.54,13.4,39.73l5.6,1c-2.67-1.1-3.12-2.44-3.71-8.79-1.06-11.53-2.12-23.11-2.11-34.67,0-9.87,1.48-19.75,2.42-29.62.8-8.43,1.73-16.86,2.71-25.27.28-2.34.95-4.63,1.44-6.94l1.49,0c1.92,8.11,3.52,16.32,5.81,24.33a228.74,228.74,0,0,1,9.12,52.93c.39,8.77.48,17.56.92,26.33.12,2.28-.45,3.59-1.7,4.16l5.83.49c0-10.38-.57-20,.15-29.51.86-11.53,7.8-20.47,14.33-29.5,2.5-3.45,5.35-4.24,9.28-3.85,2.91.28,6.33.7,8.75-.51,7.19-3.57,14-7.86,20.93-12,3.12-1.85,6.1-3.92,9.15-5.88-.2-.63-.4-1.25-.59-1.87-10.12.41-20.26.25-30.6,3.75,2.12-4,3.33-7.62,5.56-10.37a166.62,166.62,0,0,0,27.69-49.54c.62-1.73,2.71-4,4.26-4.15,5.93-.42,9.24-4.17,12.26-8.4q9.69-13.58,19.09-27.37c.62-.91.45-2.35.64-3.55l-1.16-.94c-10.78,7-21.93,13.51-30.63,24-.43-5.86-1.34-11.14-1.1-16.37.61-13.54,1.91-27,6.7-39.93,1.25-3.36.36-8.16-1.05-11.69s-5.15-1.36-7.95-.7a4.46,4.46,0,0,1-2,0c-4.09-1-6.65.76-7.83,4.52-6-.4-9.34,1.46-10.25,6.27-1.71,9,.84,16.61,7,23.66,4.26,4.88,8.87,10.69,10.12,16.74,2.4,11.65,1.33,23.08-1.84,34.19"/><path class="cls-1" d="M149.26,86.45a8.72,8.72,0,0,1-5.73-2.94c-.58-.79,1.42-3.45,2.18-5.29,1.22-3,2.38-5.94,3.95-9.87l24.67,19.48C165.06,87.37,157.14,87.14,149.26,86.45Z"/><path class="cls-1" d="M153.26,61.44c5.8-.22,9.44-2,11.92-6.74,2-3.86,5.11-3.35,6.6.9,1.9,5.41,3.12,11.06,4.8,16.55,1.44,4.73,3.12,9.38,5.22,15.63C170.54,80.08,160.18,73.26,153.26,61.44Z"/><path class="cls-1" d="M186.32,83l-1.51.44Q181.39,71,178,58.62c-.26-.95-.33-1.95-.58-2.9-1.65-6.42-1.34-6.29,4.94-7.37,3.25-.56,6.16-3.09,10.58-5.46.52,4,1.91,7.55,1.22,10.67C192,63.46,189,73.2,186.32,83Z"/><path class="cls-1" d="M234.85,199.58c3.61,1.63,7.43,12.93,8.44,25C234.88,218.06,231.39,207.71,234.85,199.58Z"/><path class="cls-1" d="M247.77,222.83c-1.59-8.2-3.27-15.17-4.14-22.23-.31-2.55.16-6.28,5.15-4.77,1.63.49,3.89-1.08,5.85-1.71C256.46,198.74,254.41,207.64,247.77,222.83Z"/><path class="cls-1" d="M227.22,763l15.42-8.9c-1.47,6.06-6.34,8.26-11.22,10.3-1.19.5-2.76.08-4.16.08C227.25,764,227.24,763.48,227.22,763Z"/><path class="cls-1" d="M35.66,591.05c-2,22.67-35.16,52.6-13.6,75.8C78.38,727.44,160.16,755.7,186,763.23s58.33,30.49,64,17.56,18.07-54.08,25.83-75,18.35-82.36,33.25-139.24,9.56-91.79,3.55-102.84-12.08-11.13-16.66-9.33-24,29.33-30,36.48-11.67,1.52-15.88,13.19c-8.66,23.95-43.8,134.15-82.41,182.44s-35.65,45.78-65.36,22.57S28.18,558.62,9.22,514.47s-3.36-70,12.43-79.85,84.54,5.63,96.41,3.43S134.62,410,134.62,410,169,420.6,203,418.49c0,0-2.51,15.53,7.43,18.88s13.92,6.35,13.92,6.35l14.24-14.89s15.61,3.8,4.35,15.68c0,0,8.27-12.8,11.26-11.88s9.46,2,10.46,4.21-3.92,11.59-3.92,11.59,3.28-11.27,11-11,15.47,8.1,2,17.71c0,0,15-15,23.5-13.71s11.88,19.64,11.88,19.64"/><path class="cls-1" d="M218.91,442.55s-8,20.73-8,27.49-4,9.76-4,14-4.92,25.7-10.75,32.25-28.82,54.46-36.75,64-55,42-57.5,68.25"/><path class="cls-1" d="M74,487.16c11.37,5.14,35.12,68.39,39.87,86.64s11.39,37.63,11.39,37.63"/><path class="cls-1" d="M222.41,584.55s-11.83,102.72-17.25,106.28-35.75,1-41.25-2.53"/><path class="cls-1" d="M97.48,454.93c8.93-2.38,28.68,27.37,37.93,30.12"/><path class="cls-1" d="M146.92,475.87s8.74,17.14,17,11.29"/><path class="cls-1" d="M182.22,485.05s14.94-17.25,26.69-17"/></g></g></svg>