<svg xmlns="http://www.w3.org/2000/svg" viewBox="0 0 438.6 491.68"><defs><style>path{fill:none;stroke-miterlimit:10;stroke:#fff;stroke-width: 1px;stroke-dasharray: 2850px;stroke-dashoffset: 2850px;display:'none';-webkit-animation: svgAnim 20s ease-in-out 31s 1 both ;animation: svgAnim 20s ease-in-out 31s 1 both ;}@-webkit-keyframes svgAnim
{
	0% {stroke-dashoffset:2850px;}
	50% {stroke-dashoffset:0;}
	100% {stroke-dashoffset:2850px;}
}@keyframes svgAnim
{
	0% {stroke-dashoffset:2850px;}
	50% {stroke-dashoffset:0;}
	100% {stroke-dashoffset:2850px;}
}</style></defs><title>Asset 26</title><g id="Layer_2" data-name="Layer 2"><g id="Layer_1-2" data-name="Layer 1"><path class="cls-1" d="M165.72,60.94l2.69-4c-5.75-.57-11.06-.42-15.21,3.46a7.66,7.66,0,0,0-2,5.67c.14,1.27,2.58,3.3,3.83,3.19,1.79-.16,3.55-1.82,5.11-3.09,2-1.67,3.87-3.6,5.79-5.42l.39,1.87c6.12-2.83,13.33-4.21,15.29-10.54l8.55-4.92-.79-1.48c-7.58-.52-13.72,2.83-21.17,8.1L172.49,57Zm15.39,73.53c2.83,5.77,2.76,6.67-1.05,7-2.86.24-5.32,1-5.08,4a11.85,11.85,0,0,0,3,7c4.22,4.13,3.85,7.1-1.51,9.73-1.59.78-2.7,2.71-3.81,4.26s-2,3.34-3,5.11c9.59-3.53,19.19-6.66,28.4-10.67,3.41-1.49,6.16-4.82,8.8-7.7,3.52-3.83,6.66-8,9.89-12.11.81-1,1.88-2.26,1.92-3.42.19-6.25.09-12.5.09-18.16-5.08-2.37-9.93-4.83-15-6.9-2.38-1-5-2.67-7.27,1-1.19,2-3.45,3.45-5.48,4.78-3.44,2.26-7.08,4.23-10.79,6.41l5.05,7.37ZM192.59,85.6c-3.73,1.91-7.65,2.75-9.59,5.17-3.88,4.85-8.24,5.53-13.66,4.15-1.93-.49-3.93-.67-5.89-1-3.24-.63-5.75-.1-7.47,3.23-.7,1.37-2.77,3.07-4,2.93-4.58-.52-4.26,1.76-3.39,4.77,2.05,7.11,4.2,6.07,11.54,9.29,7.75,3.41,7.78-1.58,10.24-5.07.34-.49,1-.73,2-1.37l7,8.81c.87-3,1.51-5.21,2.34-8.08,2.14,2.45,3.39,4.62,5.25,5.81,1.68,1.07,4.05,1.08,6.11,1.55.27-1.74,1.27-3.8.67-5.18-1.4-3.22-.57-5.49,1.86-7.47a54.45,54.45,0,0,1,4.59-3C192.78,96.5,192.78,96.5,192.59,85.6Z"/><path class="cls-1" d="M355,65.47l-6.2-.34,7-11.5c2.38,4.4-2.91,6.17-4.41,9.82a43.05,43.05,0,0,0,6.49-.93c3.57-1.1,7-1.12,6.46-7.49a27.41,27.41,0,0,1,6.14-19.27c-1.79,6.91-3.76,14.56-5.74,22.21l1.82,1c1.51-1.3,3.35-2.37,4.48-3.95,7.41-10.35,14.65-20.82,22-31.22,1.95-2.77,1.88-5.25.1-8.18-1.23-2-1.59-4.59-2.34-6.91h2c1,2.71,1.91,5.42,3,8.41L398.15,15c-3.88,12.69-11.27,23.37-18.76,33l23.8-4.9-.06.2c-8.24,2.61-16.48,5.21-24.7,7.88a6.1,6.1,0,0,0-3,1.71c-5.18,7-12.37,10.63-20.56,12.71Z"/><path class="cls-1" d="M241.84,8.72l9.67,16.73A26.21,26.21,0,0,1,240.84,8.72Z"/><path class="cls-1" d="M293.05,82.18l-.33.89c-.62-2.3-2.2-4.88-1.63-6.85.72-2.53.38-4.24-.12-6.71-.68-3.39,1-7.26,1.67-10.7-8,.54-13.45,11.66-9,20.88-.59-.3-1.17-.4-1.26-.67-1.81-5.22-4.54-10.36-5.06-15.72-.57-6,2.85-11.07,7.73-14.86a5.43,5.43,0,0,0,2.16-2.64c1-5.23,3.82-6,8.81-5.14,5.8,1,11.84.92,17.76.79,4.2-.09,8.36-1.24,12.57-1.51,2.08-.14,4.66,0,6.23,1.15,2.32,1.67,4.8,4,5.64,6.62,1.09,3.35,2.77,3.5,5.43,3a17.82,17.82,0,0,1,7.71-.27l-6.13,1.29c-.19,4-.37,7.61-.54,11.24-.13,2.87-.66,5.81-.28,8.62,1.3,9.49-3.13,17-8.11,24.29-.75,1.1-2.92,1.17-4.33,1.91a15,15,0,0,0-2.44,2.08l-4.42-9.57c-3.58-2.08-8.07-7-14.94-4.31,1.49-2.15,3-2.93,5.82-1.73,1.52.65,3.75-.36,5.35-.57,1.67,1.53,3.82,5.1,6.13,5.2s4.91-3.12,7.13-5.16c.5-.46,0-2.07-.14-3.38l-4.56.31a10.63,10.63,0,0,0-4.3-5.08c-2.24-1.29-4.94-1.78-7.15-3.09-1.87-1.1-3.34-2.89-4.72-4.14-7.06,4.47-7.13,10.61-5.87,17.14L293,82.18c.73-.3,1.49-.92,2.15-.83,3.41.5,6.79,1.19,10.94,2-.23-3.29-.41-5.4-.51-7.5-.05-1-.32-2.15.13-2.84,1.54-2.37,4.53-4.43,4.81-6.85.49-4.21-4.46-3-6.69-4.76-.13-.1-.25-.29-.39-.31-2.73-.33-6.13-1.81-8.06-.71-3.45,2-4.25,5.84-2.67,9.91a13.39,13.39,0,0,1,.5,4.58C293.24,77.28,293.11,79.73,293.05,82.18Zm35.79-14.32,5.78,1.87-3.82,8.62c6.14.6,9.43-4.16,8.43-12.13-8.42-3.51-11-10.62-11.71-18.62l-5.3-1.75-.23.46L326.27,49l-4.21.32c6.7,4.4.89,9,1.25,11.74L329,68l-1.86-1.26-2.34,6.92c3.16-.11,7.12,3,8.92-2.66ZM311,61.55a12.75,12.75,0,0,0-7.37-8.2c-6.17-2.62-6.42-2.59-7.12,3.87l14.63,4.2c-.18,6.8,7.48,6.47,10.25,10.93.58-5.92,1.16-11.84,1.79-18.18l-11.47-8.7.36-.63,4.95,1c-5.89-4.88-6.39-3.88-9.74,7.65C311.34,56.52,311.34,56.52,311,61.55Zm-31.53,5c5.36-4,10.62-7.44,15.29-11.56,4.49-4,8.37-8.62,12.23-12.68H290.44C288.38,50.6,276.39,54.38,279.51,66.6Zm49.27-20.45c.91,11.21,5.16,16.15,10.36,17.31-.33-1.42-.58-3-1.08-4.56-.34-1-.77-2.34-1.58-2.82-3.94-2.34-4-2.26-5.05-7.41l11.68,15.51c.24-3.69,1.57-8.37.43-9.08-4.54-2.82-6-7.56-9-11.24-2.53-3.11-14-3.36-18.48-1.33Zm-2,46.37c5.43,5.22,7.08,5,10.35-.45,1.58-2.66,3.11-5.36,4.66-8l-1.13-1.38Zm8.75-11.68c1.66.47,3.31,1.55,4.46,1.15,3.14-1.07,3.9-5.09,2.16-9.36l2.23,2.24ZM308.55,45.41l-1.08-.72-7.36,5.82,5.66,2C306.8,49.85,307.67,47.63,308.55,45.41Z"/><path class="cls-1" d="M265.71,254.23c8-1.54,15.92-3.25,23.93-4.54,3-.48,6.52-.83,9.28.18,8.14,3,16,3.69,24.13-1.65-2.42,3.19-4.63,5.43-6,8.1A13.33,13.33,0,0,0,316,263c.35,4.85-1.85,9.11-7.82,12.09,6.07-5.22,7.82-10.41,4.25-16.44-.61-1-2.38-2.29-3.25-2.06-11.14,3-22.15.23-33.19-.58-3.43-.25-6.84-.74-10.26-1.12Z"/><path class="cls-1" d="M215.86,191.69c.93,3.43,2.28,6.81,2.71,10.3.67,5.39-3.2,8.39-8.49,6.79-2.84-.86-5.47-2.45-8.31-3.33a140,140,0,0,0-13.89-3.7c-4.1-.83-8.18-1.1-10.47-5.5-.68-1.31-2.51-2.08-3.89-3-2.83-1.82-4.36-3.85-2.49-7.38.54-1-.06-2.65-.24-4a16.39,16.39,0,0,1-.08-6.36c.52,2,1.11,4,1.52,6,.31,1.48,1,3.32.44,4.44-1.52,3-.73,4.71,2.08,6,.3.14.69.26.85.51,4.83,7.29,12.83,6.86,20.08,8.64,4.94,1.22,9.51,3.91,14.33,5.73s7.48-.1,6.94-5.35c-.32-3.11-1.37-6.14-2.09-9.2Z"/><path class="cls-1" d="M269.69,69.55c3.34,2.92,7.3,5.4,9.82,8.91,1.78,2.47,2.78,5.5,4.75,8.19,5,6.85,12.64,12.25,12.81,22.09l-4.26,2.44-.34-.38,3.08-3.49a1.85,1.85,0,0,0,0-.47c-2.18-6.62-3.86-12.57-13.1-13.72-7.95-1-12-8.76-14.95-15.92-.86-2.13.15-5,.31-7.58ZM285,92c-5.89-6.27-7-16.23-15.86-20.32C267.17,79.28,274,88.41,285,92Z"/><path class="cls-1" d="M221.1,201.23c5.09-.54,7.32-2.06,7.71-6.29.38-4.05,2.88-6.29,7.39-4.84a19.37,19.37,0,0,0,3.49.39c0-1.91-.38-3.63.09-5.07.66-2,1.5-4.58,3.08-5.47,3.64-2.06,4.27-4.33,3.19-8.21a10.67,10.67,0,0,1,.71-7.48c3.79-6.39,3.73-11-1.29-16.49-1.11-1.22-2.39-2.29-3.76-3.58,8.25,2.43,12,13.13,7.67,19.92a12.09,12.09,0,0,0-1.24,7.74c.63,4.25.29,7.4-4,9.61-1.26.65-2.14,3.06-2.24,4.72-.33,5.81-.84,6.54-6.38,5.5-3.94-.74-5.17,1.41-5.6,4.53C229.31,200.59,226.94,202.26,221.1,201.23Z"/><path class="cls-1" d="M346.36,122l-5-1.81c-1.85,5.73-7.66,7.72-15.72,4.82-3.84-1.39-7.39-3.55-11.53-5.59-.27,2.4-.5,4.43-.73,6.46,1.51-6.67-2.45-9.42-7.82-11.44a14.75,14.75,0,0,1-6.38-4.71c3.82,1.83,7.65,3.65,10.7,5.12.6-2.33.46-5.58,1.92-6.67,3.41-2.54,6.83-.44,9.69,2.32a38.75,38.75,0,0,0-5.68-1.59c-3.83-.49-4.85,1-3.52,4.61,2.56,6.86,9.09,8.17,14.83,10.3,2.35.87,5.25.37,7.9.29,2.12-.07,4.47,0,4.3-3.38,0-.46,2.4-1.53,3.6-1.43s2.47,1.29,3.7,2Z"/><path class="cls-1" d="M143.45,58.76c.22-8,.61-8.24,7.26-10,1.81-.48,3.54-2.32,4.72-3.95,1.89-2.62,2.68-7.15,5-8.07,4.79-1.89,10.3-2.2,15.56-2.61a27.41,27.41,0,0,1,8.82,1.11,20.64,20.64,0,0,1,5.51,2.93c2.33,1.47,4.56,3.11,7.12,4.87"/><path class="cls-1" d="M272,99c0,4.56-.17,9.33,0,14.07.18,3.86.83,7.61,5.29,9.28.75.28.81,2.15,1.4,3.16.89,1.51,2,2.91,2.9,4.25l6.71-7.89-3.52,10.69,15.19,1.06,0,.59c-4.85.25-10.08,1.7-14.45.36-3.4-1-5.78-5.52-8.51-8.56-.69-.77-.74-2.15-1.48-2.82C269.85,117.9,268.16,106,272,99Z"/><path class="cls-1" d="M354.89,65.6c5.55,1.07,7,5.3,6.76,11.11-.13,2.92,1,4,2.65,5.66,1.3,1.35,3,3.63,2.63,5.09-2,9-6.42,16.48-16,19.56,1.77-1.27,3.5-2.58,5.3-3.81,5.64-3.84,7.45-9.95,9.39-15.93.27-.81-.45-2.21-1.12-3-1.63-1.85-3.64-3.35-5.23-5.22-3.07-3.6-6.16-1.83-9.65.11,3.24-4.47,5.41-4.77,10.43-1.62,1.05-5.31-1.45-8.92-5.05-12.1A1.27,1.27,0,0,1,354.89,65.6Z"/><path class="cls-1" d="M187.63,27.31c-3.32-3.16-4.18-9.06-.95-12.12,1-1,4.37-.7,5.92.23a18.82,18.82,0,0,0,7.81,2.68c4.31.58,8.29,4.09,12.19,6.68.51.34-.08,2.73-.54,4-.86,2.38-2,4.67-3,7l-.9.13"/><path class="cls-1" d="M437.51,24.67l.4.88c-2.31.82-4.58,1.77-6.93,2.44-11.81,3.31-23.66,6.46-35.43,9.87-3.11.89-6,2.48-9.5,4"/><path class="cls-1" d="M262.25,255.93c12.82,9.71,23.48,24.1,42.8,20.16"/><path class="cls-1" d="M263.84,252l42.43-14.7c.14.42.27.84.41,1.26L264.23,253.2Z"/><path class="cls-1" d="M168.69,155.75c-8.05.74-31.33-4.09-33-6.1l34.41,5c-.51,1.58-1,3.29-1.6,5l-.87-.15a11.51,11.51,0,0,1,.24-1.56C168.11,157.28,168.39,156.59,168.69,155.75Z"/><path class="cls-1" d="M68.9,151.3c-5.41,9.59-25.4,13.69-39.68,8.29C43.37,159.48,57.35,162.78,68.9,151.3Z"/><path class="cls-1" d="M267.2,139.76c5.49,9.31,14.22,8.71,23.1,8.44,3.52-.1,8.35-1.09,9.46,5.38-4.85-5.06-10.65-4.08-16.09-3.72C275.75,150.39,270.63,146.79,267.2,139.76Z"/><path class="cls-1" d="M312.25,30c6.29-5.38,11.56-4.86,13.19,1.57,3.8-.1,8.25-.74,8.32,6.57"/><path class="cls-1" d="M271.79,18.22c2.91-6.17,10.88-9.28,19.55-7.71-1.23,1.56-2.13,2.69-3,3.83"/><path class="cls-1" d="M136.82,143.73c1.39-4.22,2.66-8.48,4.25-12.62.49-1.26,2-3.12,2.81-3,1.49.18,2.82,1.64,4.21,2.57"/><path class="cls-1" d="M117.44,68.7c4.55-2.91,15.29-1.58,19.67,2.41"/><path class="cls-1" d="M123.13,52.18l4.17-4.31c.43-2,.55-5.4,1.34-5.56,3.15-.64,6.51-.27,9.79-.27l-.23,1.4"/><path class="cls-1" d="M335.1,102.82c.56,2.46,2.11,6.76,1.52,7.08-3.05,1.66-6.66,2.28-10.07,3.27-.14-.63-.29-1.27-.43-1.91"/><path class="cls-1" d="M275.7,57.34c-3.77-2.83-5-1.07-5.5,2.56-.39,2.86-1,5.69-1.56,8.53l-1.34-.22c.51-3.84.62-7.8,1.66-11.49S273.09,53.41,275.7,57.34Z"/><path class="cls-1" d="M429.08,33.66,415.59,45.12l-.81-.95,13.44-11.48Z"/><path class="cls-1" d="M222.87,66.61,206.69,67c3.25-3.13,11.09-4.1,16.22-.89C222.9,66.26,222.89,66.43,222.87,66.61Z"/><path class="cls-1" d="M200.19,77l10.3.66c5.85-5.61,9.86-6.07,15.37-1.16,4.49,4,4.33,6.06-.89,12.71l3.11,6.87-.61.24c-1.45-2.25-2.9-4.5-4.49-6.95a16.25,16.25,0,0,1,1.39-1.85c2.55-2.55,5.24-5,1.78-8.8-3.87-4.21-9.05-5.42-12.26-2-2.81,3-5.14,3.52-8.59,1.6-1.49-.83-3.39-.93-5.12-1.38C200.17,76.92,200.19,77,200.19,77Z"/><path class="cls-1" d="M246.3,98c-2.31,6.46-4.38,13-7,19.36s-8.92,7-15.11,7.6"/><path class="cls-1" d="M173.22,77.3c-3.81-2.76-7.19-1.57-12,4.23,1-4.92,5.66-8.4,10.29-7.29.74.18,1.09,2,1.6,3.08Z"/><path class="cls-1" d="M322.36,152.62c-.18,17.44,14.86,37.43,15.76,51.37-4.26,14.55-20.54,15.18-21.89,14.55s-7.41-7.85-10.79-7.83-7.66-.54-11.14,1.14"/><path class="cls-1" d="M350,150.65c4.27,17.43-2,70.09-21.63,91.38"/><path class="cls-1" d="M319.37,338.52s14.9,15.24,18.15,31.56,5.77,108.63,4.16,121.54"/><path class="cls-1" d="M274.15,49.21s1.78-4.13,2.78-6.14,14.2-17.5,17.05-18.74,5.15,4.86,6.13,5.52"/><path class="cls-1" d="M128.42,206.25s3.09,18.95,7.31,26.87S250.37,341,288.93,310.65"/><path class="cls-1" d="M215.49,296.4s1,19.88-12.51,22.33"/><path class="cls-1" d="M148.16,315.81c21.51,13.15,41.32,7.57,72.94,2.64s44.6-1,44.6-1c9.7,3.9,23.23,11.52,23.23,11.52"/><path class="cls-1" d="M224.18,24.27c.17.37.34.75.52,1.12,5.51-3.73,13.55-4.21,18.1-.91-2.61,3.76-1.24,5.81,2.93,7,1.17.34,2.92,2.53,2.66,3.25-1.25,3.5,1.5,4.59,3.06,6.63A37.26,37.26,0,0,1,257,50.78c1.1,3,1.08,6.41,1.29,9.66.1,1.64.1,3.65-.73,4.92-1.44,2.22-3.57,4-5.47,6-4.19-8.47-15.1-13.07-14-24.65l-2.46,2.1v-7l-2.64,5.52c-8.42-2.66-16.57-7.81-26.88-3.86,8.45-.57,15.23,2.05,22.31,3.55,8.89,1.89,9.12,9.18,12.69,14.71l-2.84,3.58,4.76-2.58c8,7,11.28,15.74,11.37,25.84l6.68-8.64,1.73.69c-.3,2.1-.62,4.21-.89,6.32-.48,3.69-.85,7.41-1.43,11.09a23,23,0,0,1-1.45,4.49,58.61,58.61,0,0,1-2.93,7,10.64,10.64,0,0,1-3.35,3.79c-3.72,2.41-8.19,4-9.2,9.1-.08.43-.51,1.07-.85,1.12-7,1.06-8.9,8.32-14.09,11.5-2,1.21-4.35,1.74-6.53,2.58-.55-1.88-1.48-3.75-1.55-5.65-.13-4,.15-8,.35-12a4.41,4.41,0,0,1,.74-2.64c4.67-5,4.66-7.56-1.19-13.4,1,2,1.64,2.72,1.76,3.56.35,2.42,1.3,6.66.55,7a15.44,15.44,0,0,1-8.76,1.2c-3-.54-5.62-2.79-8.57-3.87-2.79-1-5.79-1.49-10.12-2.55-1.68-1.83.51-3.77,2.6-5.81,4.77-4.63,4.62-5-1.16-7.56a4.86,4.86,0,0,1-2.35-3.75A71.72,71.72,0,0,1,196,82.7a62.69,62.69,0,0,0-8.48,2c-2.31.87-5.43,2-6.26,3.91-2,4.65-5.47,4.95-9.46,4.51-3.44-.38-6.85-1.08-10.58-1.68.86-4.23-.09-7.35-5.31-7.45.49-2.29,1.49-4.34,1.18-6.17s-1.93-3.5-3-5.23c-.16,0-.44-.12-.47-.06-.38.61-.73,1.26-1.08,1.89,6,2-1.39,9.62,4.88,11.68a4,4,0,0,1,2.19,3c0,3.42-7.61,8.85-11.54,8.1.11-9.53-3.63-19.37,2.45-30.2l3.41,5.7c4-2.77,7.93-5.61,12-8.27,4.42-2.89,7.21-2.39,9.6.48-.43,3.69-.63,6.36-1.08,9a16.67,16.67,0,0,1-1.33,3.39l.08,0c.3,1.14,1,2.39.8,3.41a32.71,32.71,0,0,1-2.22,5.37l1.44.49c1.09-3.76,3.46-7.72,2.92-11.23-.6-4-.08-6.59,2.89-9l-5-6.11c2.6-.52,4.49-.79,6.32-1.29,3.57-1,7.08-2.18,10.66-3.13,1.84-.49,3.93-1.24,5.64-.81,4.23,1,8.31,2.7,13.29,4.4-3.39,3.18-6.71,6.22-9.95,9.34-2.37,2.29-5,4.32-2.64,8.47.69,1.22-1,3.77-1.54,5.71,2.64-1.11,5.32-2.19,4.33-6l0,.08c-2.9-2.86-3.07-3-.6-5.5,3-3,6.42-5.7,9.56-8.63,3.62-3.35,3.16-5-1.3-7-1.23-.55-2-2.24-3-3.53,7.06-3.27,12.29-1.35,14.85,5.06,1.15,2.87,2.16,5.8,3.22,8.7,0,.18,0,.35,0,.53-.34,8.12,7.12,8.33,11.67,11.49-1.93-1.42-3.89-2.79-5.75-4.29-1.31-1-3.08-2-3.61-3.44-1.86-4.89-2.69-10.25-5.08-14.83a12.34,12.34,0,0,0-7.68-5.8c-4.6-.78-9.67.56-10.48-6.2L197,47.19c-2.69-1.07-4.69-2-6.8-2.67-6.72-2-12.12,2.5-18.19,3.74-4.2.86-5.8,2.7-3.2,6.83-2.5,0-4.67-.31-6.73.06-5,.88-10.16,2-12.09,7.41a35.28,35.28,0,0,1-5.95,10.3c-7.89,10-12.25,21.28-6.64,34.25.39.9-.78,2.47-1.25,3.82l3.55,1.95-3.94,4.22,5.18-1.17c.91,2,1.69,3.79,2.42,5.46l-2.81,1.93c2.65,1.09,5.65,2.83,8.87,3.48a12.37,12.37,0,0,0,7.71-.84c1.2-.62,1.08-3.77,1.55-5.78-1.77,6.35-4.93,8.16-10.5,4.37s-6.74-10.3-8.38-16.25c-.72-2.63-.12-5.61-.12-9.33l7.05,3.47L141,97.21l4.41-11.14c-2.52,4.12-5,8.24-7.87,12.86-3.08-10.54,3.08-17.56,7.86-25.67V86.07q.69,8.19,1.37,16.38c-.11,6.38,2.5,11.28,8.4,13.84,1.86.81,4.7-.39,6.39.56,4.83,2.72,7,.44,8.8-3.63a26.33,26.33,0,0,1,1.72-2.81c7.38,9.53,7.86,9.64,11,2.54l3.79,4.45c-8.79,6.73-8.89,7-4.85,13.82-4.46,1.79-2.74,4.8-2.05,7.09-2.66,1.86-5.64,3.68-6.87,6.31-1.84,3.93.16,7.23,3.76,9.75,3.34,2.33,2.8,3.82-1.05,5.93-1.93,1.06-4.42,2.8-4.82,4.64-.85,3.89-2.88,4.6-6.32,4.72-2.49.09-5.4.54-7.32,1.93-5,3.63-10,3.79-15.59,2a23.38,23.38,0,0,0-9.12-1.06c-3.89.4-5.43-.48-5.55-4.62-.15-4.74-2.08-5.67-6.59-4-.7.26-1.42.48-2.18.73-1.61-3.07-3.06-5.82-4.5-8.58,1.51-1.64,2.81-3.07,3.87-4.23-1.35-2.42-2.48-4.43-3.64-6.48,4.75-2.32,7.7-.73,10.29,2.4,1.75,2.13,3.73,3.73,6.3,1.94a25.87,25.87,0,0,1-4.79-2.23c-4.65-3.47-8.95-7.45-13.77-10.64-4.46-3-7.29-6.5-8.26-11.84-.48-2.69-1.41-5.88-3.28-7.63-3.8-3.55-2.49-8.39-4.26-12.27C93.42,98.78,100,98,101.8,94.48A7.35,7.35,0,0,1,103.47,92c1.82-1.43,3.76-3.69,5.72-3.77,4.76-.19,9.56.68,13.33,1-4.79-3.64-14.68-4.77-18.49-1A113.27,113.27,0,0,0,94.14,100a5.39,5.39,0,0,0-.61,4.11c1.62,6.11,2.67,12.5,7.29,17.4"/><path class="cls-1" d="M139,174.66c6,2.41,11.8,3.34,17.72-.19.9-.54,2.28-.19,3.41-.4,5.34-1,10.8-1.62,16-3.17,6.8-2,13.35-4.92,20.08-7.21,1.29-.44,2.93.15,4.14.24l2.46-4.6,4.4,5c-.49-2.36-1-4.69-1.45-7l6.09.77-4-3.59c1.89-3.07,3.33-6.12,5.44-8.62s5-4.58,7.74-7c4.73,3.33,9.3,3.57,14.86.1,14.45-9,16.28-8.22,25.66,6.59,2.08,3.28,2.07,6,0,9-3,4.42-6.08,8.75-8.81,13.31a26.86,26.86,0,0,0-2.37,21c-2.48-14.67,6.21-24.45,15.27-34.24l-4.18,16.68.77.24c1.5-4.46,3-8.92,4.55-13.48,4.64,11.91.06,21.24-9,29.37,6.21-4,11-8.91,12.16-16.1,2.22-13.33-4.8-23.6-12.54-34.61l16.12,1.47a28.84,28.84,0,0,0-12-2.47c-4.23.18-7.27-.85-9.34-4.64,1.91-1.73,6.93-1.36,4-6.15,6.94.06,7.34-.58,5.39-9,4.93,2.68,5-.33,5.11-3.82a94.9,94.9,0,0,1,1.18-9.45c1-7.86,2.36-15.74-2-23.13,3.64,11.84-1.28,23.42-1.22,35.48l-4.94-.39c.67,2.86,1.25,5.3,1.95,8.28h-7.41l1.52,5.38c-10.84,1.56-18.43,10.55-30.27,12.38,4.76-5,8-10.29,12.63-12.85,5-2.73,7.3-7.33,11.19-10.65,1.49-1.26,3.46-2,5.2-2.91.58-.32,1.46-.53,1.67-1,2.08-4.8,4.42-9.54,5.91-14.52,1.2-4,1.22-8.36,2-12.52a60.36,60.36,0,0,1,1.95-6.49c-1.43-.36-3.12-1.36-4.23-.92-2.05.82-3.77,2.48-5.91,4-.74-2.72-1.42-5.2-2.16-7.88.91-.29,1.5-.52,2.11-.67,9.1-2.19,11.2-6.41,7.54-15.05a4,4,0,0,1-.26-2.33c2.29-9.19,4.66-18.36,7-27.39l-2.32,1.67c-3-7.6-5.91-15-8.82-22.35h-1l2.87,9,2.93,7.3-1.19,1.14-16-12-.74,1.09q8,5.68,15.91,11.39c1.12.81,2.93,1.54,3.17,2.58,2.1,9.3.06,18-3.29,26.1-.19-3.46.33-7.36-.79-10.73s-3.79-6.4-6-9.45c-.59-.83-1.84-1.19-2.78-1.76l-8.55-5.81c1.38-5.32.37-6.67-5.88-6.71-2,0-4.11-.36-6,.18a54.22,54.22,0,0,0-7.41,3.3"/><path class="cls-1" d="M116.3,141.52l-11.25-7.65c-.31,1-.59,1.83-1.11,3.4-1.56-9.13-18.63-24.94-23.07-28.6a33.26,33.26,0,0,0,16.92,29.61l5.7,3.1-.49,1.76c-10.1-1.47-20.34-2.34-30.27-4.57,0,0-.11-27.21-29.46-37.54,2.62-.18-3.11,18.36,25.63,36.76,6.34,4.07-17.82-5.76-25-8-4.88-6.46-9.67-12.7-18.75-14.4S2.59,111.17.65,109.55c0,0,1.85,15.25,18.8,21s24.85.41,24.85.41l29.05,10.14.39,1.19-18.4,6.28c5.62-.74,11.45-1.5,16.08-4.27,4-2.41,7.45-2.36,11.61-1.9,7.41.81,14.84,1.39,22.37,2v1.31c-11.41-1.34-21.32,11.44-24,30.12,8.48-10.31,29.07-15.24,26.38-30.12l.24-1.1,3.77.32,3.11,7.06c-6.77,4.79-.09,8.62,1.28,12.68,1.82,5.42,5.19-.36,8.21.67a16.23,16.23,0,0,1,.83,2.94c.63,6,1.67,6.81,7.51,6.17,2.08-.23,4.45-.49,6.29.25"/><path class="cls-1" d="M362,47.3c-2-9.92,19.88-36.9,20.18-45.4,0,0,8.61,16.32-2.59,32.65S367.5,52.46,367.5,52.46"/></g></g></svg>